<svg xmlns="http://www.w3.org/2000/svg" width="64" height="64" viewBox="0 0 64 64">
  <g id="ci_nps" transform="translate(-103.5 21)">
    <rect id="area" width="64" height="64" transform="translate(103.5 -21)" fill="none"/>
    <g id="ci" transform="translate(105.5 -5)">
      <g id="그룹_54113" data-name="그룹 54113" transform="translate(0)">
        <path id="패스_81118" data-name="패스 81118" d="M42.946,64.963c14.307,0,25.906-2.068,25.906-4.619s-11.6-4.618-25.906-4.618S17.04,57.794,17.04,60.345s11.6,4.619,25.906,4.619" transform="translate(-9.653 -31.567)" fill="#008e74"/>
        <path id="패스_81119" data-name="패스 81119" d="M22.8,18.4c-.144-.132-.025-.309-.138-.411-.23-.183-.4-.362-.629-.522-.06-.029-.123-.033-.182-.062-.114-.1-.23-.183-.343-.287a5.57,5.57,0,0,1-.567-.256l-.065.019c-.2-.158-.377-.265-.581-.4-.19.008-.3-.118-.457-.13-.062-.005-.057-.052-.085-.078a5.778,5.778,0,0,0-.692-.266c-.031,0-.065.019-.1.016l-.17-.155c-.091-.031-.284,0-.332-.121a.758.758,0,0,1-.395-.124.5.5,0,0,0-.188-.015,1.7,1.7,0,0,0-.335-.1.394.394,0,0,1-.275-.069l-.094-.007c-.059-.028-.15-.059-.209-.087-.032,0-.035.021-.065.019l-.451-.176c-.031,0-.1.039-.13.037a1.44,1.44,0,0,0-.3-.095.489.489,0,0,1-.252,0c-.029-.026-.091-.031-.12-.056-.031,0-.127.013-.159.01a3.124,3.124,0,0,0-.463-.082,2.457,2.457,0,0,1-.4-.1c-.031,0-.065.019-.1.016a.17.17,0,0,1-.088-.055l-.065.019a.679.679,0,0,0-.431-.08c-.065.019-.153-.035-.213-.064a.542.542,0,0,0-.19.009c-.256.028-.46-.106-.713-.1-.034.021-.122-.033-.153-.036a1.685,1.685,0,0,0-.594-.046c-.116-.08-.247-.043-.372-.052l-.029-.026c-.255.028-.5-.015-.755-.01a.368.368,0,0,1-.159.01.12.12,0,0,1-.06-.028c-.13.037-.215-.04-.343-.026a1.4,1.4,0,0,1-.44-.01c-.031,0-.059-.029-.091-.031a.507.507,0,0,1-.318.023c-.216-.041-.409-.008-.624-.049-.032,0-.1.039-.131.037A3.209,3.209,0,0,0,7.41,14.37c-.065.019-.165.058-.222.006a2.466,2.466,0,0,1-.775.153,3.234,3.234,0,0,1-.477.034c-.062-.005-.131.037-.222.006-.031,0-.059-.029-.091-.03a1.7,1.7,0,0,1-.514.077c-.031,0-.037.045-.071.067l-.094-.008c-.1.04-.159.011-.255.028-.318.022-.639.068-.96.114-.065.019-.122-.033-.184-.038-.162.035-.327.093-.52.125a1,1,0,0,0-.3.118c-.2.1-.458.13-.571.287-.293.072-.582.12-.877.215l-.037.045c-.031,0-.1.016-.128.013a1.205,1.205,0,0,1-.329.117c-.065.019-.108.109-.173.128-.258.051-.613.117-.611.354-.006.047.079.124.17.155l.094.008c.062,0,.085.077.148.082.125.01.25.019.375.029a.411.411,0,0,0,.287-.026c.065-.018.091.031.153.036a.132.132,0,0,0,.065-.018c.057.052.125.009.184.037a3.153,3.153,0,0,0,.639.192c.091.03.207.111.3.141s.19-.009.25.019c.232.16.508.229.641.427a.7.7,0,0,1,.42.175c.029.026.1-.017.128-.014.094.008.048.122.11.127a.686.686,0,0,1,.321.213c.057.052.184.038.244.066.12.056.241.089.361.146,0,0-.006.046.025.049l.188.015c.182.061.329.143.51.2.029.026.02.1.08.124l.125.01c.116.08.213.065.332.12l.026.049c.088.054.184.038.272.092l.125.009a2.265,2.265,0,0,0,.551.137c.031,0,.034-.02.065-.018.122.033.2.134.3.141.122.033.21.087.332.121.062,0,.134-.061.187.014,0,.023-.009.07.023.073a.508.508,0,0,1,.363.122,1.09,1.09,0,0,0,.619.1s.023.072.054.074a3.464,3.464,0,0,0,.491.109c.094.007.145.105.207.111.032,0,.068-.043.1-.04l.025.049c.182.061.366.1.579.163.031,0,.1-.016.128-.013.122.033.27.116.4.078.127-.015.244.066.372.052.031,0,.1-.039.131-.037a1.246,1.246,0,0,0,.354.193.244.244,0,0,0,.128-.013c.1-.017.182.062.312.024.032,0,.06.028.091.03a.24.24,0,0,1,.127-.013A3.16,3.16,0,0,0,13,20.21a.264.264,0,0,1,.119.055c0,.024-.006.047.025.049a.864.864,0,0,1,.347,0c.031,0,.034-.021.065-.019a.263.263,0,0,1,.119.056c.06.028.128-.014.19-.009a1.572,1.572,0,0,0,.463.083c.031,0,.059.029.091.032s.034-.021.065-.019l.085.076c.062.006.131-.036.19-.008a.621.621,0,0,0,.272.092c.062,0,.16-.012.168-.083a.123.123,0,0,1,.06.029c-.043.091.051.1.141.129a.249.249,0,0,0,.128-.013c.162-.035.3.094.437.033.338.074.681.1,1.022.15.122.033.255-.027.409.008a.941.941,0,0,0,.574-.049l.157.012c.162-.034.346,0,.477-.034a2.932,2.932,0,0,1,.329-.116.117.117,0,0,0,.06.028c0-.023.037-.044.037-.044.153.035.261-.075.389-.088a1.989,1.989,0,0,0,.228-.053c.031,0,.088.054.122.033.065-.019.108-.109.2-.1a1.715,1.715,0,0,0,.684-.183.675.675,0,0,1,.219.017c.006-.047.042-.091.1-.063a.442.442,0,0,0,.323-.07c.026.049.091.031.122.033.1-.039.17-.1.27-.145l.062.006c.066-.019.1-.063.165-.059l.037-.043c.1-.04.19-.01.261-.074a.5.5,0,0,1,.341-.21c.052-.162.25-.241.361-.374-.073-.171.009-.33,0-.5a.9.9,0,0,1-.057-.311c0-.024-.025-.049-.054-.075" transform="translate(0 -8.107)" fill="#005caf"/>
        <path id="패스_81120" data-name="패스 81120" d="M75.432,7.991l.193.017.225-.189c.128.033.3-.045.37.136,0,.143-.111.3.035.422.42.038,1.618.3,1.3-.2a9.816,9.816,0,0,0-1.223-.316l-.112.1c-.1-.132-.084-.335-.225-.437l.111-.1-.16-.221a1.773,1.773,0,0,1-1.018-.283c-.147.055-.122.188-.148.3.188.055.273.244.429.343a.419.419,0,0,0,.222.432" transform="translate(-42.361 -3.919)" fill="#df1f1b"/>
        <path id="패스_81121" data-name="패스 81121" d="M76.107,5.56a4.516,4.516,0,0,1,.731.262c.083-.142.2-.082.3-.082.042-.278-.29-.226-.319-.441.056-.069.117-.125.2-.09.01-.113.075-.241-.049-.317l-.188-.012c-.155.032-.082.265-.236.3l-.284-.019a.169.169,0,0,1-.062-.211l.111-.1-.156-.216c-.132.013-.271-.086-.394.078-.011.067-.022.136-.033.2.1-.022.138.04.173.114-.011.151-.082.22-.224.191-.012.111-.079.238.045.312l.381.027" transform="translate(-42.855 -2.615)" fill="#df1f1b"/>
        <path id="패스_81122" data-name="패스 81122" d="M73.753,5.28c-.047.1-.015.127.078.108.5-.183.256-.716.16-.908-.664-.162-.121.541-.238.8" transform="translate(-41.723 -2.523)" fill="#df1f1b"/>
        <path id="패스_81123" data-name="패스 81123" d="M78.634,8.093c.089.036.15-.019.206-.089a.176.176,0,0,0-.066-.215c-.134.051-.138-.177-.271-.127l-.222.192c.036.207.19.23.353.238" transform="translate(-44.344 -4.336)" fill="#df1f1b"/>
        <path id="패스_81124" data-name="패스 81124" d="M80.352,7.031a.364.364,0,0,0,.375-.119c.073-.134-.011-.217-.12-.293-.242.069-.25-.24-.492-.171l-.4.261c.066.28.345.311.639.322" transform="translate(-45.155 -3.647)" fill="#df1f1b"/>
        <path id="패스_81125" data-name="패스 81125" d="M73.058,7.488c.089.036.15-.019.206-.088a.176.176,0,0,0-.066-.215c-.134.05-.138-.178-.271-.127l-.222.192c.037.207.19.23.353.238" transform="translate(-41.185 -3.994)" fill="#df1f1b"/>
        <path id="패스_81126" data-name="패스 81126" d="M26.97.207c1-.145,1.946-.162,2.671-.206a30.444,30.444,0,0,1,4,.271l.134.179c.15.036.224-.118.342-.164.1.009.235-.029.257.1.168-.029,1.126.187,1.207.13.1-.022.136.032.163.1.135-.014.267.071.406-.075.5.059,2.9.45,3.308.508.14.122.154.363.383.4l.35-.273.189.009.292.4c.134-.014.27.08.4-.076.1-.022.137.036.169.108-.1.151.054.254.012.4l-.231.183c.031.142.163.1.265.115l.232-.183c.1-.179-.093-.317.006-.5a1.912,1.912,0,0,1,.87-.052c.121.071.051.194.036.3-.2.124-.127.327-.191.489-.136-.021-.263.15-.4.074-.147.054-.127.183-.155.29.033.072.073.132.172.112.18-.207.451-.2.651-.356-.007-.1.058-.149.134-.194l.38.025c.123.072.053.2.04.307-.147.055-.124.186-.151.294-.068.154-.257.025-.325.179.124.074.053.2.039.307-.312.206-.588-.006-.887.031A11.833,11.833,0,0,0,39.7,2.891c-.073.148-.26.024-.334.171-.381-.263-.9-.095-1.33-.194-.08.041-.148.088-.145.18l.146.2a11.907,11.907,0,0,1,2.532.592c.2-.02.395.129.6-.049.718.285,1.509.372,2.254.6.126.077.056.2.044.313-.077.062-.153.124-.231.184.127.078.057.2.044.313-.17.023-.338.123-.509.053-.162.024-.091.257-.253.281-.106-.018-.241.018-.277-.13-.3.254-.623-.146-.928.107.008.159.249.07.257.229l1.089.117c.01.162.25.07.261.233.091.039.156-.014.217-.079.159.053.375-.049.478.155.2-.017.407.144.612-.037l-.164-.227c.082-.183,0-.349-.014-.522-.1-.068-.089-.253-.26-.233a1.452,1.452,0,0,1,.05-.619c.546-.1.884.336,1.383.339-.016.1-.031.207-.046.311.036.078.081.142.18.123.171-.074.216-.51.84-.342.055.077.323.4-.057.42l-.2-.02c-.188.157-.376.315-.566.472.538.007.437.551.023.532.151.122.039.284.039.428-.092-.039-.155.014-.215.081-.141-.191-.4-.134-.566-.276-.012-.1.054-.153.131-.2l.3.033c.064-.159.264-.017.328-.176-.2-.135.074-.407-.121-.541-.169.019-.344-.126-.507.052-.025.112,0,.248-.147.3-.108,0-.226-.068-.313.072-.025.111,0,.247-.149.3.069.3.371.428.5.688.14-.005.29.105.416-.057l.085.116L45.3,7.1a.691.691,0,0,0,.446.273c.033-.036.295-.036.321-.075,0-.042.008-.084.011-.126.063.017.116-.088.181-.036.427.061.244.616.17.6-.031.064-.111.066-.1.176A7.171,7.171,0,0,1,45.005,7.7c-.1-.139-.293-.182-.355-.361-.112.114-.3.064-.343.226-.588-.137-.361-.168-.359-.31-.208-.251-.53-.112-.786-.2l-.356.268c-.417-.007-.763-.27-1.189-.248-.13-.081-.055-.2-.041-.311-.053-.074-.528.115-.763.213a6.219,6.219,0,0,1-1.264-.351c-.111-.007-.228-.069-.323.061-.288-.174-.7-.086-.959-.312A58.087,58.087,0,0,0,25.8,5.022c-1.27.032-2.525.228-3.8.316l-.277.115a2.2,2.2,0,0,0-.684.059,1.647,1.647,0,0,1-.675-.166c-.063-.118-.24-.149-.254-.328C19.988,3.376,22.675.572,26.97.207M39.563,4.418c-.271.1-.2.321-.269.489l.225.277a1.483,1.483,0,0,0,.639-.2l.227.279.288.026.348-.229c.1-.209-.149-.264-.2-.407a1.72,1.72,0,0,1-.829-.2l-.43-.036m1.8.052c.009.2.31.083.319.283-.019.136-.111.29.048.386.114.045.2-.02.273-.1-.01-.126.075-.187.173-.239.113.046.194-.02.271-.1A.86.86,0,0,0,42,4.4c-.214.045-.426-.16-.641.069" transform="translate(-11.394 0)" fill="#df1f1b"/>
        <path id="패스_81127" data-name="패스 81127" d="M35.206,32.924A5.827,5.827,0,0,0,33.85,32.4l-.134-.184c-.117-.039-.279-.048-.287-.155a6.457,6.457,0,0,0-1.475-.346c-.5-.265-1.18-.35-1.66-.632-.32.058-.536-.114-.808-.163a.175.175,0,0,0-.171-.126c-.115.084-.3-.058-.417.026-.164-.213-.559-.2-.82-.321a15.048,15.048,0,0,1-2.558-.47c-.028-.138-.245-.136-.381-.195-.516.036-.871-.293-1.379-.273-8.452-1.875-6.8-.026-6.656.054l.423.137c.066.118-.014.251.112.362.418.169.722.417,1.124.6a1.46,1.46,0,0,0,.6.427c.066.117.266.193.278.327l.215.065c.052.316.353.582.518.875l-.1.129c.4.209.275.523.468.774a1.335,1.335,0,0,0,.5.224c.07.115.274.188.289.319l.22.063a1.038,1.038,0,0,1,.191.447c.2.029.142.153.232.222l.333.093.183.285a6.961,6.961,0,0,0,1.386.3,1.727,1.727,0,0,1,.545-.006c-.021.147.129.259.252.377a4.858,4.858,0,0,1,1.187.394l.322-.067a1.438,1.438,0,0,0,.66.023c.119.036.286.044.29.153.931.225,1.951.093,2.89.3.417-.019.833-.049,1.255-.048l.479-.1.342.087a3.962,3.962,0,0,1,.866-.072l.636-.13c.01-.134.328-.145.338-.278a3.191,3.191,0,0,1,.589-.066c.034-.114.248-.077.36-.125a3.7,3.7,0,0,0,1.017-.1c.161-.124.085-.332.418-.395.153-.095-.051-.239.1-.333.2.022.161-.144.356-.122l.129-.18c.2-.08-.263-1.036-.776-1.354-.233.071-.4-.062-.6-.092-.065-.159-.355-.132-.515-.213" transform="translate(-9.562 -16.273)" fill="#fca500"/>
        <path id="패스_81128" data-name="패스 81128" d="M80.578,8.587c.237.073.308.367.524.472.362-.221.709.021,1.064-.019.039.08.085.146.18.125.154-.03.068-.278.222-.309a.193.193,0,0,1-.075-.224,1.071,1.071,0,0,1-.738-.276,1.135,1.135,0,0,1-.688.162,1.118,1.118,0,0,0-.545-.256.2.2,0,0,0-.122.2l.178.121" transform="translate(-45.543 -4.68)" fill="#df1f1b"/>
      </g>
    </g>
  </g>
</svg>
