<svg xmlns="http://www.w3.org/2000/svg" width="64" height="64" viewBox="0 0 64 64">
  <g id="ci_tp" transform="translate(-103.5 17)">
    <rect id="area" width="64" height="64" transform="translate(103.5 -17)" fill="none"/>
    <g id="ci" transform="translate(111.501 -9)">
      <path id="패스_32761" data-name="패스 32761" d="M.123,11.041A32.659,32.659,0,0,0,6.472,6.19,32.706,32.706,0,0,0,11.523,0V8.557c-3.78.919-7.59,1.678-11.4,2.484" transform="translate(-0.044)" fill="#77d0f7"/>
      <path id="패스_32762" data-name="패스 32762" d="M11.523,15.749V13.265c-3.779.919-7.59,1.678-11.4,2.484Z" transform="translate(-0.044 -4.708)" fill="#0099e5"/>
      <path id="패스_32763" data-name="패스 32763" d="M20.29,9.633c-.829.226-1.66.43-2.495.636v2.484h8.887c1.349-.006,4.29-.049,8.216-.262V4.825A152.533,152.533,0,0,1,20.29,9.633" transform="translate(-6.316 -1.712)" fill="#77d0f7"/>
      <path id="패스_32764" data-name="패스 32764" d="M11.523,44.981V26.851h-3.9c-3,0-3.363,2.925-3.541,3.543H3.508V25.549h8.015V17.116H.123V47.753H8.994c.517-.115,2.529,0,2.529-2.772" transform="translate(-0.044 -6.075)" fill="#002c7c"/>
      <path id="패스_32765" data-name="패스 32765" d="M34.9,44.852V28.378a2.487,2.487,0,0,0-.219-1.073,1.766,1.766,0,0,0-.97-.811,6.847,6.847,0,0,0-1.24-.357s-.689-.121-.87-.155V25.4h3.3V16.71c-3.927.213-6.867.255-8.216.262H17.8V25.4H29.7V30.25H29.13c-.174-.619-.531-3.543-3.483-3.543H22.035V44.837c0,2.772,1.98,2.656,2.488,2.772h7.93c.619-.1,2.446-.115,2.446-2.756" transform="translate(-6.316 -5.931)" fill="#005baa"/>
      <path id="패스_32766" data-name="패스 32766" d="M50.8,35.417a4.306,4.306,0,0,0,2.942-1.224,5.591,5.591,0,0,0,1.1-3.761,5.591,5.591,0,0,0-1.1-3.761C53,25.828,51.7,25.4,49.869,25.4h-1.25V43.794c0,2.64,1.826,2.658,2.446,2.756H63.688V13.727c-7.256,1.105-14.154,1.652-19.38,1.924v8.694h7a10.682,10.682,0,0,1,6.333,1.661,5.06,5.06,0,0,1,2.016,4.425,5.063,5.063,0,0,1-2.016,4.426,10.692,10.692,0,0,1-6.333,1.661H49.465s0-1.028,1.334-1.1" transform="translate(-15.726 -4.872)" fill="#008ad3"/>
      <path id="패스_32776" data-name="패스 32776" d="M39.975,70.447l-.128-.726a2.747,2.747,0,0,1-.059-.407.342.342,0,0,1,.066-.23.228.228,0,0,1,.172-.071.257.257,0,0,1,.185.074.249.249,0,0,1,.074.19,3.6,3.6,0,0,1-.066.446l-.134.724Z" transform="translate(-14.122 -24.494)" fill="#007ac7"/>
      <path id="패스_32777" data-name="패스 32777" d="M2.5,69.131l.032.777H2.452a1.086,1.086,0,0,0-.066-.294.472.472,0,0,0-.186-.207.563.563,0,0,0-.3-.068H1.477V71.88a.763.763,0,0,0,.059.385.331.331,0,0,0,.266.1h.107v.09H.616v-.09h.11A.3.3,0,0,0,1,72.242a.81.81,0,0,0,.05-.362V69.339H.684a.985.985,0,0,0-.3.034.44.44,0,0,0-.2.177.781.781,0,0,0-.1.358H0l.033-.777Z" transform="translate(0 -24.536)" fill="#007ac7"/>
      <path id="패스_32778" data-name="패스 32778" d="M5.663,69.311v1.316h.666a.511.511,0,0,0,.347-.085.563.563,0,0,0,.129-.39h.083V71.3H6.8a1.309,1.309,0,0,0-.063-.313.279.279,0,0,0-.13-.134.638.638,0,0,0-.283-.05H5.663v1.1a1.1,1.1,0,0,0,.018.272.146.146,0,0,0,.061.076.347.347,0,0,0,.17.029h.513a1.371,1.371,0,0,0,.372-.039.556.556,0,0,0,.222-.155,1.927,1.927,0,0,0,.283-.459H7.4l-.263.833H4.8v-.09h.108a.388.388,0,0,0,.2-.055.209.209,0,0,0,.1-.118,1.519,1.519,0,0,0,.025-.323V69.71a.752.752,0,0,0-.059-.388.32.32,0,0,0-.266-.1H4.8v-.09H7.139l.03.732H7.084a1.249,1.249,0,0,0-.106-.364.372.372,0,0,0-.17-.151.9.9,0,0,0-.314-.037Z" transform="translate(-1.705 -24.536)" fill="#007ac7"/>
      <path id="패스_32779" data-name="패스 32779" d="M12.257,72.217a1.239,1.239,0,0,1-.23-.435l-1.05-2.769H10.9L9.824,71.752a1.526,1.526,0,0,1-.255.481.47.47,0,0,1-.243.1v.09h.952v-.09a.526.526,0,0,1-.286-.074.176.176,0,0,1-.065-.135.868.868,0,0,1,.077-.29l.2-.521h1.175l.18.477a1.075,1.075,0,0,1,.089.339.176.176,0,0,1-.064.136.392.392,0,0,1-.244.067v.09h1.2v-.09a.464.464,0,0,1-.29-.111m-1.949-1.086.532-1.344.506,1.344Z" transform="translate(-3.31 -24.494)" fill="#007ac7"/>
      <path id="패스_32780" data-name="패스 32780" d="M17.177,69.013l.07,1.131h-.07a1.475,1.475,0,0,0-.393-.733.9.9,0,0,0-.62-.224.929.929,0,0,0-.542.168,1.12,1.12,0,0,0-.386.54,2.692,2.692,0,0,0-.137.915,2.113,2.113,0,0,0,.132.784,1.059,1.059,0,0,0,.4.509,1.077,1.077,0,0,0,.6.177.955.955,0,0,0,.521-.139,1.829,1.829,0,0,0,.5-.55l.069.048a1.731,1.731,0,0,1-.53.648,1.267,1.267,0,0,1-.722.206A1.323,1.323,0,0,1,14.9,71.88a1.858,1.858,0,0,1-.31-1.075,2.037,2.037,0,0,1,.2-.916,1.549,1.549,0,0,1,.557-.648,1.421,1.421,0,0,1,.777-.229,1.344,1.344,0,0,1,.646.177.369.369,0,0,0,.134.052.145.145,0,0,0,.1-.045.377.377,0,0,0,.083-.184Z" transform="translate(-5.179 -24.494)" fill="#007ac7"/>
      <path id="패스_32781" data-name="패스 32781" d="M20.408,70.674H21.82v-.958a1.107,1.107,0,0,0-.03-.331.21.21,0,0,0-.092-.106.4.4,0,0,0-.2-.058h-.106v-.09h1.292v.09h-.109a.4.4,0,0,0-.2.057.2.2,0,0,0-.1.117,1.333,1.333,0,0,0-.026.321v2.158a1.235,1.235,0,0,0,.028.333.218.218,0,0,0,.092.1.387.387,0,0,0,.2.059h.109v.09H21.388v-.09h.106a.312.312,0,0,0,.27-.121.763.763,0,0,0,.055-.375V70.855H20.408v1.019a1.244,1.244,0,0,0,.028.333.223.223,0,0,0,.093.1.389.389,0,0,0,.2.059h.109v.09H19.548v-.09h.108a.313.313,0,0,0,.272-.121.808.808,0,0,0,.054-.375V69.716a1.131,1.131,0,0,0-.032-.331.2.2,0,0,0-.091-.106.393.393,0,0,0-.2-.058h-.108v-.09h1.293v.09h-.109a.405.405,0,0,0-.2.057.208.208,0,0,0-.094.117,1.2,1.2,0,0,0-.026.321Z" transform="translate(-6.938 -24.536)" fill="#007ac7"/>
      <path id="패스_32782" data-name="패스 32782" d="M26.3,69.311v1.316h.666a.508.508,0,0,0,.346-.085.56.56,0,0,0,.13-.39h.083V71.3h-.083a1.769,1.769,0,0,0-.059-.313.292.292,0,0,0-.136-.134.624.624,0,0,0-.281-.05H26.3v1.1a1.191,1.191,0,0,0,.017.272.17.17,0,0,0,.062.076.357.357,0,0,0,.173.029h.512a1.35,1.35,0,0,0,.372-.039.566.566,0,0,0,.223-.155,1.992,1.992,0,0,0,.283-.459h.094l-.263.833H25.441v-.09h.106a.4.4,0,0,0,.2-.055.212.212,0,0,0,.1-.118,1.232,1.232,0,0,0,.026-.323V69.71a.764.764,0,0,0-.057-.388.325.325,0,0,0-.269-.1h-.106v-.09h2.335l.03.732h-.087a1.176,1.176,0,0,0-.106-.364.362.362,0,0,0-.168-.151.918.918,0,0,0-.315-.037Z" transform="translate(-9.029 -24.536)" fill="#007ac7"/>
      <path id="패스_32783" data-name="패스 32783" d="M31.153,69.372a1.506,1.506,0,0,1,.349-.056.6.6,0,0,1,.466.2.723.723,0,0,1,.177.505.694.694,0,0,1-.219.528.909.909,0,0,1-.649.208c-.014,0-.029,0-.05,0s-.045,0-.073,0Zm2.148,3a.863.863,0,0,1-.4-.137,1.666,1.666,0,0,1-.37-.439l-.628-.956a.989.989,0,0,0,.566-.32.81.81,0,0,0,.182-.53.767.767,0,0,0-.159-.493.811.811,0,0,0-.388-.287,2.427,2.427,0,0,0-.71-.077h-1.1v.09h.116a.315.315,0,0,1,.255.107.74.74,0,0,1,.061.388v2.158a.842.842,0,0,1-.045.359.294.294,0,0,1-.272.137h-.116v.09h1.295v-.09h-.117a.3.3,0,0,1-.254-.108.721.721,0,0,1-.062-.388V70.9c.023,0,.045,0,.066,0h.061c.048,0,.107,0,.184,0l1.026,1.557H33.3Z" transform="translate(-10.751 -24.536)" fill="#007ac7"/>
      <path id="패스_32784" data-name="패스 32784" d="M37.462,69.013v1.152h-.083a1.531,1.531,0,0,0-.144-.53.793.793,0,0,0-.3-.312.753.753,0,0,0-.4-.115.515.515,0,0,0-.384.153.492.492,0,0,0-.152.354.444.444,0,0,0,.095.278,2.514,2.514,0,0,0,.661.491,4.758,4.758,0,0,1,.581.384.932.932,0,0,1,.323.7.928.928,0,0,1-.955.926,1.282,1.282,0,0,1-.25-.023,2.9,2.9,0,0,1-.287-.094A1.31,1.31,0,0,0,35.9,72.3a.106.106,0,0,0-.09.039.35.35,0,0,0-.05.155h-.081V71.357h.081a1.808,1.808,0,0,0,.157.533.815.815,0,0,0,.3.294.877.877,0,0,0,.445.116.587.587,0,0,0,.441-.163.516.516,0,0,0,.162-.383.582.582,0,0,0-.059-.25.766.766,0,0,0-.191-.234c-.059-.048-.217-.152-.479-.313a4.369,4.369,0,0,1-.552-.378.956.956,0,0,1-.254-.313.874.874,0,0,1,.805-1.253,1.182,1.182,0,0,1,.511.132.515.515,0,0,0,.177.063.137.137,0,0,0,.1-.039.327.327,0,0,0,.059-.157Z" transform="translate(-12.651 -24.494)" fill="#007ac7"/>
      <path id="패스_32785" data-name="패스 32785" d="M44.178,69.377a1.263,1.263,0,0,1,.29-.046.619.619,0,0,1,.332.093.59.59,0,0,1,.226.279,1,1,0,0,1,.079.4.763.763,0,0,1-.166.513.505.505,0,0,1-.4.195,1.223,1.223,0,0,1-.157-.01c-.059-.007-.13-.021-.206-.036Zm.271,1.578a1.718,1.718,0,0,0,.234.016.859.859,0,0,0,.932-.917.865.865,0,0,0-.159-.52.9.9,0,0,0-.395-.31,1.782,1.782,0,0,0-.637-.094H43.316v.09h.115a.31.31,0,0,1,.257.107.736.736,0,0,1,.062.388v2.158a.894.894,0,0,1-.044.359.3.3,0,0,1-.275.137h-.115v.09H44.61v-.09H44.5a.3.3,0,0,1-.255-.108.719.719,0,0,1-.063-.388V70.9c.095.023.185.04.271.052" transform="translate(-15.374 -24.536)" fill="#007ac7"/>
      <path id="패스_32786" data-name="패스 32786" d="M48.5,69.311v1.316h.664a.514.514,0,0,0,.348-.085.554.554,0,0,0,.13-.39h.083V71.3h-.083a1.5,1.5,0,0,0-.063-.313.282.282,0,0,0-.133-.134.618.618,0,0,0-.283-.05H48.5v1.1a1.053,1.053,0,0,0,.019.272.148.148,0,0,0,.062.076.337.337,0,0,0,.17.029h.511a1.361,1.361,0,0,0,.373-.039.565.565,0,0,0,.221-.155,1.971,1.971,0,0,0,.283-.459h.095l-.261.833H47.64v-.09h.108a.4.4,0,0,0,.205-.055.211.211,0,0,0,.095-.118,1.187,1.187,0,0,0,.028-.323V69.71a.749.749,0,0,0-.059-.388.324.324,0,0,0-.268-.1H47.64v-.09h2.338l.031.732H49.92a1.211,1.211,0,0,0-.1-.364.366.366,0,0,0-.17-.151.907.907,0,0,0-.314-.037Z" transform="translate(-16.908 -24.536)" fill="#007ac7"/>
      <path id="패스_32787" data-name="패스 32787" d="M52.125,69.131h.821L54.8,71.624V69.71a.7.7,0,0,0-.063-.383.316.316,0,0,0-.266-.105h-.1v-.09h1.059v.09h-.108a.3.3,0,0,0-.274.13.806.806,0,0,0-.05.359v2.8h-.079l-2-2.686V71.88a.758.758,0,0,0,.059.385.333.333,0,0,0,.266.1h.108v.09H52.288v-.09h.1a.3.3,0,0,0,.279-.127.807.807,0,0,0,.049-.362V69.568a1.383,1.383,0,0,0-.2-.224.729.729,0,0,0-.2-.1.666.666,0,0,0-.2-.022Z" transform="translate(-18.5 -24.536)" fill="#007ac7"/>
      <path id="패스_32788" data-name="패스 32788" d="M59.838,69.013v1.152h-.081a1.561,1.561,0,0,0-.144-.53.777.777,0,0,0-.3-.312.741.741,0,0,0-.4-.115.514.514,0,0,0-.383.153.493.493,0,0,0-.153.354.46.46,0,0,0,.095.278,2.482,2.482,0,0,0,.662.491,5.04,5.04,0,0,1,.581.384.97.97,0,0,1,.237.317.891.891,0,0,1,.083.381.928.928,0,0,1-.957.926,1.251,1.251,0,0,1-.246-.023,2.673,2.673,0,0,1-.288-.094,1.284,1.284,0,0,0-.276-.078.11.11,0,0,0-.088.039.3.3,0,0,0-.045.155h-.083V71.357h.083a1.673,1.673,0,0,0,.154.533.786.786,0,0,0,.3.294.884.884,0,0,0,.445.116.588.588,0,0,0,.442-.163.518.518,0,0,0,.162-.383.549.549,0,0,0-.061-.25.719.719,0,0,0-.19-.234c-.057-.048-.217-.152-.475-.313a4.048,4.048,0,0,1-.555-.378.962.962,0,0,1-.253-.313.836.836,0,0,1-.086-.377.846.846,0,0,1,.254-.616.835.835,0,0,1,.636-.259,1.19,1.19,0,0,1,.513.132.5.5,0,0,0,.175.063.138.138,0,0,0,.1-.039.382.382,0,0,0,.059-.157Z" transform="translate(-20.593 -24.494)" fill="#007ac7"/>
      <path id="패스_32789" data-name="패스 32789" d="M63.3,72.369v.09H62v-.09h.107a.311.311,0,0,0,.272-.121.826.826,0,0,0,.053-.375V69.715a1.274,1.274,0,0,0-.028-.331.215.215,0,0,0-.093-.106.4.4,0,0,0-.2-.058H62v-.09H63.3v.09h-.109a.31.31,0,0,0-.269.12.8.8,0,0,0-.053.375v2.158a1.334,1.334,0,0,0,.026.333.21.21,0,0,0,.094.1.376.376,0,0,0,.2.059Z" transform="translate(-22.006 -24.536)" fill="#007ac7"/>
      <path id="패스_32790" data-name="패스 32790" d="M66.971,69.521a2.192,2.192,0,0,1,.3,1.277A1.929,1.929,0,0,1,67,71.957a.845.845,0,0,1-.7.362.753.753,0,0,1-.644-.334,2.113,2.113,0,0,1-.317-1.255,2.034,2.034,0,0,1,.305-1.211.769.769,0,0,1,.652-.332.8.8,0,0,1,.679.334m-1.653-.073a1.771,1.771,0,0,0-.492,1.293A1.856,1.856,0,0,0,65.251,72a1.359,1.359,0,0,0,2.1-.012,1.845,1.845,0,0,0,.436-1.257,1.794,1.794,0,0,0-.434-1.229,1.308,1.308,0,0,0-1.019-.493,1.374,1.374,0,0,0-1.015.435" transform="translate(-23.008 -24.494)" fill="#007ac7"/>
      <path id="패스_32791" data-name="패스 32791" d="M69.957,69.131h.823l1.851,2.493V69.71a.727.727,0,0,0-.063-.383.319.319,0,0,0-.264-.105H72.2v-.09H73.26v.09h-.11a.3.3,0,0,0-.274.13.757.757,0,0,0-.05.359v2.8h-.081l-2-2.686V71.88a.742.742,0,0,0,.061.385.323.323,0,0,0,.264.1h.109v.09H70.119v-.09h.106a.3.3,0,0,0,.276-.127.8.8,0,0,0,.053-.362V69.568a1.559,1.559,0,0,0-.2-.224.681.681,0,0,0-.2-.1.634.634,0,0,0-.2-.022Z" transform="translate(-24.829 -24.536)" fill="#007ac7"/>
    </g>
  </g>
</svg>
