<svg xmlns="http://www.w3.org/2000/svg" width="297" height="96" viewBox="0 0 297 96">
    <path style="fill:none" d="M0 0h296v96H0z"/>
    <path transform="translate(1.5 56.5)" style="stroke-width:2px;stroke:#dbdbdb;fill:none" d="M0 0h294"/>
    <text transform="translate(19 82)" style="font-size:14px;fill:#333;font-family:NanumBarunGothic"><tspan x="-18.732" y="0">지급일</tspan></text>
    <text transform="translate(125 82)" style="font-size:14px;fill:#333;font-family:NanumBarunGothic"><tspan x="-18.732" y="0">접수일</tspan></text>
    <text data-name="분할납부가 끝나는 달" transform="translate(237 82)" style="font-size:14px;fill:#333;font-family:NanumBarunGothic"><tspan x="-59.332" y="0">분할납부가 끝나는 달</tspan></text>
    <g data-name="그룹 54117">
        <g transform="translate(-705 -350.667)">
            <path data-name="선 1593" transform="rotate(-90 569.584 -162.417)" style="stroke:#3691f9;stroke-width:2px;fill:none" d="M0 0v112"/>
            <rect width="112" height="40" rx="8" transform="translate(730 361.667)" style="fill:#d6e9fe"/>
            <text data-name="반납이자" transform="translate(790 387.667)" style="font-family:EliceDigitalBaeum-Bd,Elice DigitalBaeum;fill:#366cc3;font-size:14px"><tspan x="-25.48" y="0">반납이자</tspan></text>
            <g data-name="line">
                <g data-name="타원 1358" transform="rotate(90 222.666 626.334)" style="stroke:#fff;stroke-width:3px;fill:#3691f9">
                    <circle cx="3.5" cy="3.5" r="3.5" style="stroke:none"/>
                    <circle cx="3.5" cy="3.5" r="5" style="fill:none"/>
                </g>
                <path d="M0 0h42" transform="rotate(90 240.916 604.584)" style="stroke-dasharray:2 2;stroke:#3691f9;fill:none"/>
            </g>
            <g data-name="line">
                <path data-name="dot" d="M0 0h43" transform="rotate(90 181.416 545.084)" style="stroke-dasharray:2 2;stroke:#3691f9;fill:none"/>
                <g data-name="타원 1358" transform="rotate(90 163.166 566.834)" style="stroke:#fff;stroke-width:3px;fill:#3691f9">
                    <circle cx="3.5" cy="3.5" r="3.5" style="stroke:none"/>
                    <circle cx="3.5" cy="3.5" r="5" style="fill:none"/>
                </g>
            </g>
        </g>
        <g transform="translate(-487 -352)">
            <path data-name="선 1596" transform="rotate(-90 528.5 -120)" style="stroke:#16a5a3;stroke-width:2px;fill:none" d="M0 0v112"/>
            <rect data-name="img" width="112" height="40" rx="8" transform="translate(648 363)" style="fill:#d0eded"/>
            <text data-name="분할이자" transform="translate(704 390)" style="fill:#16a5a3;font-family:EliceDigitalBaeum-Bd,Elice DigitalBaeum;font-size:14px"><tspan x="-25.48" y="0">분할이자</tspan></text>
            <g data-name="line">
                <g data-name="타원 1358" transform="rotate(90 121.5 526.5)" style="fill:#16a5a3;stroke:#fff;stroke-width:3px">
                    <circle cx="3.5" cy="3.5" r="3.5" style="stroke:none"/>
                    <circle cx="3.5" cy="3.5" r="5" style="fill:none"/>
                </g>
                <path data-name="dot" d="M0 0h42" transform="rotate(90 139.75 504.75)" style="stroke:#16a5a3;stroke-dasharray:2 2;fill:none"/>
            </g>
            <g data-name="line">
                <g data-name="타원 1358" transform="rotate(90 181 586)" style="fill:#16a5a3;stroke:#fff;stroke-width:3px">
                    <circle cx="3.5" cy="3.5" r="3.5" style="stroke:none"/>
                    <circle cx="3.5" cy="3.5" r="5" style="fill:none"/>
                </g>
                <path data-name="dot" d="M0 0h42" transform="rotate(90 199.25 564.25)" style="stroke:#16a5a3;stroke-dasharray:2 2;fill:none"/>
            </g>
        </g>
    </g>
</svg>
