<svg xmlns="http://www.w3.org/2000/svg" xmlns:xlink="http://www.w3.org/1999/xlink" width="208" height="40" viewBox="0 0 208 40">
    <defs>
        <radialGradient id="sr8qgwxpia" cx=".498" cy=".5" r=".501" gradientTransform="matrix(.98 0 0 1 -.616 0)" gradientUnits="objectBoundingBox">
            <stop offset="0" stop-color="#7dc4e7"/>
            <stop offset="1" stop-color="#0d63a9"/>
        </radialGradient>
        <radialGradient id="kbaxan30md" cx=".866" cy="-.341" r=".507" gradientTransform="matrix(.951 -.057 .054 1.008 -8.585 -5.442)" xlink:href="#sr8qgwxpia"/>
        <radialGradient id="mkftbp3uyb" cx=".5" cy=".303" r=".611" gradientTransform="matrix(.979 0 0 1 -.767 0)" gradientUnits="objectBoundingBox">
            <stop offset="0" stop-color="#f4d924"/>
            <stop offset="1" stop-color="#e99214"/>
        </radialGradient>
        <radialGradient id="uifgkscxle" cx="1.289" cy="1.967" r="1.728" gradientTransform="matrix(.957 0 0 1 -4.438 0)" xlink:href="#mkftbp3uyb"/>
        <linearGradient id="kvwg2i7xmc" x1="-143.842" y1="125.362" x2="-142.842" y2="125.362" gradientUnits="objectBoundingBox">
            <stop offset="0" stop-color="#dcda24"/>
            <stop offset="1" stop-color="#77b42f"/>
        </linearGradient>
    </defs>
    <path style="fill:#fff" d="M0 0h208v40H0z"/>
    <path data-name="패스 19061" d="M200.35 448.993s7.184-8.679 18.42-2.052l-1.5 2.486s-7.708-5.886-15.179 1.949z" transform="translate(-200.35 -415.898)" style="fill:#eca617"/>
    <path data-name="패스 19062" d="M245.25 447.668s-7.184 8.673-18.42 2.045l1.489-2.486s7.708 5.886 15.179-1.917l1.751 2.384z" transform="translate(-209.906 -416.209)" style="fill:#1d2a73"/>
    <path data-name="패스 19063" d="M231.251 428.085a1.885 1.885 0 1 1-1.885-1.885 1.885 1.885 0 0 1 1.885 1.885z" transform="translate(-210.14 -409.313)" style="fill:url(#kvwg2i7xmc);fill-rule:evenodd"/>
    <path data-name="패스 19064" d="M235.824 418.519c-2.454-2.838-8.143-1.917-12.706 2.032l-.3.268c3.592-2.556 7.67-2.953 9.587-.773 2.084 2.4.677 7.03-3.132 10.341-3.6 3.119-8.066 3.95-10.3 2.007a4.584 4.584 0 0 0 .332.454c2.461 2.831 8.149 1.917 12.712-2.039s6.276-9.459 3.835-12.29z" transform="translate(-207.069 -405.946)" style="fill:url(#sr8qgwxpia);fill-rule:evenodd"/>
    <path data-name="패스 19065" d="M237.537 407.189c-1.534 1.329-2.026 3.285-1.087 4.365s2.934.869 4.474-.46 2.026-3.285 1.087-4.365-2.934-.876-4.474.46z" transform="translate(-213.205 -402.036)" style="fill:url(#kbaxan30md);fill-rule:evenodd"/>
    <path data-name="패스 19066" d="M212.141 422.36c1.917-2.224 6.391-1.508 10 1.6l.23.2c-2.825-2.007-6.046-2.32-7.535-.607-1.636 1.917-.53 5.528 2.467 8.136 2.831 2.448 6.34 3.1 8.1 1.579a5.19 5.19 0 0 1-.268.352c-1.917 2.224-6.391 1.508-9.99-1.6s-4.934-7.43-3.004-9.66z" transform="translate(-204.286 -407.46)" style="fill:url(#mkftbp3uyb);fill-rule:evenodd"/>
    <path data-name="패스 19067" d="M215.884 413.481c1.208 1.042 1.591 2.556.856 3.426s-2.307.69-3.515-.358-1.591-2.556-.856-3.432 2.307-.684 3.515.364z" transform="translate(-204.553 -404.391)" style="fill:url(#uifgkscxle);fill-rule:evenodd"/>
    <g>
        <path data-name="패스 19068" d="M271.762 424.236h8.975v2.156H262.89v-2.156h6.468V421.3h2.409zm5.654 1.121v-5.821h-13.9v-2.156h16.332v7.961zm-1.331.787a4.851 4.851 0 0 1 2.183 4.032 5.277 5.277 0 0 1-2.059 4.247 6.759 6.759 0 0 1-4.468 1.577 6.926 6.926 0 0 1-4.549-1.579 5.3 5.3 0 0 1-2.037-4.264 4.851 4.851 0 0 1 2.156-4.032 7.341 7.341 0 0 1 4.447-1.455 7.136 7.136 0 0 1 4.327 1.474zM269 427.54a3.476 3.476 0 0 0-1.18 2.636 3.39 3.39 0 0 0 1.18 2.6 3.886 3.886 0 0 0 5.39 0 3.358 3.358 0 0 0 1.2-2.6 3.444 3.444 0 0 0-1.2-2.636 3.946 3.946 0 0 0-5.39 0z" transform="translate(-221.035 -406.63)" style="fill:#231815"/>
        <path data-name="패스 19069" d="M314.338 419.534h-4.172a4.156 4.156 0 0 0 .906 2.7 4.969 4.969 0 0 0 3.331 1.434v2.264a9.542 9.542 0 0 1-3.116-.685 5.52 5.52 0 0 1-2.431-1.957 6.1 6.1 0 0 1-2.7 1.957 8.965 8.965 0 0 1-2.921.685v-2.264a4.936 4.936 0 0 0 3.331-1.434 4.4 4.4 0 0 0 .884-2.7h-4.086v-2.124h10.942zm5.929 15.459h-2.512v-5.174h-13.54v-2.156h16.073zm-2.512-14.5v-3.083h2.512v8.727h-2.512v-3.466H314.9v-2.183z" transform="translate(-239.636 -406.644)" style="fill:#231815"/>
        <path data-name="패스 19070" d="M350.548 417.336a4.592 4.592 0 0 1 1.7 3.676 4.538 4.538 0 0 1-1.7 3.638 5.929 5.929 0 0 1-7.546 0 4.5 4.5 0 0 1-1.7-3.638 4.592 4.592 0 0 1 1.7-3.676 5.7 5.7 0 0 1 3.773-1.347 5.616 5.616 0 0 1 3.773 1.347zM343 428.117h2.447v3.972H358.7v2.156h-14.259a1.4 1.4 0 0 1-1.078-.356 1.66 1.66 0 0 1-.372-1.207zm1.7-9.1a2.528 2.528 0 0 0-.938 1.989 2.5 2.5 0 0 0 .938 1.957 3.1 3.1 0 0 0 2.1.787 2.921 2.921 0 0 0 1.994-.787 2.5 2.5 0 0 0 .938-1.957 2.566 2.566 0 0 0-.938-1.989 2.927 2.927 0 0 0-1.994-.792 3.11 3.11 0 0 0-2.091.8zm11.406-.313v-1.957h2.431v11.858h-2.431v-4.075h-3.159v-2.118h3.159V420.8h-3.159v-2.107z" transform="translate(-257.18 -405.989)" style="fill:#231815"/>
        <path data-name="패스 19071" d="M398.466 423.253v2.156H381.32v-2.156zm-3.191 1.45v-5.169h-13.357v-2.124h15.691v7.29zm-13.357 2.641h15.691v5.983a1.671 1.671 0 0 1-.383 1.229 1.294 1.294 0 0 1-1.013.35H383.3a1.342 1.342 0 0 1-1.04-.35 1.741 1.741 0 0 1-.361-1.229zm13.395 2.059h-11.1v3.417h11.1z" transform="translate(-275.63 -406.644)" style="fill:#231815"/>
        <path data-name="패스 19072" d="M428.718 417.337a4.592 4.592 0 0 1 1.7 3.676 4.538 4.538 0 0 1-1.7 3.638 5.929 5.929 0 0 1-7.546 0 4.5 4.5 0 0 1-1.7-3.638 4.592 4.592 0 0 1 1.7-3.676 5.7 5.7 0 0 1 3.8-1.348 5.617 5.617 0 0 1 3.746 1.348zm-7.546 10.78h2.428v3.973h13.26v2.156h-14.249a1.4 1.4 0 0 1-1.078-.356 1.66 1.66 0 0 1-.372-1.207zm1.7-9.1a2.528 2.528 0 0 0-.938 1.989 2.5 2.5 0 0 0 .938 1.957 3.1 3.1 0 0 0 2.1.787 2.921 2.921 0 0 0 1.994-.787 2.5 2.5 0 0 0 .938-1.957 2.566 2.566 0 0 0-.938-1.989 2.927 2.927 0 0 0-1.994-.792 3.11 3.11 0 0 0-2.091.8zm11.432-.329v-1.957h2.436v11.858h-2.436v-4.075h-3.18V422.4h3.18v-1.617h-3.18v-2.091z" transform="translate(-293.215 -405.989)" style="fill:#231815"/>
        <path data-name="패스 19073" d="M467.836 417.41v1.811q0 6.544-3.056 9.7a8.129 8.129 0 0 1-5.11 2.393v-2.393a5.39 5.39 0 0 0 4.366-2.722 12.852 12.852 0 0 0 1.45-6.63h-5.546v-2.156zm2.1 2.576v-2.576h2.307v17.566h-2.323v-6.926h-3.681v-2.156h3.681v-3.773h-2.415v-2.156zm3.822-2.576h2.35v17.566h-2.35z" transform="translate(-311.748 -406.644)" style="fill:#231815"/>
        <path data-name="패스 19074" d="M503.907 419.536q0 5.029 1.078 7.314a3.11 3.11 0 0 0 2.2 1.935v2.5a4.441 4.441 0 0 1-2.248-.814 6.377 6.377 0 0 1-2.242-3.175 6.748 6.748 0 0 1-2.307 3.137 4.667 4.667 0 0 1-2.242.852v-2.452a3.17 3.17 0 0 0 2.221-1.978q1.078-2.28 1.1-7.314h-3.159v-2.161h8.705v2.156zm2.555 2.765h2.452v-4.9h2.328v17.566h-2.328v-10.424h-2.452zm6.317-4.9h2.35v17.566h-2.35z" transform="translate(-329.487 -406.63)" style="fill:#231815"/>
        <path data-name="패스 19075" d="M546.467 426.649v5.277h6.684v2.156H537.66v-2.156h6.705v-5.277zm5.692-9.239v2.129H540.84v5h11.319v2.129h-12.246a1.18 1.18 0 0 1-.954-.356 1.848 1.848 0 0 1-.307-1.207v-7.7z" transform="translate(-347.7 -406.644)" style="fill:#231815"/>
    </g>
</svg>
