<svg xmlns="http://www.w3.org/2000/svg" width="40" height="40" viewBox="0 0 40 40">
    <path style="fill:none" d="M0 0h40v40H0z"/>
    <g data-name="그룹 54113">
        <path data-name="패스 81118" d="M33.231 61.5c8.942 0 16.191-1.293 16.191-2.887s-7.249-2.886-16.191-2.886-16.191 1.292-16.191 2.886S24.29 61.5 33.231 61.5" transform="translate(-10.423 -30.626)" style="fill:#a5a5a5"/>
        <path data-name="패스 81119" d="M14.252 16.865c-.09-.082-.015-.193-.086-.257-.144-.115-.248-.226-.393-.326-.037-.018-.077-.02-.114-.038-.071-.064-.144-.114-.214-.179a3.481 3.481 0 0 1-.355-.16l-.041.012c-.126-.1-.236-.166-.363-.249-.119 0-.188-.074-.285-.081-.039 0-.035-.032-.053-.049a3.611 3.611 0 0 0-.432-.166c-.02 0-.041.012-.06.01l-.106-.1c-.057-.019-.178 0-.208-.076a.474.474 0 0 1-.247-.078.31.31 0 0 0-.117-.009 1.062 1.062 0 0 0-.209-.06.246.246 0 0 1-.172-.043h-.059c-.037-.017-.094-.037-.131-.054-.02 0-.022.013-.041.012l-.282-.11c-.02 0-.062.024-.082.023a.9.9 0 0 0-.19-.059.306.306 0 0 1-.158 0c-.018-.016-.057-.02-.075-.035s-.08.008-.1.007a1.953 1.953 0 0 0-.289-.051 1.536 1.536 0 0 1-.248-.064c-.02 0-.041.012-.06.01a.106.106 0 0 1-.055-.034l-.041.012a.424.424 0 0 0-.27-.05c-.041.012-.1-.022-.133-.04a.339.339 0 0 0-.119.005c-.16.018-.287-.066-.445-.064-.021.013-.076-.021-.1-.022a1.053 1.053 0 0 0-.371-.029c-.073-.05-.154-.027-.232-.033l-.016-.017c-.16.017-.314-.009-.472-.007a.23.23 0 0 1-.1.007.075.075 0 0 1-.037-.017c-.082.023-.135-.025-.215-.017a.873.873 0 0 1-.275-.007c-.02 0-.037-.018-.057-.019a.317.317 0 0 1-.2.014c-.135-.026-.256 0-.39-.031-.02 0-.062.025-.082.023a2.005 2.005 0 0 0-.845-.021c-.041.012-.1.036-.138 0a1.541 1.541 0 0 1-.484.1 2.021 2.021 0 0 1-.3.021c-.039 0-.082.023-.138 0-.02 0-.037-.018-.057-.019a1.063 1.063 0 0 1-.321.048c-.02 0-.023.028-.044.042l-.059-.005c-.062.025-.1.007-.16.018-.2.014-.4.043-.6.071-.041.012-.076-.021-.115-.024-.1.022-.2.058-.325.078a.628.628 0 0 0-.186.074c-.126.064-.286.081-.357.179-.183.045-.364.075-.548.134l-.018.035c-.02 0-.06.01-.08.008a.753.753 0 0 1-.206.073c-.041.012-.067.068-.108.08-.161.032-.383.073-.382.221 0 .03.05.077.106.1h.059c.039 0 .053.048.092.051l.234.018a.257.257 0 0 0 .179-.016c.041-.011.057.019.1.022a.082.082 0 0 0 .041-.011c.035.032.078.006.115.023a1.971 1.971 0 0 0 .4.12c.057.019.13.069.186.088s.119-.006.156.012c.145.1.317.143.4.267a.44.44 0 0 1 .263.109c.018.016.06-.011.08-.009.059.005.03.076.069.08a.429.429 0 0 1 .2.133c.035.032.115.024.152.041.075.035.151.056.225.091 0 0 0 .029.016.031l.117.009c.114.038.206.089.319.128.018.016.012.06.05.077l.078.006c.073.05.133.04.207.075l.016.031c.055.034.115.024.17.058l.078.006a1.415 1.415 0 0 0 .344.086c.02 0 .021-.013.041-.011.076.021.128.084.186.088.076.021.131.054.208.075.039 0 .083-.038.117.009 0 .014-.005.044.014.046a.318.318 0 0 1 .227.076.681.681 0 0 0 .387.06s.014.045.034.046a2.165 2.165 0 0 0 .307.068c.059 0 .091.066.129.069.02 0 .043-.027.062-.025l.016.03c.114.038.229.062.362.1.02 0 .06-.01.08-.008.076.021.169.072.25.049s.152.041.232.032c.02 0 .062-.024.082-.023a.779.779 0 0 0 .221.121.152.152 0 0 0 .08-.008c.06-.011.114.038.2.015.02 0 .037.017.057.019a.15.15 0 0 1 .079-.008 1.975 1.975 0 0 0 .299.072.165.165 0 0 1 .075.035c0 .015 0 .03.016.031a.54.54 0 0 1 .217 0c.02 0 .021-.013.041-.012a.164.164 0 0 1 .074.035c.037.018.08-.009.119-.006a.983.983 0 0 0 .289.052c.02 0 .037.018.057.02s.021-.013.041-.012l.053.048c.039 0 .082-.023.119-.005a.388.388 0 0 0 .17.058c.039 0 .1-.008.1-.052a.077.077 0 0 1 .037.018c-.027.057.032.062.088.081a.155.155 0 0 0 .08-.008c.1-.022.19.059.273.021.211.046.426.063.639.094.076.021.16-.017.256.005a.588.588 0 0 0 .358-.031l.1.007c.1-.021.216 0 .3-.021a1.832 1.832 0 0 1 .206-.073.073.073 0 0 0 .037.018c0-.015.023-.027.023-.027.1.022.163-.047.243-.055a1.243 1.243 0 0 0 .142-.033c.019 0 .055.034.076.02.041-.012.067-.068.126-.064a1.072 1.072 0 0 0 .428-.114.422.422 0 0 1 .137.011c0-.029.027-.057.064-.039a.276.276 0 0 0 .2-.044c.016.031.057.019.076.021.062-.025.106-.066.169-.091h.039c.041-.012.064-.039.1-.037l.023-.027c.062-.025.119-.006.163-.046a.314.314 0 0 1 .213-.131c.032-.1.156-.151.226-.234-.046-.107.006-.206 0-.31a.562.562 0 0 1-.035-.195c0-.015-.016-.031-.034-.047" transform="translate(2 -.433)" style="fill:#a5a5a5"/>
        <path data-name="패스 81120" d="m75.188 7.589.121.011.141-.118c.08.021.187-.028.231.085 0 .089-.07.19.022.264.263.024 1.011.186.813-.126a6.135 6.135 0 0 0-.764-.2l-.07.06c-.061-.082-.053-.209-.141-.273l.07-.06-.1-.138a1.108 1.108 0 0 1-.636-.177c-.092.034-.076.117-.092.186.117.035.171.152.268.214a.262.262 0 0 0 .139.27" transform="translate(-52.518 4.958)" style="fill:#a5a5a5"/>
        <path data-name="패스 81121" d="M75.936 5.206a2.823 2.823 0 0 1 .457.164c.052-.089.123-.051.188-.051.026-.174-.182-.141-.2-.276.035-.043.073-.078.128-.056.006-.07.047-.151-.031-.2l-.118-.007c-.1.02-.051.166-.148.185l-.178-.012a.106.106 0 0 1-.034-.13l.069-.061-.1-.135c-.083.008-.17-.054-.246.049L75.7 4.8c.06-.014.086.025.108.072-.007.095-.051.138-.14.119-.007.07-.05.148.028.2l.238.017" transform="translate(-53.154 6.636)" style="fill:#a5a5a5"/>
        <path data-name="패스 81122" d="M73.716 4.97c-.03.06-.009.079.049.067.314-.114.16-.447.1-.568-.415-.1-.075.338-.148.5" transform="translate(-51.697 6.753)" style="fill:#a5a5a5"/>
        <path data-name="패스 81123" d="M78.5 7.929c.056.022.094-.012.129-.056a.11.11 0 0 0-.041-.134c-.083.032-.086-.111-.17-.079l-.139.12c.023.129.119.144.221.149" transform="translate(-55.07 4.42)" style="fill:#a5a5a5"/>
        <path data-name="패스 81124" d="M80.113 6.808a.228.228 0 0 0 .234-.075c.046-.084-.007-.136-.075-.183-.151.043-.156-.15-.308-.107l-.251.163c.041.175.215.194.4.2" transform="translate(-56.114 5.308)" style="fill:#a5a5a5"/>
        <path data-name="패스 81125" d="M72.926 7.324c.056.023.094-.012.129-.055a.11.11 0 0 0-.041-.134c-.083.031-.086-.111-.17-.079l-.139.12c.023.129.119.144.221.149" transform="translate(-51.005 4.861)" style="fill:#a5a5a5"/>
        <path data-name="패스 81126" d="M24.4.129c.625-.091 1.216-.1 1.67-.129a19.028 19.028 0 0 1 2.5.169l.083.112c.094.022.14-.074.214-.1.063.006.147-.018.161.06.1-.018.7.117.755.081.062-.014.085.02.1.06.084-.009.167.044.254-.047.315.037 1.814.281 2.068.318.088.076.1.227.239.253l.219-.171.118.006.183.253c.083-.009.169.05.25-.048.061-.014.086.023.105.067-.06.095.034.159.008.247l-.145.115c.02.089.1.064.166.072l.145-.115c.062-.112-.058-.2 0-.309a1.2 1.2 0 0 1 .547-.036c.076.044.032.121.023.189-.127.078-.079.2-.119.306-.085-.013-.164.093-.251.046-.092.034-.079.114-.1.181.02.045.046.083.107.07.112-.129.282-.125.407-.223 0-.062.036-.093.083-.121l.237.016c.077.045.033.124.025.192-.092.034-.077.116-.094.184-.042.1-.161.016-.2.112.077.046.033.123.025.192-.195.129-.368 0-.554.02a7.4 7.4 0 0 0-1.273-.343c-.046.093-.163.015-.209.107-.238-.164-.561-.059-.831-.121-.05.026-.092.055-.091.113l.091.127A7.442 7.442 0 0 1 32.9 2.4c.126-.012.247.08.377-.031.449.178.943.233 1.409.375.079.048.035.126.028.2l-.144.115c.079.049.035.127.028.2-.106.014-.211.077-.318.033-.1.015-.057.161-.158.176-.066-.011-.151.011-.173-.081-.19.159-.389-.091-.58.067 0 .1.156.044.161.143l.681.073c.007.1.156.044.163.146.057.024.1-.009.135-.05.1.033.235-.031.3.1.127-.011.254.09.382-.023l-.1-.142c.051-.114 0-.218-.009-.327-.06-.043-.056-.158-.163-.146a.907.907 0 0 1 .031-.387c.341-.062.552.21.864.212l-.029.194c.023.049.051.089.112.077.103-.054.131-.324.521-.224.034.048.2.247-.036.263l-.122-.012-.354.295c.336 0 .273.344.014.332.094.076.024.177.024.267-.058-.025-.1.009-.134.051-.088-.119-.251-.084-.354-.172-.007-.065.034-.1.082-.122l.186.021c.04-.1.165-.011.2-.11-.122-.085.046-.254-.076-.338-.105.012-.215-.079-.317.033-.015.07 0 .155-.092.187-.068 0-.141-.042-.2.045-.016.07 0 .154-.093.186.043.19.232.268.313.43.088 0 .181.066.26-.035l.053.073.072-.058a.432.432 0 0 0 .279.171c.021-.023.184-.022.2-.047s0-.052.007-.079c.039.011.072-.055.113-.022.267.038.153.385.106.377-.02.04-.07.041-.066.11a4.482 4.482 0 0 1-.824-.134c-.063-.087-.183-.114-.222-.225-.07.072-.189.04-.215.141-.367-.086-.226-.1-.225-.194-.13-.157-.331-.07-.491-.124l-.222.168c-.261 0-.477-.169-.743-.155-.081-.05-.035-.127-.026-.195-.033-.046-.33.072-.477.133a3.887 3.887 0 0 1-.79-.219c-.069 0-.142-.043-.2.038-.18-.109-.435-.054-.6-.195a36.3 36.3 0 0 0-7.789-.846c-.794.02-1.578.143-2.373.2l-.173.072a1.376 1.376 0 0 0-.428.037 1.029 1.029 0 0 1-.422-.1c-.04-.074-.15-.093-.159-.2C20.035 2.11 21.715.357 24.4.129m7.871 2.632c-.169.065-.122.2-.168.306l.141.173a.927.927 0 0 0 .4-.125l.142.174.18.016.217-.143c.063-.131-.093-.165-.124-.254a1.075 1.075 0 0 1-.518-.124l-.269-.022m1.123.032c.006.124.193.052.2.177-.012.085-.069.181.03.241.071.028.122-.012.17-.063-.006-.079.047-.117.108-.15.07.028.121-.012.169-.064a.538.538 0 0 0-.277-.185c-.134.028-.266-.1-.4.043" transform="translate(-12.664 10.001)" style="fill:#a5a5a5"/>
        <path data-name="패스 81127" d="M28.334 31.35a3.642 3.642 0 0 0-.848-.326l-.083-.115c-.073-.024-.174-.03-.18-.1a4.035 4.035 0 0 0-.923-.209c-.312-.166-.738-.219-1.038-.4-.2.036-.335-.072-.5-.1a.109.109 0 0 0-.107-.079c-.072.053-.189-.036-.261.017-.1-.133-.35-.126-.513-.2a9.4 9.4 0 0 1-1.6-.294c-.017-.086-.153-.085-.238-.122-.322.022-.544-.183-.862-.171-5.282-1.172-4.251-.016-4.16.034l.264.085c.041.074-.009.157.07.226.261.105.451.261.7.374a.913.913 0 0 0 .373.267c.041.073.166.121.174.2l.134.041c.032.2.221.364.324.547l-.06.084c.25.131.172.327.292.484a.834.834 0 0 0 .311.14c.044.072.171.118.18.2l.137.04a.648.648 0 0 1 .119.28c.127.018.089.1.145.139l.208.058.114.178a4.351 4.351 0 0 0 .866.19 1.079 1.079 0 0 1 .341 0c-.013.092.08.162.157.235a3.036 3.036 0 0 1 .742.246l.2-.042a.9.9 0 0 0 .412.014c.074.023.179.027.182.1.582.141 1.22.058 1.806.188.261-.012.521-.031.784-.03l.3-.062.214.054a2.476 2.476 0 0 1 .541-.045l.4-.081c.007-.084.205-.09.211-.174a1.994 1.994 0 0 1 .368-.041c.021-.071.155-.048.225-.078a2.315 2.315 0 0 0 .636-.063c.1-.078.053-.207.261-.247.1-.059-.032-.149.064-.208.122.014.1-.09.222-.076l.081-.113c.127-.05-.164-.647-.485-.846-.146.044-.251-.038-.376-.057-.041-.1-.222-.083-.322-.133" transform="translate(-10.306 -10.942)" style="fill:#a5a5a5"/>
        <path data-name="패스 81128" d="M80.511 8.465c.148.046.192.23.327.295.226-.138.443.013.665-.012.024.05.053.091.113.078.1-.019.043-.174.139-.193a.121.121 0 0 1-.047-.14.67.67 0 0 1-.461-.172.71.71 0 0 1-.43.1.7.7 0 0 0-.341-.16.126.126 0 0 0-.076.128l.111.075" transform="translate(-56.614 3.978)" style="fill:#a5a5a5"/>
    </g>
</svg>
