<svg xmlns="http://www.w3.org/2000/svg" width="40" height="40" viewBox="0 0 40 40">
    <path style="fill:none" d="M0 0h40v40H0z"/>
    <g data-name="그룹 54071">
        <path data-name="패스 32759" d="M18.728 11.577a4.373 4.373 0 0 0-6.221 1.306 4.378 4.378 0 0 1-7.914-1.2c0-.016-.008-.03-.012-.045l-.014-.056a5.609 5.609 0 0 1-.224-1.739c0-3.923 4.024-8.291 9.822-8.291a11.057 11.057 0 0 1 10.207 7.026l-.044-.134A12.5 12.5 0 0 0 0 12.5c0 6.171 4.451 11.454 10.625 11.454a10.04 10.04 0 0 0 9.751-6.566 4.818 4.818 0 0 0-1.648-5.812" style="fill:#a5a5a5" transform="translate(8 8)"/>
        <path data-name="패스 32760" d="M37.859 13.6a11.02 11.02 0 0 0-10.286-7.274c-5.8 0-9.822 4.367-9.822 8.291a5.617 5.617 0 0 0 .224 1.739 3.679 3.679 0 0 1-.115-.892c0-4.085 4.091-6.917 8.3-6.917a10.307 10.307 0 0 1 10.303 10.307 11.362 11.362 0 0 1-6.3 10.18 12.5 12.5 0 0 0 8.244-11.758 12.345 12.345 0 0 0-.55-3.678" transform="translate(-5.409 3.222)" style="fill:#a5a5a5"/>
    </g>
</svg>
