<svg xmlns="http://www.w3.org/2000/svg" width="40" height="40" viewBox="0 0 40 40">
    <path style="fill:none" d="M0 0h40v40H0z"/>
    <path data-name="패스 32761" d="M.123 7.083A20.952 20.952 0 0 0 4.2 3.971 20.982 20.982 0 0 0 7.436 0v5.49C5.012 6.079 2.567 6.566.123 7.083" transform="translate(4.928 5)" style="fill:#a5a5a5"/>
    <path data-name="패스 32762" d="M7.436 14.858v-1.593c-2.424.589-4.869 1.076-7.313 1.593z" transform="translate(4.928 -2.775)" style="fill:#a5a5a5"/>
    <path data-name="패스 32763" d="M19.4 7.91c-.532.145-1.065.276-1.6.408v1.593h5.7c.865 0 2.752-.031 5.271-.168V4.825A97.855 97.855 0 0 1 19.4 7.91" transform="translate(-5.431 2.172)" style="fill:#a5a5a5"/>
    <path data-name="패스 32764" d="M7.436 34.992V23.361h-2.5c-1.925 0-2.158 1.876-2.272 2.273h-.369v-3.108h5.141v-5.41H.123v19.655h5.691a1.552 1.552 0 0 0 1.622-1.778" transform="translate(4.928 -5.033)" style="fill:#a5a5a5"/>
    <path data-name="패스 32765" d="M28.768 34.764V24.2a1.6 1.6 0 0 0-.141-.689 1.133 1.133 0 0 0-.622-.52 4.393 4.393 0 0 0-.8-.229s-.442-.077-.558-.1v-.37h2.117V16.71c-2.519.137-4.405.164-5.271.168H17.8v5.41h7.637V25.4h-.365c-.112-.4-.341-2.273-2.234-2.273h-2.323v11.627c0 1.778 1.27 1.7 1.6 1.778H27.2c.4-.062 1.569-.074 1.569-1.768" transform="translate(-5.431 -4.795)" style="fill:#a5a5a5"/>
    <path data-name="패스 32766" d="M48.472 27.642a2.763 2.763 0 0 0 1.888-.785 3.587 3.587 0 0 0 .7-2.413 3.587 3.587 0 0 0-.7-2.413 3.19 3.19 0 0 0-2.485-.814h-.8v11.8c0 1.694 1.171 1.705 1.569 1.768h8.1V13.727c-4.655.709-9.08 1.06-12.433 1.234v5.578H48.8a6.853 6.853 0 0 1 4.061 1.061 3.246 3.246 0 0 1 1.293 2.839 3.248 3.248 0 0 1-1.293 2.839 6.859 6.859 0 0 1-4.061 1.071h-1.183s0-.659.856-.707" transform="translate(-20.972 -3.046)" style="fill:#a5a5a5"/>
    <path data-name="패스 32776" d="m39.909 69.933-.082-.466a1.762 1.762 0 0 1-.038-.261.219.219 0 0 1 .042-.148.146.146 0 0 1 .111-.046.165.165 0 0 1 .119.047.16.16 0 0 1 .047.122 2.312 2.312 0 0 1-.042.286l-.086.464z" transform="translate(-18.323 -35.453)" style="fill:#a5a5a5"/>
    <path data-name="패스 32777" d="m1.607 69.131.02.5h-.054a.7.7 0 0 0-.043-.189.3.3 0 0 0-.119-.133.361.361 0 0 0-.194-.043h-.27v1.631a.49.49 0 0 0 .038.247.212.212 0 0 0 .171.067h.069v.058H.4v-.058h.07a.192.192 0 0 0 .175-.082.52.52 0 0 0 .032-.232v-1.633H.439a.632.632 0 0 0-.194.022.282.282 0 0 0-.127.114.5.5 0 0 0-.063.23H0l.021-.5z" transform="translate(5 -35.522)" style="fill:#a5a5a5"/>
    <path data-name="패스 32778" d="M5.355 69.246v.844h.427A.328.328 0 0 0 6 70.036a.361.361 0 0 0 .083-.25h.053v.738h-.049a.84.84 0 0 0-.04-.2.179.179 0 0 0-.084-.086.409.409 0 0 0-.182-.032h-.426v.7a.706.706 0 0 0 .012.174.094.094 0 0 0 .039.049.223.223 0 0 0 .109.019h.329a.879.879 0 0 0 .238-.025.356.356 0 0 0 .142-.1 1.236 1.236 0 0 0 .182-.295h.061l-.168.534H4.8v-.058h.07a.249.249 0 0 0 .13-.031.134.134 0 0 0 .063-.076.974.974 0 0 0 .016-.207V69.5a.482.482 0 0 0-.038-.249.205.205 0 0 0-.171-.065H4.8v-.058h1.5l.019.469h-.053a.8.8 0 0 0-.068-.233.239.239 0 0 0-.109-.1.58.58 0 0 0-.2-.024z" transform="translate(2.185 -35.522)" style="fill:#a5a5a5"/>
    <path data-name="패스 32779" d="M11.207 71.069a.8.8 0 0 1-.148-.279l-.673-1.776h-.049l-.69 1.756a.979.979 0 0 1-.163.309.3.3 0 0 1-.156.061v.06h.611v-.06a.338.338 0 0 1-.183-.047.113.113 0 0 1-.041-.086.557.557 0 0 1 .05-.186l.13-.334h.754l.115.306a.69.69 0 0 1 .057.217.113.113 0 0 1-.041.087.251.251 0 0 1-.157.043v.06h.771v-.06a.3.3 0 0 1-.186-.071m-1.25-.7.341-.862.324.862z" transform="translate(-.467 -35.453)" style="fill:#a5a5a5"/>
    <path data-name="패스 32780" d="m16.25 69.013.045.725h-.045a.946.946 0 0 0-.252-.47.58.58 0 0 0-.4-.144.6.6 0 0 0-.348.108.719.719 0 0 0-.247.346 1.727 1.727 0 0 0-.088.587 1.356 1.356 0 0 0 .084.5.68.68 0 0 0 .254.327.691.691 0 0 0 .387.114.613.613 0 0 0 .334-.089 1.174 1.174 0 0 0 .318-.353l.044.031a1.111 1.111 0 0 1-.34.416.813.813 0 0 1-.464.132.849.849 0 0 1-.747-.394 1.192 1.192 0 0 1-.2-.689 1.307 1.307 0 0 1 .131-.588.994.994 0 0 1 .357-.415.912.912 0 0 1 .5-.147.862.862 0 0 1 .415.113.237.237 0 0 0 .086.034.093.093 0 0 0 .066-.029.242.242 0 0 0 .053-.118z" transform="translate(-3.553 -35.453)" style="fill:#a5a5a5"/>
    <path data-name="패스 32781" d="M20.1 70.121h.906v-.615a.71.71 0 0 0-.019-.212.135.135 0 0 0-.059-.068.259.259 0 0 0-.131-.037h-.068v-.058h.829v.058h-.07a.254.254 0 0 0-.129.036.129.129 0 0 0-.062.075.855.855 0 0 0-.017.206v1.384a.793.793 0 0 0 .018.214.14.14 0 0 0 .059.067.248.248 0 0 0 .13.038h.07v.058h-.829v-.058h.072a.2.2 0 0 0 .173-.078.489.489 0 0 0 .035-.24v-.653H20.1v.653a.8.8 0 0 0 .018.214.143.143 0 0 0 .06.067.249.249 0 0 0 .13.038h.07v.058h-.829v-.058h.069a.2.2 0 0 0 .175-.078.518.518 0 0 0 .035-.24v-1.386a.725.725 0 0 0-.02-.212.126.126 0 0 0-.058-.068.252.252 0 0 0-.131-.037h-.069v-.058h.829v.058h-.07a.26.26 0 0 0-.13.036.133.133 0 0 0-.06.075.769.769 0 0 0-.017.206z" transform="translate(-6.458 -35.522)" style="fill:#a5a5a5"/>
    <path data-name="패스 32782" d="M25.991 69.246v.844h.427a.326.326 0 0 0 .222-.055.359.359 0 0 0 .083-.25h.053v.738h-.053a1.135 1.135 0 0 0-.038-.2.187.187 0 0 0-.087-.086.4.4 0 0 0-.18-.032h-.427v.7a.764.764 0 0 0 .011.174.109.109 0 0 0 .04.049.229.229 0 0 0 .111.019h.328a.866.866 0 0 0 .238-.025.363.363 0 0 0 .143-.1 1.278 1.278 0 0 0 .181-.295h.06l-.168.534h-1.494v-.058h.068a.255.255 0 0 0 .131-.035.136.136 0 0 0 .06-.068.79.79 0 0 0 .017-.207V69.5a.49.49 0 0 0-.037-.249.208.208 0 0 0-.173-.065h-.068v-.058h1.5l.019.469H26.9a.755.755 0 0 0-.068-.233.232.232 0 0 0-.108-.1.589.589 0 0 0-.2-.024z" transform="translate(-9.912 -35.522)" style="fill:#a5a5a5"/>
    <path data-name="패스 32783" d="M30.844 69.286a.966.966 0 0 1 .224-.036.382.382 0 0 1 .3.127.464.464 0 0 1 .113.324.445.445 0 0 1-.141.339.583.583 0 0 1-.416.133h-.079zm1.378 1.923a.554.554 0 0 1-.256-.088 1.069 1.069 0 0 1-.238-.282l-.4-.613a.635.635 0 0 0 .363-.205.52.52 0 0 0 .117-.34.492.492 0 0 0-.1-.316.52.52 0 0 0-.249-.184 1.557 1.557 0 0 0-.459-.05h-.708v.058h.074a.2.2 0 0 1 .164.069.475.475 0 0 1 .039.249v1.383a.54.54 0 0 1-.029.231.189.189 0 0 1-.174.088h-.074v.058h.831v-.058h-.075a.189.189 0 0 1-.163-.07.463.463 0 0 1-.04-.249v-.622H31.045l.658 1h.521z" transform="translate(-12.755 -35.522)" style="fill:#a5a5a5"/>
    <path data-name="패스 32784" d="M36.81 69.013v.739h-.053a.982.982 0 0 0-.092-.34.509.509 0 0 0-.19-.2.483.483 0 0 0-.256-.074.331.331 0 0 0-.246.1.316.316 0 0 0-.1.227.285.285 0 0 0 .061.178 1.613 1.613 0 0 0 .424.315 3.053 3.053 0 0 1 .372.247.6.6 0 0 1 .207.448.6.6 0 0 1-.613.594.823.823 0 0 1-.16-.014 1.858 1.858 0 0 1-.184-.06.841.841 0 0 0-.175-.05.068.068 0 0 0-.058.025.225.225 0 0 0-.032.1h-.052v-.729h.052a1.16 1.16 0 0 0 .1.342.523.523 0 0 0 .195.188.562.562 0 0 0 .286.074.377.377 0 0 0 .283-.1.331.331 0 0 0 .1-.246.373.373 0 0 0-.038-.16.491.491 0 0 0-.122-.15 3.1 3.1 0 0 0-.307-.2 2.8 2.8 0 0 1-.354-.243.614.614 0 0 1-.163-.2.561.561 0 0 1 .516-.8.758.758 0 0 1 .328.085.33.33 0 0 0 .114.041.088.088 0 0 0 .061-.025.21.21 0 0 0 .038-.1z" transform="translate(-15.894 -35.453)" style="fill:#a5a5a5"/>
    <path data-name="패스 32785" d="M43.869 69.289a.811.811 0 0 1 .186-.03.4.4 0 0 1 .213.06.379.379 0 0 1 .145.179.645.645 0 0 1 .051.257.489.489 0 0 1-.107.329.324.324 0 0 1-.255.125A.785.785 0 0 1 44 70.2c-.038 0-.083-.014-.132-.023zm.174 1.012a1.1 1.1 0 0 0 .15.01.551.551 0 0 0 .6-.588.555.555 0 0 0-.1-.334.575.575 0 0 0-.253-.2 1.143 1.143 0 0 0-.409-.06h-.711v.058h.074a.2.2 0 0 1 .165.069.472.472 0 0 1 .04.249v1.384a.573.573 0 0 1-.028.231.192.192 0 0 1-.176.088h-.074v.058h.83v-.058h-.074a.19.19 0 0 1-.163-.07.461.461 0 0 1-.04-.249v-.623c.061.015.119.026.174.034" transform="translate(-20.39 -35.522)" style="fill:#a5a5a5"/>
    <path data-name="패스 32786" d="M48.193 69.246v.844h.426a.33.33 0 0 0 .223-.055.356.356 0 0 0 .083-.25h.053v.738h-.053a.964.964 0 0 0-.04-.2.181.181 0 0 0-.085-.086.4.4 0 0 0-.181-.032h-.426v.7a.676.676 0 0 0 .012.174.1.1 0 0 0 .04.049.216.216 0 0 0 .109.019h.328a.873.873 0 0 0 .239-.025.363.363 0 0 0 .142-.1 1.264 1.264 0 0 0 .181-.295h.056l-.167.534h-1.5v-.058h.07a.254.254 0 0 0 .132-.035.135.135 0 0 0 .065-.068.761.761 0 0 0 .018-.207V69.5a.481.481 0 0 0-.038-.249.208.208 0 0 0-.172-.065h-.07v-.058h1.5l.02.469H49.1a.777.777 0 0 0-.066-.233.235.235 0 0 0-.109-.1.581.581 0 0 0-.2-.024z" transform="translate(-22.925 -35.522)" style="fill:#a5a5a5"/>
    <path data-name="패스 32787" d="M52.125 69.131h.527l1.189 1.6V69.5a.448.448 0 0 0-.041-.246.2.2 0 0 0-.171-.067h-.066v-.058h.68v.058h-.07a.191.191 0 0 0-.176.083.517.517 0 0 0-.032.23v1.8h-.051l-1.282-1.723v1.317a.486.486 0 0 0 .038.247.213.213 0 0 0 .171.067h.069v.058h-.68v-.058h.07a.194.194 0 0 0 .179-.082.517.517 0 0 0 .031-.232v-1.483a.887.887 0 0 0-.127-.144.468.468 0 0 0-.127-.064.427.427 0 0 0-.127-.014z" transform="translate(-25.554 -35.522)" style="fill:#a5a5a5"/>
    <path data-name="패스 32788" d="M59.187 69.013v.739h-.052a1 1 0 0 0-.092-.34.5.5 0 0 0-.192-.2.475.475 0 0 0-.255-.074.33.33 0 0 0-.245.1.316.316 0 0 0-.1.227.3.3 0 0 0 .061.178 1.592 1.592 0 0 0 .425.315 3.234 3.234 0 0 1 .372.247.622.622 0 0 1 .152.2.572.572 0 0 1 .053.244.6.6 0 0 1-.614.594.8.8 0 0 1-.158-.014 1.715 1.715 0 0 1-.185-.06.824.824 0 0 0-.177-.05.071.071 0 0 0-.057.025.189.189 0 0 0-.029.1h-.053v-.729h.059a1.074 1.074 0 0 0 .1.342.5.5 0 0 0 .193.188.567.567 0 0 0 .286.074.377.377 0 0 0 .283-.1.333.333 0 0 0 .1-.246.352.352 0 0 0-.039-.16.462.462 0 0 0-.122-.15 2.97 2.97 0 0 0-.305-.2 2.6 2.6 0 0 1-.356-.243.617.617 0 0 1-.162-.2.536.536 0 0 1-.055-.242.543.543 0 0 1 .163-.4.536.536 0 0 1 .408-.166.763.763 0 0 1 .329.085.318.318 0 0 0 .113.041.089.089 0 0 0 .062-.025.245.245 0 0 0 .038-.1z" transform="translate(-29.011 -35.453)" style="fill:#a5a5a5"/>
    <path data-name="패스 32789" d="M62.833 71.208v.058H62v-.058h.069a.2.2 0 0 0 .175-.077.53.53 0 0 0 .034-.241v-1.384a.817.817 0 0 0-.018-.212.138.138 0 0 0-.06-.068.254.254 0 0 0-.131-.037H62v-.058h.829v.058h-.07a.2.2 0 0 0-.173.077.511.511 0 0 0-.034.24v1.384a.856.856 0 0 0 .017.214.135.135 0 0 0 .06.067.241.241 0 0 0 .13.038z" transform="translate(-31.344 -35.522)" style="fill:#a5a5a5"/>
    <path data-name="패스 32790" d="M66.2 69.339a1.406 1.406 0 0 1 .2.819 1.238 1.238 0 0 1-.178.743.542.542 0 0 1-.45.232.483.483 0 0 1-.413-.214 1.356 1.356 0 0 1-.2-.8 1.305 1.305 0 0 1 .2-.777.493.493 0 0 1 .418-.213.513.513 0 0 1 .436.214m-1.061-.047a1.136 1.136 0 0 0-.315.83 1.19 1.19 0 0 0 .273.811.872.872 0 0 0 1.346-.008 1.184 1.184 0 0 0 .28-.807 1.151 1.151 0 0 0-.278-.788.839.839 0 0 0-.654-.317.881.881 0 0 0-.651.279" transform="translate(-32.998 -35.453)" style="fill:#a5a5a5"/>
    <path data-name="패스 32791" d="M69.957 69.131h.528l1.187 1.6V69.5a.466.466 0 0 0-.04-.246.2.2 0 0 0-.169-.067H71.4v-.058h.681v.058h-.07a.189.189 0 0 0-.175.083.486.486 0 0 0-.032.23v1.8h-.052l-1.282-1.723v1.317a.476.476 0 0 0 .039.247.207.207 0 0 0 .169.067h.07v.058h-.682v-.058h.068a.19.19 0 0 0 .177-.082.513.513 0 0 0 .034-.232v-1.483a1 1 0 0 0-.13-.144.437.437 0 0 0-.128-.064.407.407 0 0 0-.125-.014z" transform="translate(-36.006 -35.522)" style="fill:#a5a5a5"/>
</svg>
