<svg xmlns="http://www.w3.org/2000/svg" width="16" height="16" viewBox="0 0 16 16">
    <path style="fill:none" d="M0 0h16v16H0z"/>
    <g data-name="사각형 92" transform="translate(0 2)" style="stroke:#333;fill:none">
        <rect width="16" height="14" rx="1" style="stroke:none"/>
        <rect x=".5" y=".5" width="15" height="13" rx=".5" style="fill:none"/>
    </g>
    <path data-name="선 18" transform="translate(12.5 .5)" style="stroke-linecap:round;stroke:#333;fill:none" d="M0 0v1.5"/>
    <path data-name="선 19" transform="translate(3.5 .5)" style="stroke-linecap:round;stroke:#333;fill:none" d="M0 0v1.5"/>
    <path data-name="선 30" transform="translate(0 6.5)" style="stroke:#333;fill:none" d="M16 0H0"/>
    <path data-name="선 1574" transform="translate(4 9.5)" style="stroke:#333;fill:none" d="M2 0H0"/>
    <path data-name="선 1577" transform="translate(4 11.5)" style="stroke:#333;fill:none" d="M2 0H0"/>
    <path data-name="선 1573" transform="translate(7 9.5)" style="stroke:#333;fill:none" d="M2 0H0"/>
    <path data-name="선 1576" transform="translate(7 11.5)" style="stroke:#333;fill:none" d="M2 0H0"/>
    <path data-name="선 1572" transform="translate(10 9.5)" style="stroke:#333;fill:none" d="M2 0H0"/>
    <path data-name="선 1575" transform="translate(10 11.5)" style="stroke:#333;fill:none" d="M2 0H0"/>
</svg>
