<svg xmlns="http://www.w3.org/2000/svg" width="24" height="24" viewBox="0 0 24 24">
    <path style="fill:none" d="M0 0h24v24H0z"/>
    <path data-name="패스 81044" d="M11.466 17.487c-.122.03-.244.059-.368.084a8.722 8.722 0 0 1-1.76.178 8.5 8.5 0 1 1 0-17 8.569 8.569 0 0 1 8.412 6.778" transform="translate(.25 1.25)" style="stroke-linecap:round;stroke-miterlimit:10;stroke-width:1.5px;stroke:#333;fill:none"/>
    <path d="M6.163 6.146 8 8zM-1 3.042a4.041 4.041 0 1 1 4.04 4.04A4.041 4.041 0 0 1-1 3.042z" transform="translate(15.084 12.5)" style="stroke-linejoin:round;stroke:#366cc3;stroke-linecap:round;stroke-miterlimit:10;stroke-width:1.5px;fill:none"/>
    <path d="m0 0 1.427 3.636L2.909 0l1.647 3.636L5.818 0" transform="translate(6.592 8.682)" style="stroke-linejoin:round;stroke-linecap:round;stroke-miterlimit:10;stroke-width:1.5px;stroke:#333;fill:none"/>
    <path data-name="Path" d="M2.3.5H.841" transform="translate(4.659 9.637)" style="stroke-linejoin:round;stroke-linecap:round;stroke-miterlimit:10;stroke-width:1.5px;stroke:#333;fill:none"/>
    <path data-name="Path" d="M2.3.5H.841" transform="translate(11.204 9.637)" style="stroke-linejoin:round;stroke-linecap:round;stroke-miterlimit:10;stroke-width:1.5px;stroke:#333;fill:none"/>
</svg>
