<svg xmlns="http://www.w3.org/2000/svg" width="32" height="32" viewBox="0 0 32 32">
    <path style="fill:none" d="M0 0h32v32H0z"/>
    <path data-name="ic" d="m19863.66 21557.793-6.717-6.719-6.717 6.719a.75.75 0 0 1-1.061-1.061l6.715-6.719-6.715-6.717a.749.749 0 0 1 1.061-1.059l6.715 6.715 6.719-6.721a.75.75 0 0 1 1.061 0 .758.758 0 0 1 0 1.064l-6.717 6.719 6.717 6.717a.743.743 0 0 1 0 1.061.753.753 0 0 1-.529.219.761.761 0 0 1-.532-.218z" transform="translate(-19840.945 -21534.012)" style="fill:#333"/>
</svg>
