<svg xmlns="http://www.w3.org/2000/svg" width="64" height="64" viewBox="0 0 64 64">
    <path style="fill:none" d="M0 0h64v64H0z"/>
    <path data-name="패스 37010" d="M321.252 546.082v-17a4 4 0 0 0-4-4h-30a4 4 0 0 0-4 4v30a4 4 0 0 0 4 4h20" transform="translate(-270.252 -512.082)" style="stroke-width:1.5px;stroke-linecap:round;stroke:#000;fill:none"/>
    <path data-name="패스 617" d="M9 3.6a8.42 8.42 0 0 1 3.122-.6 8.326 8.326 0 0 1 8.326 8.326c0 1.166 0 5.2-2.082 8.326" transform="translate(20.551 19.633)" style="stroke-linejoin:round;stroke-width:1.5px;stroke-linecap:round;stroke:#000;fill:none"/>
    <path data-name="패스 618" d="M3.34 14.338a9.836 9.836 0 0 0 .687-3.122 8.325 8.325 0 0 1 2.081-5.5" transform="translate(20.32 19.744)" style="stroke-linejoin:round;stroke-width:1.5px;stroke-linecap:round;stroke:#000;fill:none"/>
    <path data-name="패스 619" d="M16.122 11A16.58 16.58 0 0 1 13 21.408" transform="translate(20.714 19.959)" style="stroke-linejoin:round;stroke-width:1.5px;stroke-linecap:round;stroke:#000;fill:none"/>
    <path data-name="패스 620" d="M6.17 17.585c.864-.885 1.9-4.642 1.9-6.422A4.163 4.163 0 0 1 12.238 7a4.049 4.049 0 0 1 2.082.562" transform="translate(20.435 19.796)" style="stroke-linejoin:round;stroke-width:1.5px;stroke-linecap:round;stroke:#000;fill:none"/>
    <path data-name="패스 621" d="M12.163 11c0 2.082-1.041 8.326-4.163 10.408" transform="translate(20.51 19.959)" style="stroke-linejoin:round;stroke-width:1.5px;stroke-linecap:round;stroke:#000;fill:none"/>
    <path data-name="패스 36990" d="M20.722 16.636h-4v4" transform="translate(.278 .364)" style="stroke-linejoin:round;stroke-width:1.5px;stroke:#000;fill:none"/>
    <path data-name="패스 36991" d="M20.722 16.636h-4v4" transform="rotate(90 31.679 31.957)" style="stroke-linejoin:round;stroke-width:1.5px;stroke:#000;fill:none"/>
    <path data-name="패스 36992" d="M20.722 20.636h-4v-4" transform="translate(.278 26.364)" style="stroke-linejoin:round;stroke-width:1.5px;stroke:#000;fill:none"/>
    <path data-name="패스 36993" d="M4 4H0V0" transform="rotate(-90 45 2)" style="stroke-linejoin:round;stroke-width:1.5px;stroke:#000;fill:none"/>
    <g data-name="그룹 24812" transform="translate(-4 6)">
        <circle data-name="타원 1640" cx="10" cy="10" r="10" transform="translate(45 32)" style="fill:#366cc3"/>
        <path data-name="패스 36984" d="m9 12 2.667 3L17 9" transform="translate(42 30)" style="stroke:#fff;stroke-linejoin:round;stroke-width:1.5px;stroke-linecap:round;fill:none"/>
    </g>
</svg>
