<svg xmlns="http://www.w3.org/2000/svg" width="24" height="24" viewBox="0 0 24 24">
    <path style="fill:none" d="M0 0h24v24H0z"/>
    <path data-name="패스 81038" d="M4.971 3.25H3.21A1.367 1.367 0 0 1 1.75 2 1.367 1.367 0 0 1 3.21.75h17.08A1.367 1.367 0 0 1 21.75 2a1.367 1.367 0 0 1-1.46 1.25m0 0h-1.81M4.8.75h13.9v13a2.175 2.175 0 0 1-2.316 2H7.118a2.175 2.175 0 0 1-2.316-2z" transform="translate(.25 4.25)" style="stroke-width:1.5px;stroke:#333;fill:none"/>
    <path d="m0 0 1.427 4 1.482-4 1.647 4 1.262-4" transform="translate(9.092 11)" style="stroke:#366cc3;stroke-linecap:round;stroke-linejoin:round;stroke-miterlimit:10;stroke-width:1.5px;fill:none"/>
    <path data-name="Path" d="M2.3.5H.841" transform="translate(7.159 12.1)" style="stroke:#366cc3;stroke-linecap:round;stroke-linejoin:round;stroke-miterlimit:10;stroke-width:1.5px;fill:none"/>
    <path data-name="Path" d="M2.3.5H.841" transform="translate(13.704 12.1)" style="stroke:#366cc3;stroke-linecap:round;stroke-linejoin:round;stroke-miterlimit:10;stroke-width:1.5px;fill:none"/>
</svg>
