<svg xmlns="http://www.w3.org/2000/svg" width="64" height="64" viewBox="0 0 64 64">
    <path style="fill:none" d="M0 0h64v64H0z"/>
    <g data-name="그룹 24808">
        <path data-name="패스 37008" d="M352.154 642.25v3.911a3.25 3.25 0 0 1-3.25 3.25h-20a3.25 3.25 0 0 1-3.25-3.25v-38a3.25 3.25 0 0 1 3.25-3.25h20a3.25 3.25 0 0 1 3.25 3.25v2.171" transform="translate(-306.904 -595.161)" style="stroke-linecap:round;stroke-width:1.5px;stroke:#000;fill:none"/>
        <path data-name="선 815" transform="translate(19 46.998)" style="stroke-linecap:round;stroke-width:1.5px;stroke:#000;fill:none" d="M0 0h26.052"/>
        <path data-name="선 816" transform="translate(30.529 15.152)" style="stroke-linecap:round;stroke-width:1.5px;stroke:#000;fill:none" d="M0 0h2.895"/>
    </g>
    <path data-name="제외 1" d="m11 24-1.218-.56A15.143 15.143 0 0 1 3.4 18.5a14.325 14.325 0 0 1-2.8-7.406L0 3.733A1.35 1.35 0 0 1 1.053 2.4L11 0l9.946 2.4A1.351 1.351 0 0 1 22 3.733l-.6 7.36a14.33 14.33 0 0 1-2.8 7.407 15.144 15.144 0 0 1-6.381 4.94L11 24z" transform="translate(35 19)" style="fill:#366cc3"/>
    <path data-name="패스 542" d="m9 10.983 1.983 1.983L14.95 9" transform="translate(33.962 18.869)" style="stroke:#fff;stroke-linejoin:round;stroke-linecap:round;stroke-width:1.5px;fill:none"/>
</svg>
