<svg xmlns="http://www.w3.org/2000/svg" width="24" height="24" viewBox="0 0 24 24">
    <path style="fill:none" d="M0 0h24v24H0z"/>
    <path data-name="패스 81032" d="M16.162 5.753A7.622 7.622 0 0 0 11.8 1.35a8.325 8.325 0 0 0-3.125-.6m0 0A7.678 7.678 0 0 0 .75 8.153a7.14 7.14 0 0 0 1.45 4.319l-1.053 3.69 4.442-1.117a8.3 8.3 0 0 0 3.074.6" transform="translate(1.837 2.311)" style="stroke:#fff;stroke-linecap:round;stroke-linejoin:round;stroke-width:1.5px;fill:none"/>
    <path data-name="패스 36984" d="M4 9a3.933 3.933 0 0 1 4 3.863 3.752 3.752 0 0 1-.73 2.222L7.8 17l-2.24-.58a4.115 4.115 0 0 1-1.56.3 3.933 3.933 0 0 1-4-3.862A3.933 3.933 0 0 1 4 9" transform="translate(13.999 3)" style="stroke:#fff;stroke-linecap:round;stroke-linejoin:round;stroke-width:1.5px;fill:none"/>
    <path data-name="합치기 3" d="M6 .749a.75.75 0 1 1 .75.751A.75.75 0 0 1 6 .749zm-3 0a.75.75 0 1 1 .751.751A.75.75 0 0 1 3 .749zm-3 0a.75.75 0 1 1 .75.751A.75.75 0 0 1 0 .749z" transform="translate(6.331 10.029)" style="fill:#fff"/>
</svg>
