<svg id="ico_q_link_01_hover" xmlns="http://www.w3.org/2000/svg" width="24" height="24" viewBox="0 0 24 24">
  <defs>
    <style>
      .cls-1, .cls-2, .cls-3 {
        fill: none;
      }

      .cls-2, .cls-3 {
        stroke: #fff;
        stroke-linecap: round;
        stroke-miterlimit: 10;
        stroke-width: 1.5px;
      }

      .cls-3 {
        stroke-linejoin: round;
      }
    </style>
  </defs>
  <rect id="area" class="cls-1" width="24" height="24"/>
  <g id="ic" transform="translate(2 2.583)">
    <path id="패스_81044" data-name="패스 81044" class="cls-2" d="M11.466,17.487c-.122.03-.244.059-.368.084a8.722,8.722,0,0,1-1.76.178,8.5,8.5,0,1,1,0-17A8.569,8.569,0,0,1,17.75,7.527" transform="translate(-1.75 -1.333)"/>
    <path id="search" class="cls-3" d="M6.163,6.146,8,8ZM-1,3.042a4.041,4.041,0,1,1,4.04,4.04A4.041,4.041,0,0,1-1,3.042Z" transform="translate(13.084 9.917)"/>
    <g id="W" transform="translate(3.5 6.099)">
      <path id="Path" class="cls-3" d="M0,0,1.427,3.636,2.909,0,4.556,3.636,5.818,0" transform="translate(1.092 0)"/>
      <path id="Path-2" data-name="Path" class="cls-3" d="M2.3.5H.841" transform="translate(-0.841 0.955)"/>
      <path id="Path-3" data-name="Path" class="cls-3" d="M2.3.5H.841" transform="translate(5.704 0.955)"/>
    </g>
  </g>
</svg>
