<svg xmlns="http://www.w3.org/2000/svg" width="24" height="24" viewBox="0 0 24 24">
    <path style="fill:none" d="M0 0h24v24H0z"/>
    <path data-name="합치기 2" d="M-.775 6h0zm0-4h0z" transform="translate(7.774 6.997)" style="stroke:#fff;stroke-linecap:round;stroke-linejoin:round;stroke-width:1.5px;fill:none"/>
    <path data-name="패스 81033" d="M15.5 6.8V3.04a1.518 1.518 0 0 0-1.485-1.54H2.985A1.518 1.518 0 0 0 1.5 3.04v12.92a1.518 1.518 0 0 0 1.485 1.54h4.7" transform="translate(1.5 2.5)" style="stroke:#fff;stroke-linecap:round;stroke-linejoin:round;stroke-width:1.5px;fill:none"/>
    <path data-name="패스 19374" d="M27.377 5.316a1.17 1.17 0 0 0 0-1.655l-.985-.985a1.17 1.17 0 0 0-1.655 0l-5.059 4.945-.958 3.2 3.6-.556z" transform="translate(-6.408 9.608)" style="stroke:#fff;stroke-linecap:round;stroke-linejoin:round;stroke-width:1.5px;fill:none"/>
</svg>
