<svg xmlns="http://www.w3.org/2000/svg" width="24" height="24" viewBox="0 0 24 24">
    <g transform="translate(-.384)">
        <circle data-name="타원 1736" cx="12" cy="12" r="12" transform="translate(.384)" style="fill:#1c9cea"/>
        <path d="M3.765 10a7.056 7.056 0 0 0 7.009-7.183c0-.11 0-.22-.005-.325A5.118 5.118 0 0 0 12 1.183a4.906 4.906 0 0 1-1.415.4 2.513 2.513 0 0 0 1.083-1.4A4.916 4.916 0 0 1 10.1.8 2.424 2.424 0 0 0 8.3 0a2.5 2.5 0 0 0-2.456 2.524 2.368 2.368 0 0 0 .066.576A6.934 6.934 0 0 1 .833.461 2.581 2.581 0 0 0 .5 1.728a2.53 2.53 0 0 0 1.1 2.1 2.375 2.375 0 0 1-1.115-.315v.031a2.513 2.513 0 0 0 1.977 2.477 2.4 2.4 0 0 1-.649.089 2.3 2.3 0 0 1-.465-.047 2.468 2.468 0 0 0 2.3 1.754A4.876 4.876 0 0 1 .587 8.9 4.372 4.372 0 0 1 0 8.859 6.744 6.744 0 0 0 3.765 10" transform="translate(6.384 7)" style="fill:#fff"/>
    </g>
</svg>
