<svg xmlns="http://www.w3.org/2000/svg" width="24" height="24" viewBox="0 0 24 24">
    <defs>
        <radialGradient id="802s0mrn2a" cx=".293" cy="1.077" r="1.325" gradientTransform="matrix(1 0 0 -1 0 2)" gradientUnits="objectBoundingBox">
            <stop offset="0" stop-color="#ffcd63"/>
            <stop offset=".097" stop-color="#ffcd63"/>
            <stop offset=".15" stop-color="#fbc060"/>
            <stop offset=".249" stop-color="#f19d58"/>
            <stop offset=".381" stop-color="#e1674c"/>
            <stop offset=".449" stop-color="#d94846"/>
            <stop offset=".679" stop-color="#b92183"/>
            <stop offset="1" stop-color="#4756a2"/>
        </radialGradient>
    </defs>
    <g>
        <rect data-name="사각형 26343" width="24" height="24" rx="12" style="fill:url(#802s0mrn2a)"/>
        <path data-name="패스 81070" d="M9.687 0H4.314A4.314 4.314 0 0 0 0 4.313v5.373A4.313 4.313 0 0 0 4.314 14h5.373A4.313 4.313 0 0 0 14 9.686V4.313A4.313 4.313 0 0 0 9.687 0m2.97 9.171a3.485 3.485 0 0 1-3.485 3.485H4.829A3.485 3.485 0 0 1 1.343 9.17V4.828a3.486 3.486 0 0 1 3.486-3.485h4.342a3.486 3.486 0 0 1 3.485 3.485z" transform="translate(5 5.001)" style="fill:#fff"/>
        <path data-name="패스 81071" d="M55.452 49.357a3.687 3.687 0 1 0 3.687 3.687 3.687 3.687 0 0 0-3.687-3.687m0 5.906a2.219 2.219 0 1 1 2.218-2.219 2.219 2.219 0 0 1-2.218 2.219" transform="translate(-43.264 -41.02)" style="fill:#fff"/>
        <path data-name="패스 81072" d="M145.087 35.565a.938.938 0 1 1-.938-.938.938.938 0 0 1 .938.938" transform="translate(-128.53 -27.286)" style="fill:#fff"/>
    </g>
</svg>
