<svg xmlns="http://www.w3.org/2000/svg" width="32" height="32" viewBox="0 0 32 32">
    <path style="fill:none" d="M0 0h32v32H0z"/>
    <path data-name="Combined Shape" d="M4.454 19a.208.208 0 0 1-.173-.076.491.491 0 0 1-.018-.415c.1-.39.564-2.007.839-2.973l.115-.406C1.951 13.627 0 11.026 0 8.175 0 3.667 4.934 0 11 0s11 3.667 11 8.175-4.935 8.175-11 8.175a14.882 14.882 0 0 1-2.041-.14c-.41.262-4.017 2.566-4.234 2.7a.535.535 0 0 1-.271.09zM16.563 8.769l1.511 1.938a.311.311 0 0 0 .255.111.928.928 0 0 0 .725-.47.291.291 0 0 0-.019-.325L17.43 8.036l.078-.08a70.93 70.93 0 0 1 1.441-1.428.2.2 0 0 0 .024-.235.98.98 0 0 0-.675-.544.178.178 0 0 0-.126.045l-1.948 1.832c0-.014.016-1.017 0-1.566-.006-.217-.287-.314-.564-.314a.775.775 0 0 0-.534.169.235.235 0 0 0-.072.175c.009.31 0 2.492-.01 3.664v.738c0 .224.305.326.588.326s.589-.1.589-.326V9.03l.345-.26zM8.718 5.747a.668.668 0 0 0-.644.324C7.936 6.357 7.626 7.154 7.3 8l-.03.076-.015.038c-.321.824-.652 1.676-.817 2.033a.365.365 0 0 0 .033.374.77.77 0 0 0 .6.3.43.43 0 0 0 .418-.241l.229-.754h2.1c-.009.013-.044.1.206.722a.453.453 0 0 0 .45.273.76.76 0 0 0 .592-.281.382.382 0 0 0 .047-.381c-.087-.216-.237-.6-.446-1.128v-.009c-.367-.928-1.043-2.648-1.194-2.951a.89.89 0 0 0-.755-.324zm3.464 0a.7.7 0 0 0-.494.18.428.428 0 0 0-.127.315c0 .937.005 3.957.005 3.957a.658.658 0 0 0 .109.463.434.434 0 0 0 .347.138h2.302c.277 0 .4-.278.4-.536s-.127-.542-.406-.542h-1.522V6.248c.004-.348-.316-.504-.614-.504zM3.158 5.57a.469.469 0 0 0-.378.173.6.6 0 0 0-.126.38.511.511 0 0 0 .505.555h1.147V10.365c0 .257.312.391.619.391a.7.7 0 0 0 .485-.158.282.282 0 0 0 .086-.206V6.784h.007a6.874 6.874 0 0 1 1.135-.077.53.53 0 0 0 .534-.567.606.606 0 0 0-.134-.39.5.5 0 0 0-.4-.177zm6.269 3.26H8.1l.691-1.878.639 1.877z" transform="translate(4.999 7)" style="fill:#a5a5a5"/>
</svg>
