<svg id="ico_survey" xmlns="http://www.w3.org/2000/svg" width="64" height="64" viewBox="0 0 64 64">
  <rect id="area" width="64" height="64" fill="none"/>
  <g id="그룹_24925" data-name="그룹 24925" transform="translate(11 9)">
    <path id="패스_37051" data-name="패스 37051" d="M9,4.286H4.941A4.263,4.263,0,0,0,.75,8.594V39.978a4.263,4.263,0,0,0,4.191,4.308H18.72" transform="translate(-0.75 -1.286)" fill="none" stroke="#000" stroke-linecap="round" stroke-linejoin="round" stroke-width="1.5"/>
    <path id="패스_37052" data-name="패스 37052" d="M34.75,23.161V8.594a4.263,4.263,0,0,0-4.191-4.308H26.5" transform="translate(-1.5 -1.286)" fill="none" stroke="#000" stroke-linecap="round" stroke-linejoin="round" stroke-width="1.5"/>
    <line id="선_1600" data-name="선 1600" x2="8" transform="translate(16 14)" fill="none" stroke="#000" stroke-linecap="round" stroke-linejoin="round" stroke-width="1.5"/>
    <path id="패스_37054" data-name="패스 37054" d="M8.248,14.445,9.42,15.621l2.328-2.333" transform="translate(0.752 -0.288)" fill="none" stroke="#000" stroke-linecap="round" stroke-linejoin="round" stroke-width="1.5"/>
    <path id="패스_37058" data-name="패스 37058" d="M8.248,14.445,9.42,15.621l2.328-2.333" transform="translate(0.752 6.212)" fill="none" stroke="#000" stroke-linecap="round" stroke-linejoin="round" stroke-width="1.5"/>
    <line id="선_1601" data-name="선 1601" x2="8" transform="translate(16 21)" fill="none" stroke="#000" stroke-linecap="round" stroke-linejoin="round" stroke-width="1.5"/>
    <rect id="사각형_26331" data-name="사각형 26331" width="15" height="6" rx="2" transform="translate(9)" fill="none" stroke="#070203" stroke-linecap="round" stroke-linejoin="round" stroke-width="1.5"/>
    <g id="그룹_24806" data-name="그룹 24806" transform="translate(20 25)">
      <circle id="Oval" cx="11" cy="11" r="11" fill="#366cc3"/>
      <path id="패스_37057" data-name="패스 37057" d="M25.31,32.514l-1.563.258a.747.747,0,0,1-.893-.893l.258-1.563a1.128,1.128,0,0,1,.319-.6l4.594-4.594a.929.929,0,0,1,1.3-.119L30.627,26.3a.929.929,0,0,1-.119,1.3L25.914,32.2a1.129,1.129,0,0,1-.6.319" transform="translate(-15.825 -17.785)" fill="#fff"/>
    </g>
    <path id="패스_37061" data-name="패스 37061" d="M.75,39.978a4.263,4.263,0,0,0,4.191,4.308H17.72" transform="translate(-0.75 -5.286)" fill="none" stroke="#000" stroke-linecap="round" stroke-linejoin="round" stroke-width="1.5"/>
  </g>
</svg>
