<svg xmlns="http://www.w3.org/2000/svg" width="24" height="24" viewBox="0 0 24 24">
    <g transform="translate(-.384)">
        <circle data-name="타원 1736" cx="12" cy="12" r="12" transform="translate(.384)" style="fill:#fae100"/>
        <path data-name="Combined Shape" d="M3.24 14a.151.151 0 0 1-.125-.055.365.365 0 0 1-.013-.308c.087-.329.506-1.822.686-2.46v-.006l.007-.024C1.419 10.041 0 8.125 0 6.024 0 2.7 3.589 0 8 0s8 2.7 8 6.024-3.589 6.024-8 6.024a10.576 10.576 0 0 1-1.485-.1l-.232.151-2.847 1.837A.384.384 0 0 1 3.24 14zM2.366 4a.342.342 0 0 0-.275.124A.429.429 0 0 0 2 4.4a.368.368 0 0 0 .367.4H3.2v2.644c0 .184.228.28.451.28.2 0 .415-.082.415-.261V4.877h.007a5.052 5.052 0 0 1 .81-.054H4.9a.383.383 0 0 0 .389-.407A.382.382 0 0 0 4.9 4zm9.75 2.166 1.1 1.389a.227.227 0 0 0 .185.079.673.673 0 0 0 .529-.339.205.205 0 0 0-.015-.23l-1.168-1.424.077-.078a45.56 45.56 0 0 1 1.027-1 .143.143 0 0 0 .018-.167.706.706 0 0 0-.491-.396.131.131 0 0 0-.092.032l-1.417 1.315c0-.009.012-.722 0-1.122 0-.155-.216-.225-.41-.225a.567.567 0 0 0-.39.122.167.167 0 0 0-.051.124c.007.222 0 1.788-.007 2.63v.525c0 .16.222.233.427.233a.558.558 0 0 0 .377-.115.164.164 0 0 0 .052-.119V6.353l.252-.187zm-6.432.754H7.21c-.006.009-.033.071.149.517a.331.331 0 0 0 .328.2.554.554 0 0 0 .43-.2.269.269 0 0 0 .034-.273 209.87 209.87 0 0 1-.324-.807V6.35l-.017-.043c-.316-.79-.748-1.872-.85-2.075A.653.653 0 0 0 6.411 4a.488.488 0 0 0-.468.232c-.1.2-.32.758-.553 1.348l-.035.088a47.174 47.174 0 0 1-.6 1.483.261.261 0 0 0 .024.269.566.566 0 0 0 .439.212.314.314 0 0 0 .3-.173l.166-.539zM8.93 4a.516.516 0 0 0-.361.131.3.3 0 0 0-.091.224v2.836a.46.46 0 0 0 .078.33.318.318 0 0 0 .254.1H10.485a.257.257 0 0 0 .219-.12.476.476 0 0 0 .073-.264c0-.187-.092-.388-.3-.388H9.37V4.36c.01-.25-.224-.36-.44-.36zm-2 2.209h-.971l.5-1.345.464 1.344z" transform="translate(4.384 5)" style="fill:#3c1e1e"/>
    </g>
</svg>
