<svg xmlns="http://www.w3.org/2000/svg" width="24" height="24" viewBox="0 0 24 24">
    <path style="fill:none" d="M0 0h24v24H0z"/>
    <g transform="translate(2 -8.334)">
        <rect width="20" height="20" rx="10" transform="translate(0 10.334)" style="fill:#ccc"/>
        <path data-name="패스 36982" d="M-.918-4.578A1.809 1.809 0 0 1 .962-6.5a1.448 1.448 0 0 1 1.566 1.379v.19c0 .746-.613 1.4-1.567 1.831A2.067 2.067 0 0 0-.237-.876v.909h1.662v-.881a1.449 1.449 0 0 1 .981-1.316 3.138 3.138 0 0 0 2.016-2.713v-.285C4.422-6.6 3.128-8.01.962-8.01A3.228 3.228 0 0 0-2.58-4.823zm.572 7.568h1.839v-1.8H-.346z" transform="translate(9.58 23.344)" style="fill:#fff"/>
    </g>
</svg>
