<svg xmlns="http://www.w3.org/2000/svg" width="64" height="64" viewBox="0 0 64 64">
    <path style="fill:none" d="M0 0h64v64H0z"/>
    <g data-name="그룹 8721">
        <path data-name="패스 37008" d="M341.591 642.911h-12.732a3.209 3.209 0 0 1-3.206-3.214v-31.572a3.209 3.209 0 0 1 3.206-3.214h25.589a3.209 3.209 0 0 1 3.206 3.214v9.84" transform="translate(-309.654 -592.911)" style="stroke:#000;stroke-linecap:round;stroke-width:1.5px;fill:none"/>
        <path data-name="선 810" transform="translate(23 21)" style="stroke:#000;stroke-linecap:round;stroke-width:1.5px;fill:none" d="M0 0h15.973"/>
        <path data-name="선 1573" transform="translate(23 26)" style="stroke:#000;stroke-linecap:round;stroke-width:1.5px;fill:none" d="M0 0h9.5"/>
        <path data-name="패스 37011" d="M341.591 642.911h-12.732a3.209 3.209 0 0 1-3.206-3.214" transform="translate(-309.654 -597.911)" style="stroke:#000;stroke-linecap:round;stroke-width:1.5px;fill:none"/>
    </g>
    <g data-name="그룹 24860">
        <path data-name="패스 9975" d="M25.075 13.994v10l-6-2.681-6 2.681v-10" transform="translate(22.925 30.006)" style="stroke-linejoin:round;fill:#fff;stroke:#000;stroke-linecap:round;stroke-width:1.5px"/>
        <path data-name="패스 9976" d="M20.316 21a10 10 0 1 1 10-10 10.01 10.01 0 0 1-10 10" transform="translate(21.684 26)" style="fill:#366cc3"/>
        <path data-name="패스 37003" d="M13.316 7a3 3 0 1 1 3-3 3 3 0 0 1-3 3" transform="translate(28.684 33)" style="fill:#fff"/>
    </g>
</svg>
