<svg xmlns="http://www.w3.org/2000/svg" width="16" height="16" viewBox="0 0 16 16">
    <path style="fill:none" d="M0 0h16v16H0z"/>
    <g transform="translate(1 1)">
        <circle cx="7" cy="7" r="7" style="fill:#ccc"/>
        <path data-name="ic" d="M4.154 5.541 2.331 3.7.509 5.541a.452.452 0 0 1-.64-.041.461.461 0 0 1-.041-.644l1.823-1.844-1.824-1.844A.463.463 0 0 1-.131.523a.452.452 0 0 1 .64-.042l1.822 1.843L4.154.481a.452.452 0 0 1 .639.041.463.463 0 0 1 .042.645L3.012 3.012l1.823 1.843a.46.46 0 0 1-.042.644.508.508 0 0 1-.357.156.389.389 0 0 1-.282-.114z" transform="translate(4.498 3.817)" style="fill:#fff"/>
    </g>
</svg>
