<svg xmlns="http://www.w3.org/2000/svg" width="24" height="24" viewBox="0 0 24 24">
    <path style="fill:none" d="M0 0h24v24H0z"/>
    <g data-name="사각형 24928" transform="translate(7 5)" style="stroke:#333;fill:none">
        <rect width="10" height="5" rx="1" style="stroke:none"/>
        <rect x=".5" y=".5" width="9" height="4" rx=".5" style="fill:none"/>
    </g>
    <path data-name="빼기 2" d="M18929 13777h-2a1 1 0 0 1-1-1v-6a1 1 0 0 1 1-1h14a1 1 0 0 1 1 1v6a1 1 0 0 1-1 1h-2v-1h2v-6h-14v6h2v1z" transform="translate(-18922 -13760.002)" style="fill:#333"/>
    <g data-name="사각형 24930" transform="translate(7 14)" style="fill:#fff;stroke:#333">
        <rect width="10" height="5" rx="1" style="stroke:none"/>
        <rect x=".5" y=".5" width="9" height="4" rx=".5" style="fill:none"/>
    </g>
    <path data-name="사각형 24931" transform="translate(9 16)" style="fill:#333" d="M0 0h6v1H0z"/>
    <path data-name="사각형 24932" transform="translate(15 11)" style="fill:#333" d="M0 0h2v2H0z"/>
</svg>
