<svg xmlns="http://www.w3.org/2000/svg" width="103.118" height="70.289" viewBox="0 0 103.118 70.289">
    <path d="M6352.643 11147.293a1.823 1.823 0 1 1 1.824 1.824 1.825 1.825 0 0 1-1.824-1.824zm-16.408 0a1.823 1.823 0 1 1 1.818 1.824 1.823 1.823 0 0 1-1.819-1.824zm-16.415 0a1.825 1.825 0 1 1 1.825 1.824 1.825 1.825 0 0 1-1.826-1.824zm-16.412 0a1.825 1.825 0 1 1 1.826 1.824 1.828 1.828 0 0 1-1.826-1.824zm-16.408 0a1.823 1.823 0 1 1 1.822 1.824 1.824 1.824 0 0 1-1.822-1.824zm65.643-16.414a1.823 1.823 0 1 1 1.824 1.824 1.823 1.823 0 0 1-1.824-1.824zm-16.408 0a1.823 1.823 0 1 1 1.818 1.824 1.821 1.821 0 0 1-1.819-1.824zm-16.415 0a1.825 1.825 0 1 1 1.825 1.824 1.823 1.823 0 0 1-1.826-1.824zm-16.412 0a1.825 1.825 0 1 1 1.826 1.824 1.826 1.826 0 0 1-1.826-1.824zm-16.408 0a1.823 1.823 0 1 1 1.822 1.824 1.822 1.822 0 0 1-1.822-1.824zm65.643-16.408a1.823 1.823 0 1 1 1.824 1.822 1.823 1.823 0 0 1-1.824-1.822zm-16.408 0a1.823 1.823 0 1 1 1.818 1.822 1.821 1.821 0 0 1-1.819-1.822zm-16.415 0a1.825 1.825 0 1 1 1.825 1.822 1.823 1.823 0 0 1-1.826-1.822zm-16.412 0a1.825 1.825 0 1 1 1.826 1.822 1.826 1.826 0 0 1-1.826-1.822zm-16.408 0a1.823 1.823 0 1 1 1.822 1.822 1.822 1.822 0 0 1-1.822-1.822zm65.643-16.411a1.823 1.823 0 1 1 1.824 1.82 1.824 1.824 0 0 1-1.824-1.82zm-16.408 0a1.823 1.823 0 1 1 1.818 1.82 1.822 1.822 0 0 1-1.819-1.82zm-16.415 0a1.825 1.825 0 1 1 1.825 1.82 1.824 1.824 0 0 1-1.826-1.82zm-16.412 0a1.825 1.825 0 1 1 1.826 1.82 1.827 1.827 0 0 1-1.826-1.82zm-16.408 0a1.823 1.823 0 1 1 1.822 1.82 1.822 1.822 0 0 1-1.822-1.82zm65.643-16.411a1.823 1.823 0 1 1 1.824 1.82 1.82 1.82 0 0 1-1.824-1.821zm-16.408 0a1.823 1.823 0 1 1 1.818 1.82 1.818 1.818 0 0 1-1.819-1.821zm-16.415 0a1.825 1.825 0 1 1 1.825 1.82 1.821 1.821 0 0 1-1.826-1.821zm-16.412 0a1.825 1.825 0 1 1 1.826 1.82 1.823 1.823 0 0 1-1.826-1.821zm-16.408 0a1.823 1.823 0 1 1 1.822 1.82 1.819 1.819 0 0 1-1.822-1.821zm65.643-16.414a1.823 1.823 0 1 1 1.824 1.824 1.823 1.823 0 0 1-1.824-1.825zm-16.408 0a1.823 1.823 0 1 1 1.818 1.824 1.821 1.821 0 0 1-1.819-1.825zm-16.415 0a1.825 1.825 0 1 1 1.825 1.824 1.823 1.823 0 0 1-1.826-1.825zm-16.412 0a1.825 1.825 0 1 1 1.826 1.824 1.826 1.826 0 0 1-1.826-1.825zm-16.408 0a1.823 1.823 0 1 1 1.822 1.824 1.822 1.822 0 0 1-1.822-1.825zm65.643-16.41a1.823 1.823 0 1 1 1.824 1.824 1.824 1.824 0 0 1-1.824-1.825zm-16.408 0a1.823 1.823 0 1 1 1.818 1.824 1.822 1.822 0 0 1-1.819-1.825zm-16.415 0a1.825 1.825 0 1 1 1.825 1.824 1.824 1.824 0 0 1-1.826-1.825zm-16.412 0a1.825 1.825 0 1 1 1.826 1.824 1.827 1.827 0 0 1-1.826-1.825zm-16.408 0a1.823 1.823 0 1 1 1.822 1.824 1.822 1.822 0 0 1-1.822-1.825z" transform="rotate(90 8718.059 2431.559)" style="fill:#fff;stroke:transparent;stroke-miterlimit:10;opacity:.3"/>
</svg>
