<svg xmlns="http://www.w3.org/2000/svg" width="64" height="64" viewBox="0 0 64 64">
    <path style="fill:none" d="M0 0h64v64H0z"/>
    <g data-name="그룹 24863">
        <path data-name="패스 37012" d="M42.8 14.714a8.7 8.7 0 0 0-4.59-1.451 14.04 14.04 0 0 0-27.91 3.055q.068.615.188 1.221H7.349a6.6 6.6 0 0 0 0 13.2H35.91" transform="translate(4 11.255)" style="stroke-linecap:round;stroke-width:1.5px;stroke:#070203;fill:none"/>
        <path data-name="패스 37005" d="M626.99 831.187a5.829 5.829 0 0 0-2.714.68 5.707 5.707 0 0 0-3.035 5.068" transform="translate(-600.685 -812.646)" style="stroke-linejoin:round;stroke:#000;stroke-linecap:round;stroke-width:1.5px;fill:none"/>
    </g>
    <path data-name="제외 1" d="m11 24-1.218-.56A15.143 15.143 0 0 1 3.4 18.5a14.325 14.325 0 0 1-2.8-7.406L0 3.733A1.35 1.35 0 0 1 1.053 2.4L11 0l9.946 2.4A1.351 1.351 0 0 1 22 3.733l-.6 7.36a14.33 14.33 0 0 1-2.8 7.407 15.144 15.144 0 0 1-6.381 4.94L11 24z" style="fill:#366cc3" transform="translate(42 28)"/>
    <path data-name="패스 542" d="m9 10.983 1.983 1.983L14.95 9" transform="translate(40.962 27.869)" style="stroke:#fff;stroke-linejoin:round;stroke-linecap:round;stroke-width:1.5px;fill:none"/>
</svg>
