<svg xmlns="http://www.w3.org/2000/svg" width="32" height="32" viewBox="0 0 32 32">
    <path style="fill:transparent" d="M0 0h32v32H0z"/>
    <path d="M5.96 15.829c7.172 0 11.094-6.091 11.094-11.37 0-.174 0-.348-.008-.514a8.1 8.1 0 0 0 1.949-2.072 7.765 7.765 0 0 1-2.24.63A3.978 3.978 0 0 0 18.469.29a7.781 7.781 0 0 1-2.474.97A3.837 3.837 0 0 0 13.148 0a3.949 3.949 0 0 0-3.9 3.994 3.749 3.749 0 0 0 .105.912A10.975 10.975 0 0 1 1.318.729a4.085 4.085 0 0 0-.526 2.006 4 4 0 0 0 1.739 3.323 3.76 3.76 0 0 1-1.763-.5v.05A3.977 3.977 0 0 0 3.9 9.53a3.8 3.8 0 0 1-1.027.141 3.635 3.635 0 0 1-.738-.071 3.907 3.907 0 0 0 3.639 2.776A7.718 7.718 0 0 1 .93 14.08a6.921 6.921 0 0 1-.93-.058 10.674 10.674 0 0 0 5.96 1.807" style="fill:#a5a5a5" transform="translate(7 8)"/>
</svg>
