<svg xmlns="http://www.w3.org/2000/svg" width="64" height="64" viewBox="0 0 64 64">
    <path style="fill:none" d="M0 0h64v64H0z"/>
    <path data-name="패스 19368" d="M35.5 19.375V5.808A4.263 4.263 0 0 0 31.309 1.5H5.691A4.263 4.263 0 0 0 1.5 5.808v33.384A4.263 4.263 0 0 0 5.691 43.5H24.47" transform="translate(7.5 8.5)" style="stroke:#000;stroke-linecap:round;stroke-linejoin:round;stroke-width:1.5px;fill:none"/>
    <path data-name="선 96" transform="translate(17.498 23.002)" style="stroke:#000;stroke-linecap:round;stroke-linejoin:round;stroke-width:1.5px;fill:none" d="M0 0h16"/>
    <path data-name="선 95" transform="translate(17.498 39.002)" style="stroke:#000;stroke-linecap:round;stroke-linejoin:round;stroke-width:1.5px;fill:none" d="M0 0h8"/>
    <path data-name="선 1567" transform="translate(17.498 31.002)" style="stroke:#000;stroke-linecap:round;stroke-linejoin:round;stroke-width:1.5px;fill:none" d="M0 0h16"/>
    <g data-name="그룹 24806" transform="translate(4.971 3.64)">
        <circle cx="11" cy="11" r="11" transform="translate(28.029 28.359)" style="fill:#ccc"/>
        <path data-name="합치기 2" d="M-14541.972-1251.14a1 1 0 0 1 1-1 1 1 0 0 1 1 1 1 1 0 0 1-1 1 1 1 0 0 1-1-1zm0-3v-7a1 1 0 0 1 1-1 1 1 0 0 1 1 1v7a1 1 0 0 1-1 1 1 1 0 0 1-1-1z" transform="translate(14580 1295.499)" style="fill:#fff"/>
    </g>
</svg>
