<svg xmlns="http://www.w3.org/2000/svg" xmlns:xlink="http://www.w3.org/1999/xlink" width="384" height="160" viewBox="0 0 384 160">
  <defs>
    <clipPath id="clip-path">
      <rect id="small_w384_" data-name="small (w384)" width="384" height="160" rx="8" transform="translate(768 651)" fill="#f4f7fc"/>
    </clipPath>
  </defs>
  <g id="img_survey" transform="translate(-768 -651)" clip-path="url(#clip-path)">
    <g id="그룹_24943" data-name="그룹 24943" transform="translate(728 651.324)">
      <path id="패스_37064" data-name="패스 37064" d="M99.477,51.533c10.51-24.4,37.886-13.486,50.825-23.627,9.2-7.21,10.141-18.185,20.982-24.831C186.091-6,205.992,6.346,202.409,22.659a48.107,48.107,0,0,1-4.162,11.195c4.228,7.687,6.534,21.907-2.69,29.593,2.112,20.691-20.363,33.223-56.111,36.511-33.435,3.074-49.76-25.693-39.969-48.424" transform="translate(-96.661 0)" fill="#001240"/>
      <path id="패스_37065" data-name="패스 37065" d="M46.061,107.063s4.332-11.913,8.663-23.1c5.054,1.8,8.3,3.144,8.3,3.144a500.374,500.374,0,0,0,14.8-48.268,99.967,99.967,0,0,1,3.248-23.1c1.449-5.432,2.954-9.155,4.334-8.467,1.231.612-.492,11.744-.492,11.744,2-1.256,3.182-.94,3.5,1.27,1.333-.915,2.247-.675,2.761,1.375,2.024-1.982,3.257.577,2.173,6.351a33.15,33.15,0,0,1-4.693,12.635S86.483,73.989,82.521,91.18c-2.783,12.077-6.549,23.1-14.44,23.1-4.332,0-16.244-4.332-22.02-7.221" transform="translate(97.985 4.964)" fill="#ffd3d1"/>
      <path id="패스_37066" data-name="패스 37066" d="M50.91,21.052a32.85,32.85,0,0,1,1.615-3.159,13.3,13.3,0,0,1,.989-1.464c.362-.426.8-.949,1.329-.95.543.12.536.891.534,1.431a14.323,14.323,0,0,1-.183,1.757c-.191,1.167-.451,2.323-.754,3.467l.081.024a14.6,14.6,0,0,0,1.321-3.384,8.8,8.8,0,0,0,.3-1.843A4.778,4.778,0,0,0,56.1,15.87a1.481,1.481,0,0,0-1.138-1.229,1.514,1.514,0,0,0-.849.172,1.843,1.843,0,0,0-.519.364,4.668,4.668,0,0,0-.687.773,8.409,8.409,0,0,0-.954,1.612,13.97,13.97,0,0,0-1.125,3.456Z" transform="translate(127.513 10.115)" fill="#ed7d7c"/>
      <path id="패스_37067" data-name="패스 37067" d="M136.36,35.448c12.273,2.166,34.654,13,61.793,27.075,0,0-4.194,10.746-11.616,29.89l-24.187-8.655s-2.121,39.654-.722,52.323H78.713l-5.166-34.573-7.219-1.444A185.876,185.876,0,0,1,87.264,57.108c13.819-20.551,30.323-19.856,30.323-19.856Z" transform="translate(-40.687 24.494)" fill="#ffcf7c"/>
      <path id="패스_37068" data-name="패스 37068" d="M75.934,74.3,99.4,77.91s-1.463,7.716-2.888,13.356c25.991-.36,48.612,5.966,58.119,4.332,23.1-3.971,34.764,2.438,34.987,3.394s-.533,1.363-3.225.364a19.868,19.868,0,0,0-4.234-1.17s5.224,1.677,6.062,3.744c1.872,4.593-.484,5.667-3.066,1.18-1.165-2.021-4.885-2.54-6.034-2.711,0,0,4.791,2.389,5.591,4.493,1.1,2.905-1.485,2.486-3.265.619a29.058,29.058,0,0,0-3.749-2.537s2.836,2.07,3.294,3.828-.9,1.869-3.382-.514c-1.158-1.111-2.286-.58-3.923-1.1s-6.7.074-8.579,1.018a24.806,24.806,0,0,1-10.258,2.121c-4.821.078-34.03.812-70.612.812-10.949,0-14.8-3.068-8.3-34.835" transform="translate(-43.072 51.342)" fill="#ffd3d1"/>
      <path id="패스_37069" data-name="패스 37069" d="M123.069,32.371l.03.866L124.293,48.3c-3.431,8.9-18.777,8.365-22.144.967l-.186-31.357Z" transform="translate(-27.087 12.379)" fill="#ffd3d1"/>
      <path id="패스_37070" data-name="패스 37070" d="M102.312,25.2s5.142,8.983,13.986,9.4l-.494-6.4Z" transform="translate(-19.682 17.411)" fill="#eea8a7"/>
      <path id="패스_37071" data-name="패스 37071" d="M102.57,19.86c-.037-.171,11.1-1.2,13.457-13.437a21.874,21.874,0,0,0,14.991,7.27c1.583,8.445,1.163,18.982-2.672,23.965-6.394,8.306-21.929,5.563-25.323-10.374,0,0-3.424,1.716-5.163-2.66-1.1-2.783,1.211-6.813,4.709-4.764" transform="translate(-27.271 4.438)" fill="#ffd3d1"/>
      <path id="패스_37072" data-name="패스 37072" d="M100.991,17.606a3.426,3.426,0,0,1,.472.1c-.066,1.113-.057,2.205-.208,3.225a5.135,5.135,0,0,1-.61-.044c-1.757-.184-3.1-1.069-3.008-1.975s1.6-1.49,3.355-1.305" transform="translate(3.069 12.142)" fill="#eea8a7"/>
      <path id="패스_37073" data-name="패스 37073" d="M106.98,19.176c-.076.908,1.29,1.764,3.051,1.911s3.252-.468,3.328-1.376-1.29-1.764-3.052-1.911-3.25.468-3.326,1.376" transform="translate(-24.635 12.284)" fill="#eea8a7"/>
      <path id="패스_37074" data-name="패스 37074" d="M99.462,16.375a1.052,1.052,0,1,0,1.157-.935,1.052,1.052,0,0,0-1.157.935" transform="translate(-0.115 10.664)"/>
      <path id="패스_37075" data-name="패스 37075" d="M106.174,16.522a1.052,1.052,0,1,0,1.157-.935,1.054,1.054,0,0,0-1.157.935" transform="translate(-18.177 10.766)"/>
      <path id="패스_37076" data-name="패스 37076" d="M108.078,20.827a2.236,2.236,0,0,1-.967,1.965,4,4,0,0,1-2.136.717,3.745,3.745,0,0,1-2.153-.81,2.148,2.148,0,0,1-.771-2.071l.117-.046a2.874,2.874,0,0,0,2.817,1.686,3.284,3.284,0,0,0,2.983-1.5Z" transform="translate(-10.948 14.222)" fill="#e88c8c"/>
      <path id="패스_37077" data-name="패스 37077" d="M102.815,16.419a10.553,10.553,0,0,0,1.348,3.869l.049.09-.076.054-2.227,1.584-.074-.1a4.8,4.8,0,0,1,.712-1.338,4.555,4.555,0,0,1,.923-1.052l-.26,1.353a4.862,4.862,0,0,1-.617-1c-.122-.364-.227-.731-.313-1.1a3.8,3.8,0,0,1-.01-1.175,2.773,2.773,0,0,1,.423-1.17Z" transform="translate(-6.787 11.345)" fill="#e88c8c"/>
      <path id="패스_37078" data-name="패스 37078" d="M96.763,17.371a5.011,5.011,0,1,0,5.582-4.366A5.01,5.01,0,0,0,96.763,17.371Z" transform="translate(-0.684 8.96)" fill="none" stroke="#001240" stroke-miterlimit="10" stroke-width="0.25"/>
      <path id="패스_37079" data-name="패스 37079" d="M104.55,17.531a5.011,5.011,0,1,0,5.582-4.366A5.01,5.01,0,0,0,104.55,17.531Z" transform="translate(-21.639 9.071)" fill="none" stroke="#001240" stroke-miterlimit="10" stroke-width="0.25"/>
      <line id="선_1602" data-name="선 1602" x1="4.388" y2="0.191" transform="translate(92.175 24.634)" fill="none" stroke="#001240" stroke-miterlimit="10" stroke-width="0.25"/>
      <path id="패스_37080" data-name="패스 37080" d="M26.274,97.721H134.293l1.49-6.759H26.274a3.38,3.38,0,1,0,0,6.759" transform="translate(95.13 62.855)" fill="#7780ac"/>
      <path id="패스_37081" data-name="패스 37081" d="M10.985,117.637H91.4a5.961,5.961,0,0,0,5.6-3.928l16.364-45.094c1.579-3.365.566-5.709-1.877-6.473H34.349c-1.373,0-3.333,1.642-4.126,3.123Z" transform="translate(136.921 42.94)" fill="#a6b6e6"/>
      <path id="패스_37082" data-name="패스 37082" d="M36.15,78.527a4.083,4.083,0,1,0,4.906-3.377,4.214,4.214,0,0,0-4.906,3.377" transform="translate(164.46 51.868)" fill="#fff"/>
    </g>
    <path id="빼기_8" data-name="빼기 8" d="M-242,80.135v-24.1A5.039,5.039,0,0,1-236.966,51h27.932A5.039,5.039,0,0,1-204,56.034V68.9a5.038,5.038,0,0,1-5.034,5.032h-27.526L-242,80.133Zm26.5-19a1.5,1.5,0,0,0-1.5,1.5,1.5,1.5,0,0,0,1.5,1.5,1.5,1.5,0,0,0,1.5-1.5A1.5,1.5,0,0,0-215.5,61.135Zm-7,0a1.5,1.5,0,0,0-1.5,1.5,1.5,1.5,0,0,0,1.5,1.5,1.5,1.5,0,0,0,1.5-1.5A1.5,1.5,0,0,0-222.5,61.135Zm-7,0a1.5,1.5,0,0,0-1.5,1.5,1.5,1.5,0,0,0,1.5,1.5,1.5,1.5,0,0,0,1.5-1.5A1.5,1.5,0,0,0-229.5,61.135Z" transform="translate(1250 637.865)" fill="#a6b6e6" stroke="rgba(0,0,0,0)" stroke-miterlimit="10" stroke-width="1" opacity="0.5"/>
    <g id="그룹_24946" data-name="그룹 24946" transform="translate(-6 10)">
      <path id="패스_37089" data-name="패스 37089" d="M45.979,0H7.021A7.021,7.021,0,0,0,0,7.021V24.96a7.02,7.02,0,0,0,7.021,7.018H45.414L53,40.635V7.021A7.021,7.021,0,0,0,45.979,0" transform="translate(953 690.977)" fill="#fff"/>
      <circle id="타원_1732" data-name="타원 1732" cx="2" cy="2" r="2" transform="translate(967 706)" fill="#a6b6e6"/>
      <circle id="타원_1733" data-name="타원 1733" cx="2" cy="2" r="2" transform="translate(977 706)" fill="#a6b6e6"/>
      <circle id="타원_1734" data-name="타원 1734" cx="2" cy="2" r="2" transform="translate(987 706)" fill="#a6b6e6"/>
    </g>
  </g>
</svg>
