<svg xmlns="http://www.w3.org/2000/svg" width="240" height="120" viewBox="0 0 240 120">
    <defs>
        <clipPath id="xwad63v1da">
            <path d="M0 0h192a48 48 0 0 1 48 48v72H0V0z" transform="translate(360 186)" style="fill:#366cc3"/>
        </clipPath>
    </defs>
    <g transform="translate(-360 -186)" style="clip-path:url(#xwad63v1da)">
        <g data-name="타원 74" transform="translate(286 104.5)" style="stroke:#fff;stroke-width:32px;opacity:.1;fill:none">
            <circle cx="74.5" cy="74.5" r="74.5" style="stroke:none"/>
            <circle cx="74.5" cy="74.5" r="58.5" style="fill:none"/>
        </g>
        <path data-name="pattern" d="M6352.643 11147.292a1.823 1.823 0 1 1 1.825 1.824 1.823 1.823 0 0 1-1.825-1.824zm-16.408 0a1.823 1.823 0 1 1 1.819 1.824 1.822 1.822 0 0 1-1.819-1.824zm-16.416 0a1.824 1.824 0 1 1 1.824 1.824 1.825 1.825 0 0 1-1.824-1.824zm-16.411 0a1.824 1.824 0 1 1 1.827 1.824 1.827 1.827 0 0 1-1.827-1.824zm-16.408 0a1.823 1.823 0 1 1 1.821 1.824 1.822 1.822 0 0 1-1.821-1.824zm65.642-16.413a1.823 1.823 0 1 1 1.825 1.824 1.822 1.822 0 0 1-1.824-1.824zm-16.408 0a1.823 1.823 0 1 1 1.819 1.824 1.821 1.821 0 0 1-1.818-1.824zm-16.416 0a1.824 1.824 0 1 1 1.824 1.824 1.823 1.823 0 0 1-1.823-1.824zm-16.411 0a1.824 1.824 0 1 1 1.827 1.824 1.826 1.826 0 0 1-1.826-1.824zm-16.408 0a1.823 1.823 0 1 1 1.821 1.824 1.821 1.821 0 0 1-1.82-1.824zm65.642-16.408a1.823 1.823 0 1 1 1.825 1.824 1.823 1.823 0 0 1-1.823-1.824zm-16.408 0a1.823 1.823 0 1 1 1.819 1.824 1.822 1.822 0 0 1-1.817-1.824zm-16.416 0a1.824 1.824 0 1 1 1.824 1.824 1.825 1.825 0 0 1-1.822-1.824zm-16.411 0a1.824 1.824 0 1 1 1.827 1.824 1.827 1.827 0 0 1-1.825-1.824zm-16.408 0a1.823 1.823 0 1 1 1.821 1.824 1.822 1.822 0 0 1-1.819-1.824zm65.642-16.413a1.823 1.823 0 1 1 1.825 1.824 1.82 1.82 0 0 1-1.822-1.824zm-16.408 0a1.823 1.823 0 1 1 1.819 1.824 1.819 1.819 0 0 1-1.816-1.824zm-16.416 0a1.824 1.824 0 1 1 1.824 1.824 1.822 1.822 0 0 1-1.821-1.824zm-16.411 0a1.824 1.824 0 1 1 1.827 1.824 1.824 1.824 0 0 1-1.824-1.824zm-16.408 0a1.823 1.823 0 1 1 1.821 1.824 1.819 1.819 0 0 1-1.818-1.824zm65.642-16.408a1.823 1.823 0 1 1 1.825 1.819 1.821 1.821 0 0 1-1.821-1.82zm-16.408 0a1.823 1.823 0 1 1 1.819 1.819 1.82 1.82 0 0 1-1.815-1.82zm-16.416 0a1.824 1.824 0 1 1 1.824 1.819 1.823 1.823 0 0 1-1.82-1.82zm-16.411 0a1.824 1.824 0 1 1 1.827 1.819 1.825 1.825 0 0 1-1.823-1.82zm-16.408 0a1.823 1.823 0 1 1 1.821 1.819 1.82 1.82 0 0 1-1.817-1.82zm65.642-16.413a1.823 1.823 0 1 1 1.825 1.821 1.823 1.823 0 0 1-1.82-1.822zm-16.408 0a1.823 1.823 0 1 1 1.819 1.821 1.821 1.821 0 0 1-1.814-1.822zm-16.416 0a1.824 1.824 0 1 1 1.824 1.821 1.824 1.824 0 0 1-1.819-1.822zm-16.411 0a1.824 1.824 0 1 1 1.827 1.821 1.827 1.827 0 0 1-1.822-1.822zm-16.408 0a1.823 1.823 0 1 1 1.821 1.821 1.822 1.822 0 0 1-1.816-1.822zm65.642-16.411a1.823 1.823 0 1 1 1.825 1.825 1.821 1.821 0 0 1-1.819-1.826zm-16.408 0a1.823 1.823 0 1 1 1.819 1.825 1.82 1.82 0 0 1-1.813-1.826zm-16.416 0a1.824 1.824 0 1 1 1.824 1.825 1.823 1.823 0 0 1-1.818-1.826zm-16.411 0a1.824 1.824 0 1 1 1.827 1.825 1.825 1.825 0 0 1-1.821-1.826zm-16.408 0a1.823 1.823 0 1 1 1.821 1.825 1.82 1.82 0 0 1-1.815-1.826z" transform="translate(-5744.361 -10774)" style="fill:#fff;stroke:transparent;stroke-miterlimit:10;opacity:.3"/>
    </g>
</svg>
