<svg xmlns="http://www.w3.org/2000/svg" width="110" height="153.997" viewBox="0 0 110 153.997">
  <g id="합치기_8" data-name="합치기 8" transform="translate(-2941.226 -2697.775)" fill="#fff">
    <path d="M 3043.225830078125 2851.271484375 L 2949.226318359375 2851.271484375 C 2945.090576171875 2851.271484375 2941.72607421875 2847.906982421875 2941.72607421875 2843.771484375 L 2941.72607421875 2715.771728515625 C 2941.72607421875 2711.635986328125 2945.090576171875 2708.271484375 2949.226318359375 2708.271484375 L 3027.870361328125 2708.271484375 L 3028.1474609375 2708.271484375 L 3028.29443359375 2708.036376953125 L 3033.954345703125 2698.979736328125 C 3034.230224609375 2698.538330078125 3034.7060546875 2698.274658203125 3035.2265625 2698.274658203125 C 3035.7470703125 2698.274658203125 3036.222412109375 2698.538330078125 3036.498291015625 2698.979736328125 L 3042.15869140625 2708.036376953125 L 3042.3056640625 2708.271484375 L 3042.582763671875 2708.271484375 L 3043.225830078125 2708.271484375 C 3047.361572265625 2708.271484375 3050.72607421875 2711.635986328125 3050.72607421875 2715.771728515625 L 3050.72607421875 2843.771484375 C 3050.72607421875 2847.906982421875 3047.361572265625 2851.271484375 3043.225830078125 2851.271484375 Z" stroke="none"/>
    <path d="M 3043.225830078125 2850.771484375 C 3047.085693359375 2850.771484375 3050.22607421875 2847.63134765625 3050.22607421875 2843.771484375 L 3050.22607421875 2715.771728515625 C 3050.22607421875 2711.911865234375 3047.085693359375 2708.771484375 3043.225830078125 2708.771484375 L 3042.028564453125 2708.771484375 L 3036.07421875 2699.24462890625 C 3035.809326171875 2698.8203125 3035.39306640625 2698.774658203125 3035.2265625 2698.774658203125 C 3035.059814453125 2698.774658203125 3034.6435546875 2698.8203125 3034.378173828125 2699.244873046875 L 3028.424560546875 2708.771484375 L 2949.226318359375 2708.771484375 C 2945.366455078125 2708.771484375 2942.22607421875 2711.911865234375 2942.22607421875 2715.771728515625 L 2942.22607421875 2843.771484375 C 2942.22607421875 2847.63134765625 2945.366455078125 2850.771484375 2949.226318359375 2850.771484375 L 3043.225830078125 2850.771484375 M 3043.225830078125 2851.771484375 L 2949.226318359375 2851.771484375 C 2944.80810546875 2851.771484375 2941.22607421875 2848.189453125 2941.22607421875 2843.771484375 L 2941.22607421875 2715.771728515625 C 2941.22607421875 2711.352783203125 2944.80810546875 2707.771484375 2949.226318359375 2707.771484375 L 3027.870361328125 2707.771484375 L 3033.5302734375 2698.71484375 C 3034.31396484375 2697.46142578125 3036.13916015625 2697.46142578125 3036.92236328125 2698.71484375 L 3042.582763671875 2707.771484375 L 3043.225830078125 2707.771484375 C 3047.644775390625 2707.771484375 3051.22607421875 2711.352783203125 3051.22607421875 2715.771728515625 L 3051.22607421875 2843.771484375 C 3051.22607421875 2848.189453125 3047.644775390625 2851.771484375 3043.225830078125 2851.771484375 Z" stroke="none" fill="#dbdbdb"/>
  </g>
</svg>
