<svg xmlns="http://www.w3.org/2000/svg" width="40" height="40" viewBox="0 0 40 40">
    <defs>
        <clipPath id="axmf3met6a">
            <path data-name="패스 32792" d="M50.547 22.645c-.316.462-4.527 8.1-13.1 7.906-.116 0-.1.111 0 .125a21.278 21.278 0 0 0 2.488.154H40a16.761 16.761 0 0 0 14.822-8.582h-3.556a.8.8 0 0 0-.72.4" transform="translate(-37.365 -22.245)" style="fill:none"/>
        </clipPath>
        <clipPath id="g0v14spj6c">
            <path data-name="사각형 23891" style="fill:none" d="M0 0h38v15.818H0z"/>
        </clipPath>
        <clipPath id="zfmq1v628d">
            <path data-name="패스 32796" d="M0 22.255a15.447 15.447 0 0 0 10.006 7.584 14.354 14.354 0 0 0 7.984-.873c.093-.038.067-.122-.035-.092 0 0-8.229 2.386-13.6-6.065a.911.911 0 0 0-.826-.554z" transform="translate(0 -22.255)" style="fill:none"/>
        </clipPath>
        <linearGradient id="nzprabzomb" x1="-.577" y1=".805" x2="-.56" y2=".805" gradientUnits="objectBoundingBox">
            <stop offset="0" stop-color="#c5ce00"/>
            <stop offset=".006" stop-color="#c5ce00"/>
            <stop offset=".109" stop-color="#b4c804"/>
            <stop offset=".31" stop-color="#8abb0e"/>
            <stop offset=".589" stop-color="#46a520"/>
            <stop offset=".736" stop-color="#20992a"/>
            <stop offset="1" stop-color="#006830"/>
        </linearGradient>
        <linearGradient id="1dkjqcogce" x1="-.117" y1=".703" x2="-.095" y2=".703" gradientUnits="objectBoundingBox">
            <stop offset="0" stop-color="#ffc400"/>
            <stop offset=".21" stop-color="#f9a800"/>
            <stop offset=".556" stop-color="#f08100"/>
            <stop offset=".831" stop-color="#eb6800"/>
            <stop offset="1" stop-color="#ea6000"/>
        </linearGradient>
    </defs>
    <path style="fill:none" d="M0 0h40v40H0z"/>
    <g data-name="그룹 54065">
        <g data-name="그룹 54064" style="clip-path:url(#axmf3met6a)" transform="translate(13.149 19.233)">
            <path data-name="사각형 23890" transform="rotate(-20 1.45 8.422)" style="fill:url(#nzprabzomb)" d="M0 0h19.376v14.051H0z"/>
        </g>
    </g>
    <g data-name="그룹 54067">
        <g data-name="그룹 54066" style="clip-path:url(#g0v14spj6c)" transform="translate(1 12)">
            <path data-name="패스 32793" d="M64.186 8.108a.666.666 0 0 1-.667.666h-1.272V1.588c0-1.147.47-1.588 1.581-1.588h4.027a3.531 3.531 0 0 1 2.36.644 2.588 2.588 0 0 1 .742 2.056v.332a2.409 2.409 0 0 1-.743 1.974 3.544 3.544 0 0 1-2.36.649h-2.985A2.333 2.333 0 0 1 67.1 4.107h.661a1.355 1.355 0 0 0 .919-.268 1.444 1.444 0 0 0 .347-1.039 1.139 1.139 0 0 0-.373-.946 1.489 1.489 0 0 0-1.046-.3H65.174c-.764 0-.988.334-.988.989z" transform="translate(-42.008 -.001)" style="fill:#001466"/>
            <path data-name="패스 32794" d="M92 7.231a.667.667 0 0 0-.667.667v.878h5.125a3.545 3.545 0 0 0 2.342-.64 2.424 2.424 0 0 0 .747-1.97 2.462 2.462 0 0 0-.647-1.921 3.257 3.257 0 0 0-2.174-.575h-2.215a1.657 1.657 0 0 1-.968-.241.985.985 0 0 1-.4-.721 1.056 1.056 0 0 1 .346-.878 1.381 1.381 0 0 1 .971-.283h4a.667.667 0 0 0 .663-.667V0H94.3a3.531 3.531 0 0 0-2.36.651 2.526 2.526 0 0 0-.74 2.029 2.415 2.415 0 0 0 .707 1.926 3.376 3.376 0 0 0 2.235.611h2.147a1.7 1.7 0 0 1 1.019.233.946.946 0 0 1 .3.787.874.874 0 0 1-.327.763 2.016 2.016 0 0 1-1.119.23z" transform="translate(-61.547 -.001)" style="fill:#001466"/>
            <path data-name="패스 32795" d="M39.6 0a.667.667 0 0 0-.666.667v5.5L35.152.621A1.058 1.058 0 0 0 34.216 0h-2.009v8.774h1.271a.666.666 0 0 0 .667-.666V2.366l3.974 5.79a1.333 1.333 0 0 0 .98.618h1.776V0z" transform="translate(-21.735)" style="fill:#001466"/>
        </g>
    </g>
    <g data-name="그룹 54069">
        <g data-name="그룹 54068" style="clip-path:url(#zfmq1v628d)" transform="translate(1 19.236)">
            <path data-name="사각형 23892" transform="rotate(-70 4.23 6.042)" style="fill:url(#1dkjqcogce)" d="M0 0h14.646v20.072H0z"/>
        </g>
    </g>
</svg>
