<svg xmlns="http://www.w3.org/2000/svg" width="296.098" height="121.167" viewBox="0 0 296.098 121.167">
  <defs>
    <style>
      .cls-1 {
        fill: #ffe6e6;
      }

      .cls-2 {
        fill: #ffbdc9;
      }

      .cls-3 {
        fill: #fff;
      }

      .cls-4 {
        fill: #ffd6de;
      }

      .cls-5 {
        fill: #735053;
      }
    </style>
  </defs>
  <g id="home_spring_02" transform="translate(-26.957 -72.591)">
    <path id="패스_81016" data-name="패스 81016" class="cls-1" d="M122.93,486.913s30.64-26.57,135.648-3.266S405.9,507.883,405.9,507.883l-50.891,23.565H109.807Z" transform="translate(-82.85 -337.691)"/>
    <g id="그룹_57666" data-name="그룹 57666" transform="translate(58.18 72.59)">
      <path id="패스_81025" data-name="패스 81025" class="cls-2" d="M164.644,44.766c6.5-1.893,10.924-.434,23.1,3.1,11.568,3.361,11.149-21.9,11.568-22.368,0,0-8.475-22.737-23.934-25.33-8.967-1.5-18.251,7.248-20.145,13.164s-7.864,15.359-8.317,22.182,11.224,11.141,17.726,9.248" transform="translate(-124.53 0)"/>
      <path id="패스_81026" data-name="패스 81026" class="cls-3" d="M112.443,202.494c5.74-.713,10.672-1.025,15.763-3.767,5.472-2.9,10.831-5.527,16.036-8.536,8.852-4.941,18.894-14.581,18.629-25.563-.18-9.686-18.985-21.533-27.585-18.691-5.289,1.714-8.007,5.927-12.027,9.12-5.993,4.884-13.514,9.282-21.093,10.821-4.951.911-8.46,1.011-12.4,4.393-2.465,2.114-4.852,4.419-3.723,7.729,1.051,3.12,3.953,3.711,5.912,5.795,3.883,4.626-1,10.609,4.028,14.77,0,0,9.523,4.793,16.463,3.931" transform="translate(-72.691 -123.345)"/>
      <path id="패스_81027" data-name="패스 81027" class="cls-4" d="M50.161,127.649c11.147-4.688,12.995-13.413,7.2-19.9-3.643-4.105-5.038-8.283-5.963-14.423l-.339-1.1c-2.031-2.586-5.379-5.423-9.575-5.774-4.373-.281-8.805,2.384-13.129,3.775-5.731,1.945-8.659.173-14.016-.029-5.48,0-11,4.017-13.017,8.192a16.7,16.7,0,0,0-.572,11.453c1.361,3.464,5.255,5.625,6.018,9.633.729,3.4-1.163,8.917,1.324,11.631,2.435,2.581,8.158,3.716,12.127,4,9.377.622,21.085-3.672,29.946-7.462" transform="translate(0 -73.269)"/>
      <path id="패스_81028" data-name="패스 81028" class="cls-5" d="M166.112,315.318s-1.179-16.888-.52-28.128c1.953-2.429,5.515-6.85,7.467-9.221,2.314-2.809,5.5-7.621,3.9-5.983-1.291,1.317-8.471,9.655-11.237,12.874.148-2.874.218-5.162.161-6.358-.278-5.783-.429-9.943-.988-3.292-.241,2.869-1.37,11.817-2.472,20.4L147.632,286.4s3.736,4.334,14.556,11.005c.369,8.872.471,18.823.471,18.823Z" transform="translate(-125.146 -230.28)"/>
    </g>
  </g>
</svg>
