<svg xmlns="http://www.w3.org/2000/svg" width="446.326" height="359.732" viewBox="0 0 446.326 359.732">
  <g id="home_spring_01_m" transform="translate(33.056 10)">
    <path id="패스_80179" data-name="패스 80179" d="M304.1,24.3,277.266,0,180.741,14.363c-10.75-.357-25.361-.958-45-1.961-58.571-2.991-42.978-1.729-36.42.095a72.063,72.063,0,0,0,8.669,1.181c-5.088,1.172-14.007,3.13-20.021,3.91-8.838,1.147-10.888,2.493-13.8,3.631S89.8,19.992,96.942,18.4c4.654-1.036,14.009-2.785,21.009-3.819,15.6,1.325,36.51,2.841,46.178,4.305-28.914,8.959-99.48,30.314-120.816,32.1C16.25,53.25,53.483,52.434,53.483,52.434s17.79-1.82,26.777-3.728C77.178,50.678,71.717,56,62.841,60.73c-4,2.13-10.9,3.826-19.528,5.2-6.472,1.032-14.806,1.849-18.273,2.6-9.252,2,36.33-1.9,42-6.6,4.509-3.739,27.2-14.259,39.864-20.717,33.611-6.872,72.02-14.308,79.58-14.038,3.654.13,16.745,1.111,28.108,1.913-4.706,6.047-8.5,9.7-9.74,11.692C202.718,44.2,186.922,67.615,177.873,72.3s-34.947,12.068-8.569,7.327,35.409-28.874,40.005-33.159c2.447-2.281,15.392-11.6,21.828-16.273,7.533-.823,72.967-5.9,72.967-5.9" transform="translate(109.166 -10)" fill="#735053"/>
    <path id="패스_80180" data-name="패스 80180" d="M16.758,21.36a5.41,5.41,0,0,0,1.233-4.669c3.4-.358,6.935-3.222,5.183-6.421a5.846,5.846,0,0,0-5.143-3.093c.715-3.4-2.273-8.274-6.374-6.956A5.246,5.246,0,0,0,8.026,3.6C4.726,1.914-.864,3.912.113,8.37A6.116,6.116,0,0,0,2.382,12.1C-.049,14.474-1.08,18.83,3.977,20.271a4.34,4.34,0,0,0,4.185-.887c1.642,2.97,6.131,5.027,8.6,1.976" transform="translate(280.005 17.621)" fill="#fff"/>
    <path id="패스_80181" data-name="패스 80181" d="M4.3.02A3.853,3.853,0,0,0,.113,2.836C-.825,6.093,4.363,6.36,5.464,5.253S7.464,1.426,4.3.02" transform="translate(287.626 25.888)" fill="#ffc7c6"/>
    <path id="패스_80182" data-name="패스 80182" d="M.014.33a10.053,10.053,0,0,1,.315,1.21c.06.318.567.287.507-.035A10.978,10.978,0,0,0,.495.168.254.254,0,0,0,.014.33" transform="translate(290.721 24.917)" fill="#ff9ba7"/>
    <path id="패스_80183" data-name="패스 80183" d="M.263.645,2.27.507A.254.254,0,0,0,2.235,0L.228.139A.254.254,0,0,0,.263.645" transform="translate(292.667 27.809)" fill="#ff9ba7"/>
    <path id="패스_80184" data-name="패스 80184" d="M.071.459c.382.419.806.8,1.187,1.215.221.242.552-.144.334-.383C1.211.872.787.5.4.077.185-.165-.147.221.071.459" transform="translate(293.084 29.01)" fill="#ff9ba7"/>
    <path id="패스_80185" data-name="패스 80185" d="M.647.194A13.759,13.759,0,0,1,.022,1.9c-.126.3.331.523.458.22A14.718,14.718,0,0,0,1.146.289C1.231-.027.732-.12.647.194" transform="translate(289.573 30.144)" fill="#ff9ba7"/>
    <path id="패스_80186" data-name="패스 80186" d="M.2.5c.736.118,1.372.553,2.11.671.323.052.419-.447.095-.5C1.669.557,1.033.122.3,0-.027-.048-.124.451.2.5" transform="translate(286.337 27.375)" fill="#ff9ba7"/>
    <path id="패스_80187" data-name="패스 80187" d="M1.544,1.459A.881.881,0,1,1,1.459.217a.881.881,0,0,1,.085,1.243" transform="translate(285.703 26.748)" fill="#ff9ba7"/>
    <path id="패스_80188" data-name="패스 80188" d="M1.545,1.459A.881.881,0,1,1,1.459.217a.881.881,0,0,1,.086,1.242" transform="translate(288.857 31.789)" fill="#ff9ba7"/>
    <path id="패스_80189" data-name="패스 80189" d="M1.544,1.459A.88.88,0,1,1,1.459.217a.88.88,0,0,1,.085,1.242" transform="translate(294.293 30.19)" fill="#ff9ba7"/>
    <path id="패스_80190" data-name="패스 80190" d="M1.544,1.459A.881.881,0,1,1,1.459.217a.88.88,0,0,1,.085,1.242" transform="translate(294.039 27.183)" fill="#ff9ba7"/>
    <path id="패스_80191" data-name="패스 80191" d="M1.544,1.459A.88.88,0,1,1,1.459.217a.881.881,0,0,1,.085,1.242" transform="translate(289.973 23.641)" fill="#ff9ba7"/>
    <path id="패스_80206" data-name="패스 80206" d="M20.419,8.5c1.632-2.3,1.684-5.411-1.662-6.782A6.42,6.42,0,0,0,12.5,2.33c-2.477-2.481-6.69-3.557-8.9-.285-1.78,2.635-.884,5.239.448,7.178C.635,11.016-1.785,16.046,1.7,18.947c2.085,1.735,4.428,1.375,6.415.408,1.328,2.386,3.769,4.1,6.47,3.033a4.741,4.741,0,0,0,3.2-4.19c2.572.763,5.42-.14,6.146-3.7.7-3.436-1.35-5.146-3.511-6" transform="translate(217.687 5.807)" fill="#ffc7c6"/>
    <path id="패스_80207" data-name="패스 80207" d="M.43,3.153a2.712,2.712,0,0,0,4.435.233C6.707,1.468,4.368-.45,2.01.094S-.27,2.064.43,3.153" transform="translate(227.636 14.942)" fill="#fff"/>
    <path id="패스_80208" data-name="패스 80208" d="M1.222.082A9.9,9.9,0,0,0,.029,1.735c-.142.275.273.518.416.243A9.308,9.308,0,0,1,1.562.422c.194-.238-.144-.581-.34-.34" transform="translate(230.592 14.022)" fill="#ff9ba7"/>
    <path id="패스_80209" data-name="패스 80209" d="M.025.367A14.525,14.525,0,0,1,.642,1.785c.1.292.566.166.464-.128A15.941,15.941,0,0,0,.441.124C.309-.156-.106.088.025.367" transform="translate(231.719 17.974)" fill="#ff9ba7"/>
    <path id="패스_80210" data-name="패스 80210" d="M.233.482A7.318,7.318,0,0,1,1.8.762c.3.058.432-.406.128-.464A7.912,7.912,0,0,0,.233,0a.241.241,0,0,0,0,.481" transform="translate(232.008 17.207)" fill="#ff9ba7"/>
    <path id="패스_80211" data-name="패스 80211" d="M3.186.018A26.221,26.221,0,0,1,.171.98.241.241,0,0,0,.3,1.444,26.248,26.248,0,0,0,3.314.482C3.6.369,3.475-.1,3.186.018" transform="translate(225.141 17.649)" fill="#ff9ba7"/>
    <path id="패스_80212" data-name="패스 80212" d="M.119.448a9.914,9.914,0,0,1,1.555.925c.237.2.58-.142.34-.34a10.5,10.5,0,0,0-1.653-1C.09-.118-.153.3.119.448" transform="translate(226.933 14.675)" fill="#ff9ba7"/>
    <path id="패스_80213" data-name="패스 80213" d="M.522.161A7.688,7.688,0,0,0,0,2.567c-.017.31.464.309.481,0A7.279,7.279,0,0,1,.986.289C1.1,0,.635-.124.522.161" transform="translate(229.017 18.7)" fill="#ff9ba7"/>
    <path id="패스_80214" data-name="패스 80214" d="M1.411.705A.706.706,0,1,1,.705,0a.706.706,0,0,1,.706.705" transform="translate(224.382 18.155)" fill="#ff9ba7"/>
    <path id="패스_80215" data-name="패스 80215" d="M1.411.706A.706.706,0,1,1,.706,0a.706.706,0,0,1,.706.706" transform="translate(226.225 13.985)" fill="#ff9ba7"/>
    <path id="패스_80216" data-name="패스 80216" d="M1.412.706A.706.706,0,1,1,.706,0a.706.706,0,0,1,.706.706" transform="translate(231.247 13.504)" fill="#ff9ba7"/>
    <path id="패스_80217" data-name="패스 80217" d="M1.411.706A.706.706,0,1,1,.705,0a.706.706,0,0,1,.706.706" transform="translate(233.171 17.032)" fill="#ff9ba7"/>
    <path id="패스_80218" data-name="패스 80218" d="M1.412.706A.706.706,0,1,1,.706,0a.706.706,0,0,1,.706.706" transform="translate(231.952 19.15)" fill="#ff9ba7"/>
    <path id="패스_80219" data-name="패스 80219" d="M1.411.705A.706.706,0,1,1,.706,0a.706.706,0,0,1,.706.705" transform="translate(228.552 20.561)" fill="#ff9ba7"/>
    <g id="그룹_57671" data-name="그룹 57671" transform="translate(0 7.369)">
      <path id="패스_80220" data-name="패스 80220" d="M14.447,6.014c1.155-1.624,1.192-3.829-1.176-4.8a4.543,4.543,0,0,0-4.43.433c-1.753-1.755-4.734-2.517-6.3-.2A4.284,4.284,0,0,0,2.86,6.526C.449,7.795-1.263,11.353,1.2,13.406a3.976,3.976,0,0,0,4.539.289c.94,1.688,2.667,2.9,4.578,2.146a3.355,3.355,0,0,0,2.263-2.965,3.217,3.217,0,0,0,4.348-2.619c.5-2.431-.955-3.641-2.485-4.243" transform="translate(0 0)" fill="#ffc7c6"/>
      <path id="패스_80221" data-name="패스 80221" d="M.3,2.231A1.919,1.919,0,0,0,3.443,2.4c1.3-1.358-.352-2.715-2.02-2.33S-.191,1.461.3,2.231" transform="translate(7.039 6.463)" fill="#fff"/>
      <path id="패스_80222" data-name="패스 80222" d="M.864.058A7.019,7.019,0,0,0,.021,1.227c-.1.194.193.367.294.172A6.586,6.586,0,0,1,1.105.3C1.243.13,1-.112.864.058" transform="translate(9.131 5.812)" fill="#ff9ba7"/>
      <path id="패스_80223" data-name="패스 80223" d="M.018.26a10.369,10.369,0,0,1,.437,1c.071.206.4.118.328-.091A11.261,11.261,0,0,0,.312.088C.219-.111-.075.062.018.26" transform="translate(9.929 8.609)" fill="#ff9ba7"/>
      <path id="패스_80224" data-name="패스 80224" d="M.165.341a5.174,5.174,0,0,1,1.112.2c.214.041.306-.287.091-.328A5.584,5.584,0,0,0,.165,0a.17.17,0,0,0,0,.34" transform="translate(10.133 8.067)" fill="#ff9ba7"/>
      <path id="패스_80225" data-name="패스 80225" d="M2.254.013A18.564,18.564,0,0,1,.121.693a.17.17,0,0,0,.09.328A18.565,18.565,0,0,0,2.345.341c.2-.079.114-.409-.09-.328" transform="translate(5.274 8.379)" fill="#ff9ba7"/>
      <path id="패스_80226" data-name="패스 80226" d="M.084.317a7,7,0,0,1,1.1.654c.168.139.41-.1.241-.241A7.415,7.415,0,0,0,.256.023C.064-.084-.108.21.084.317" transform="translate(6.541 6.274)" fill="#ff9ba7"/>
      <path id="패스_80227" data-name="패스 80227" d="M.369.114A5.447,5.447,0,0,0,0,1.816c-.012.219.328.218.341,0A5.145,5.145,0,0,1,.7.2C.779,0,.449-.088.369.114" transform="translate(8.016 9.122)" fill="#ff9ba7"/>
      <path id="패스_80228" data-name="패스 80228" d="M1,.5A.5.5,0,1,1,.5,0,.5.5,0,0,1,1,.5" transform="translate(4.737 8.737)" fill="#ff9ba7"/>
      <path id="패스_80229" data-name="패스 80229" d="M1,.5A.5.5,0,1,1,.5,0,.5.5,0,0,1,1,.5" transform="translate(6.04 5.786)" fill="#ff9ba7"/>
      <path id="패스_80230" data-name="패스 80230" d="M1,.5A.5.5,0,1,1,.5,0,.5.5,0,0,1,1,.5" transform="translate(9.594 5.446)" fill="#ff9ba7"/>
      <path id="패스_80231" data-name="패스 80231" d="M1,.5A.5.5,0,1,1,.5,0,.5.5,0,0,1,1,.5" transform="translate(10.956 7.943)" fill="#ff9ba7"/>
      <path id="패스_80232" data-name="패스 80232" d="M1,.5A.5.5,0,1,1,.5,0,.5.5,0,0,1,1,.5" transform="translate(10.093 9.441)" fill="#ff9ba7"/>
      <path id="패스_80233" data-name="패스 80233" d="M1,.5A.5.5,0,1,1,.5,0,.5.5,0,0,1,1,.5" transform="translate(7.688 10.44)" fill="#ff9ba7"/>
    </g>
    <g id="그룹_57681" data-name="그룹 57681" transform="translate(273.257 173.744)">
      <path id="패스_80262" data-name="패스 80262" d="M13.908,5.789C15.019,4.226,15.055,2.1,12.776,1.17a4.373,4.373,0,0,0-4.264.417C6.824-.1,3.955-.836,2.449,1.393a4.123,4.123,0,0,0,.305,4.89C.432,7.5-1.216,10.929,1.158,12.905a3.827,3.827,0,0,0,4.369.278c.905,1.625,2.567,2.79,4.407,2.066A3.23,3.23,0,0,0,12.113,12.4,3.1,3.1,0,0,0,16.3,9.874a3.372,3.372,0,0,0-2.392-4.085" transform="translate(0 0)" fill="#ffc7c6"/>
      <path id="패스_80263" data-name="패스 80263" d="M.293,2.148a1.848,1.848,0,0,0,3.021.159C4.568,1,2.975-.307,1.369.064S-.184,1.406.293,2.148" transform="translate(6.775 6.222)" fill="#fff"/>
      <path id="패스_80264" data-name="패스 80264" d="M.832.056A6.733,6.733,0,0,0,.02,1.181c-.1.188.186.353.283.166A6.341,6.341,0,0,1,1.064.288C1.2.125.966-.108.832.056" transform="translate(8.79 5.595)" fill="#ff9ba7"/>
      <path id="패스_80265" data-name="패스 80265" d="M.017.25a9.864,9.864,0,0,1,.42.966c.069.2.385.113.316-.087A10.813,10.813,0,0,0,.3.085C.21-.107-.072.06.017.25" transform="translate(9.557 8.287)" fill="#ff9ba7"/>
      <path id="패스_80266" data-name="패스 80266" d="M.158.328A4.972,4.972,0,0,1,1.229.519c.206.04.295-.276.087-.316A5.363,5.363,0,0,0,.158,0a.164.164,0,0,0,0,.328" transform="translate(9.755 7.765)" fill="#ff9ba7"/>
      <path id="패스_80267" data-name="패스 80267" d="M2.17.012A17.952,17.952,0,0,1,.116.668.164.164,0,0,0,.2.983,17.868,17.868,0,0,0,2.257.328c.195-.076.11-.394-.087-.316" transform="translate(5.077 8.066)" fill="#ff9ba7"/>
      <path id="패스_80268" data-name="패스 80268" d="M.081.305A6.726,6.726,0,0,1,1.14.935c.162.133.4-.1.232-.232A7.127,7.127,0,0,0,.246.022C.061-.081-.1.2.081.305" transform="translate(6.297 6.04)" fill="#ff9ba7"/>
      <path id="패스_80269" data-name="패스 80269" d="M.356.11A5.239,5.239,0,0,0,0,1.749c-.012.211.316.21.328,0A4.962,4.962,0,0,1,.672.2C.749,0,.432-.084.356.11" transform="translate(7.716 8.781)" fill="#ff9ba7"/>
      <path id="패스_80270" data-name="패스 80270" d="M.961.481A.481.481,0,1,1,.481,0,.481.481,0,0,1,.961.481" transform="translate(4.56 8.411)" fill="#ff9ba7"/>
      <path id="패스_80271" data-name="패스 80271" d="M.962.481A.481.481,0,1,1,.481,0,.481.481,0,0,1,.962.481" transform="translate(5.815 5.57)" fill="#ff9ba7"/>
      <path id="패스_80272" data-name="패스 80272" d="M.961.481A.481.481,0,1,1,.481,0,.481.481,0,0,1,.961.481" transform="translate(9.234 5.243)" fill="#ff9ba7"/>
      <path id="패스_80273" data-name="패스 80273" d="M.961.481A.481.481,0,1,1,.481,0a.481.481,0,0,1,.48.481" transform="translate(10.545 7.646)" fill="#ff9ba7"/>
      <path id="패스_80274" data-name="패스 80274" d="M.961.481A.481.481,0,1,1,.48,0,.481.481,0,0,1,.961.481" transform="translate(9.716 9.087)" fill="#ff9ba7"/>
      <path id="패스_80275" data-name="패스 80275" d="M.961.481A.481.481,0,1,1,.48,0,.481.481,0,0,1,.961.481" transform="translate(7.401 10.05)" fill="#ff9ba7"/>
    </g>
    <path id="패스_80290" data-name="패스 80290" d="M13.908,5.789C15.02,4.226,15.055,2.1,12.776,1.17a4.373,4.373,0,0,0-4.264.417C6.824-.1,3.955-.836,2.449,1.393a4.124,4.124,0,0,0,.3,4.889C.432,7.5-1.216,10.929,1.159,12.905a3.827,3.827,0,0,0,4.369.278c.9,1.624,2.567,2.79,4.407,2.066A3.231,3.231,0,0,0,12.113,12.4,3.1,3.1,0,0,0,16.3,9.874a3.372,3.372,0,0,0-2.392-4.085" transform="translate(285.397 50.219)" fill="#ffc7c6"/>
    <path id="패스_80291" data-name="패스 80291" d="M.293,2.148a1.848,1.848,0,0,0,3.021.159C4.568,1,2.975-.307,1.369.064S-.184,1.406.293,2.148" transform="translate(292.173 56.441)" fill="#fff"/>
    <path id="패스_80292" data-name="패스 80292" d="M.832.056A6.723,6.723,0,0,0,.02,1.181c-.1.187.186.353.283.165A6.315,6.315,0,0,1,1.064.288C1.2.125.966-.108.832.056" transform="translate(294.187 55.815)" fill="#ff9ba7"/>
    <path id="패스_80293" data-name="패스 80293" d="M.017.25a9.943,9.943,0,0,1,.42.966c.069.2.385.113.316-.087A10.654,10.654,0,0,0,.3.085C.21-.107-.072.06.017.25" transform="translate(294.955 58.506)" fill="#ff9ba7"/>
    <path id="패스_80294" data-name="패스 80294" d="M.158.328A4.992,4.992,0,0,1,1.229.519c.207.039.295-.276.087-.316A5.367,5.367,0,0,0,.158,0a.164.164,0,0,0,0,.328" transform="translate(295.152 57.984)" fill="#ff9ba7"/>
    <path id="패스_80295" data-name="패스 80295" d="M2.17.012A17.915,17.915,0,0,1,.117.668.164.164,0,0,0,.2.984,17.922,17.922,0,0,0,2.257.328c.194-.077.11-.394-.087-.316" transform="translate(290.475 58.285)" fill="#ff9ba7"/>
    <path id="패스_80296" data-name="패스 80296" d="M.081.3A6.734,6.734,0,0,1,1.14.935c.162.134.395-.1.232-.232A7.144,7.144,0,0,0,.246.022C.061-.08-.1.2.081.3" transform="translate(291.695 56.259)" fill="#ff9ba7"/>
    <path id="패스_80297" data-name="패스 80297" d="M.356.11A5.238,5.238,0,0,0,0,1.749c-.012.211.316.21.328,0A4.966,4.966,0,0,1,.672.2C.749,0,.432-.084.356.11" transform="translate(293.114 59.001)" fill="#ff9ba7"/>
    <path id="패스_80298" data-name="패스 80298" d="M.961.481A.481.481,0,1,1,.481,0a.481.481,0,0,1,.48.481" transform="translate(289.958 58.629)" fill="#ff9ba7"/>
    <path id="패스_80299" data-name="패스 80299" d="M.961.481A.481.481,0,1,1,.48,0,.481.481,0,0,1,.961.481" transform="translate(291.213 55.79)" fill="#ff9ba7"/>
    <path id="패스_80300" data-name="패스 80300" d="M.961.481A.481.481,0,1,1,.481,0a.481.481,0,0,1,.48.481" transform="translate(294.633 55.462)" fill="#ff9ba7"/>
    <path id="패스_80301" data-name="패스 80301" d="M.961.481A.481.481,0,1,1,.48,0,.481.481,0,0,1,.961.481" transform="translate(295.944 57.865)" fill="#ff9ba7"/>
    <path id="패스_80302" data-name="패스 80302" d="M.961.481A.481.481,0,1,1,.48,0,.481.481,0,0,1,.961.481" transform="translate(295.114 59.307)" fill="#ff9ba7"/>
    <path id="패스_80303" data-name="패스 80303" d="M.961.481A.481.481,0,1,1,.481,0a.481.481,0,0,1,.48.481" transform="translate(292.798 60.268)" fill="#ff9ba7"/>
    <path id="패스_80304" data-name="패스 80304" d="M20.418,8.5c1.633-2.3,1.685-5.411-1.662-6.782a6.42,6.42,0,0,0-6.26.612c-2.477-2.481-6.69-3.557-8.9-.284-1.78,2.635-.885,5.239.447,7.178C.634,11.016-1.785,16.045,1.7,18.946c2.085,1.736,4.427,1.375,6.414.408,1.329,2.386,3.769,4.1,6.47,3.033a4.742,4.742,0,0,0,3.2-4.191c2.572.763,5.421-.14,6.146-3.7.7-3.436-1.35-5.146-3.511-6" transform="translate(262.315 21.818)" fill="#ffc7c6"/>
    <path id="패스_80305" data-name="패스 80305" d="M.43,3.154a2.713,2.713,0,0,0,4.435.233C6.707,1.468,4.367-.45,2.01.094S-.27,2.064.43,3.154" transform="translate(272.263 30.953)" fill="#fff"/>
    <path id="패스_80306" data-name="패스 80306" d="M1.222.082A9.915,9.915,0,0,0,.029,1.735c-.142.275.273.518.416.243A9.261,9.261,0,0,1,1.562.422c.194-.238-.144-.581-.34-.34" transform="translate(275.219 30.033)" fill="#ff9ba7"/>
    <path id="패스_80307" data-name="패스 80307" d="M.025.367A14.541,14.541,0,0,1,.643,1.785c.1.292.565.166.464-.128A15.785,15.785,0,0,0,.441.124C.309-.156-.106.088.025.367" transform="translate(276.347 33.985)" fill="#ff9ba7"/>
    <path id="패스_80308" data-name="패스 80308" d="M.232.482A7.306,7.306,0,0,1,1.8.762c.3.058.432-.406.128-.464A7.891,7.891,0,0,0,.232,0a.241.241,0,0,0,0,.481" transform="translate(276.636 33.219)" fill="#ff9ba7"/>
    <path id="패스_80309" data-name="패스 80309" d="M3.186.018A26.3,26.3,0,0,1,.171.98.241.241,0,0,0,.3,1.444,26.208,26.208,0,0,0,3.314.482C3.6.369,3.475-.1,3.186.018" transform="translate(269.769 33.66)" fill="#ff9ba7"/>
    <path id="패스_80310" data-name="패스 80310" d="M.119.448a9.9,9.9,0,0,1,1.555.925c.237.2.58-.142.34-.34a10.451,10.451,0,0,0-1.653-1C.09-.118-.153.3.119.448" transform="translate(271.56 30.687)" fill="#ff9ba7"/>
    <path id="패스_80311" data-name="패스 80311" d="M.522.161A7.7,7.7,0,0,0,0,2.567c-.017.31.464.309.481,0A7.29,7.29,0,0,1,.986.29C1.1,0,.635-.124.522.161" transform="translate(273.643 34.711)" fill="#ff9ba7"/>
    <path id="패스_80312" data-name="패스 80312" d="M1.412.706A.706.706,0,1,1,.706,0a.706.706,0,0,1,.706.706" transform="translate(269.009 34.166)" fill="#ff9ba7"/>
    <path id="패스_80313" data-name="패스 80313" d="M1.411.706A.706.706,0,1,1,.706,0a.706.706,0,0,1,.706.706" transform="translate(270.852 29.996)" fill="#ff9ba7"/>
    <path id="패스_80314" data-name="패스 80314" d="M1.411.706A.706.706,0,1,1,.706,0a.706.706,0,0,1,.706.706" transform="translate(275.874 29.515)" fill="#ff9ba7"/>
    <path id="패스_80315" data-name="패스 80315" d="M1.411.705A.706.706,0,1,1,.706,0a.706.706,0,0,1,.706.705" transform="translate(277.798 33.044)" fill="#ff9ba7"/>
    <path id="패스_80316" data-name="패스 80316" d="M1.411.706A.706.706,0,1,1,.706,0a.706.706,0,0,1,.706.706" transform="translate(276.579 35.161)" fill="#ff9ba7"/>
    <path id="패스_80317" data-name="패스 80317" d="M1.411.706A.706.706,0,1,1,.706,0a.706.706,0,0,1,.706.706" transform="translate(273.179 36.572)" fill="#ff9ba7"/>
    <path id="패스_80318" data-name="패스 80318" d="M20.418,8.5c1.633-2.3,1.685-5.411-1.662-6.782a6.42,6.42,0,0,0-6.26.612c-2.477-2.481-6.69-3.558-8.9-.285-1.78,2.635-.885,5.239.447,7.178C.634,11.016-1.785,16.045,1.7,18.946c2.085,1.736,4.427,1.375,6.414.408,1.329,2.386,3.77,4.1,6.471,3.033a4.741,4.741,0,0,0,3.2-4.191c2.572.763,5.421-.14,6.146-3.7.7-3.436-1.35-5.146-3.511-6" transform="translate(306.391 65.956)" fill="#ffc7c6"/>
    <path id="패스_80319" data-name="패스 80319" d="M.43,3.154a2.713,2.713,0,0,0,4.435.233C6.707,1.468,4.367-.45,2.01.094S-.27,2.064.43,3.154" transform="translate(316.34 75.091)" fill="#fff"/>
    <path id="패스_80320" data-name="패스 80320" d="M1.222.082A9.913,9.913,0,0,0,.029,1.734c-.142.275.273.518.416.243A9.256,9.256,0,0,1,1.562.422c.194-.238-.144-.581-.34-.34" transform="translate(319.296 74.17)" fill="#ff9ba7"/>
    <path id="패스_80321" data-name="패스 80321" d="M.025.367A14.52,14.52,0,0,1,.642,1.785c.1.292.565.166.464-.128A15.763,15.763,0,0,0,.441.124C.309-.156-.106.088.025.367" transform="translate(320.423 78.123)" fill="#ff9ba7"/>
    <path id="패스_80322" data-name="패스 80322" d="M.232.482A7.307,7.307,0,0,1,1.8.762c.3.058.432-.406.128-.464A7.882,7.882,0,0,0,.232,0a.241.241,0,0,0,0,.481" transform="translate(320.712 77.357)" fill="#ff9ba7"/>
    <path id="패스_80323" data-name="패스 80323" d="M3.186.018A26.292,26.292,0,0,1,.171.98.241.241,0,0,0,.3,1.444,26.3,26.3,0,0,0,3.314.482C3.6.369,3.475-.1,3.186.018" transform="translate(313.845 77.797)" fill="#ff9ba7"/>
    <path id="패스_80324" data-name="패스 80324" d="M.119.448a9.913,9.913,0,0,1,1.555.925c.237.2.579-.142.34-.34a10.463,10.463,0,0,0-1.653-1C.09-.118-.153.3.119.448" transform="translate(315.637 74.824)" fill="#ff9ba7"/>
    <path id="패스_80325" data-name="패스 80325" d="M.522.161A7.7,7.7,0,0,0,0,2.567c-.017.31.464.308.481,0A7.288,7.288,0,0,1,.986.29C1.1,0,.635-.124.522.161" transform="translate(317.721 78.848)" fill="#ff9ba7"/>
    <path id="패스_80326" data-name="패스 80326" d="M1.412.706A.706.706,0,1,1,.706,0a.706.706,0,0,1,.706.706" transform="translate(313.086 78.304)" fill="#ff9ba7"/>
    <path id="패스_80327" data-name="패스 80327" d="M1.411.706A.706.706,0,1,1,.706,0a.706.706,0,0,1,.706.706" transform="translate(314.929 74.134)" fill="#ff9ba7"/>
    <path id="패스_80328" data-name="패스 80328" d="M1.411.706A.706.706,0,1,1,.706,0a.706.706,0,0,1,.706.706" transform="translate(319.951 73.652)" fill="#ff9ba7"/>
    <path id="패스_80329" data-name="패스 80329" d="M1.411.706A.706.706,0,1,1,.706,0a.706.706,0,0,1,.706.706" transform="translate(320.657 79.298)" fill="#ff9ba7"/>
    <path id="패스_80330" data-name="패스 80330" d="M1.411.706A.706.706,0,1,1,.706,0a.706.706,0,0,1,.706.706" transform="translate(317.257 80.71)" fill="#ff9ba7"/>
    <path id="패스_80348" data-name="패스 80348" d="M20.418,8.5c1.632-2.3,1.685-5.411-1.662-6.782A6.421,6.421,0,0,0,12.5,2.33c-2.476-2.481-6.69-3.557-8.9-.285-1.78,2.635-.884,5.239.448,7.178C.634,11.016-1.785,16.045,1.7,18.947c2.085,1.735,4.428,1.375,6.415.408,1.329,2.385,3.769,4.1,6.47,3.033a4.742,4.742,0,0,0,3.2-4.19c2.571.763,5.42-.14,6.146-3.7.7-3.436-1.35-5.146-3.511-6" transform="translate(234.083 39.17)" fill="#ffc7c6"/>
    <path id="패스_80349" data-name="패스 80349" d="M.43,3.154a2.713,2.713,0,0,0,4.435.233C6.707,1.467,4.368-.45,2.01.094S-.27,2.064.43,3.154" transform="translate(244.031 48.305)" fill="#fff"/>
    <path id="패스_80350" data-name="패스 80350" d="M1.222.082A9.887,9.887,0,0,0,.029,1.735c-.143.275.273.518.416.243A9.3,9.3,0,0,1,1.562.422c.194-.238-.144-.581-.34-.34" transform="translate(246.988 47.384)" fill="#ff9ba7"/>
    <path id="패스_80351" data-name="패스 80351" d="M.025.367A14.655,14.655,0,0,1,.642,1.785c.1.291.565.166.464-.128A15.831,15.831,0,0,0,.441.124C.309-.156-.106.088.025.367" transform="translate(248.115 51.336)" fill="#ff9ba7"/>
    <path id="패스_80352" data-name="패스 80352" d="M.233.482A7.316,7.316,0,0,1,1.8.762c.3.058.432-.405.128-.464A7.9,7.9,0,0,0,.233,0a.241.241,0,0,0,0,.481" transform="translate(248.404 50.57)" fill="#ff9ba7"/>
    <path id="패스_80353" data-name="패스 80353" d="M3.186.018A26.266,26.266,0,0,1,.171.98.241.241,0,0,0,.3,1.444,26.3,26.3,0,0,0,3.314.482C3.6.369,3.475-.1,3.186.018" transform="translate(241.536 51.011)" fill="#ff9ba7"/>
    <path id="패스_80354" data-name="패스 80354" d="M.118.448a9.861,9.861,0,0,1,1.555.924c.238.2.58-.142.341-.34a10.49,10.49,0,0,0-1.653-1C.09-.118-.153.3.118.448" transform="translate(243.328 48.037)" fill="#ff9ba7"/>
    <path id="패스_80355" data-name="패스 80355" d="M.522.162A7.693,7.693,0,0,0,0,2.567c-.017.31.464.309.481,0A7.274,7.274,0,0,1,.986.289C1.1,0,.635-.124.522.162" transform="translate(245.411 52.061)" fill="#ff9ba7"/>
    <path id="패스_80356" data-name="패스 80356" d="M1.411.706A.706.706,0,1,1,.706,0a.706.706,0,0,1,.706.706" transform="translate(240.777 51.517)" fill="#ff9ba7"/>
    <path id="패스_80357" data-name="패스 80357" d="M1.412.706A.706.706,0,1,1,.706,0a.706.706,0,0,1,.706.706" transform="translate(242.619 47.348)" fill="#ff9ba7"/>
    <path id="패스_80358" data-name="패스 80358" d="M1.412.706A.706.706,0,1,1,.706,0a.706.706,0,0,1,.706.706" transform="translate(247.641 46.866)" fill="#ff9ba7"/>
    <path id="패스_80359" data-name="패스 80359" d="M1.411.706A.706.706,0,1,1,.706,0a.706.706,0,0,1,.706.706" transform="translate(249.567 50.395)" fill="#ff9ba7"/>
    <path id="패스_80360" data-name="패스 80360" d="M1.411.706A.706.706,0,1,1,.706,0a.706.706,0,0,1,.706.706" transform="translate(248.348 52.512)" fill="#ff9ba7"/>
    <path id="패스_80361" data-name="패스 80361" d="M1.412.706A.706.706,0,1,1,.706,0a.706.706,0,0,1,.706.706" transform="translate(244.947 53.923)" fill="#ff9ba7"/>
    <path id="패스_80390" data-name="패스 80390" d="M14.866,8.78c1.595-1.063,2.384-3.032.589-4.715a4.37,4.37,0,0,0-4.129-1.13C10.353.757,7.935-.95,5.735.595A4.119,4.119,0,0,0,4.278,5.267c-2.6.313-5.36,2.924-3.848,5.614A3.824,3.824,0,0,0,4.41,12.7c.266,1.839,1.4,3.519,3.378,3.5a3.228,3.228,0,0,0,3.05-1.889,3.094,3.094,0,0,0,4.806-.862,3.369,3.369,0,0,0-.778-4.665" transform="translate(175.838 12.726)" fill="#ffc7c6"/>
    <path id="패스_80391" data-name="패스 80391" d="M.047,1.6A1.846,1.846,0,0,0,2.81,2.821C4.447,2.048,3.425.261,1.794.035S-.134.734.047,1.6" transform="translate(183.354 19.882)" fill="#fff"/>
    <path id="패스_80392" data-name="패스 80392" d="M1.215.022A6.723,6.723,0,0,0,.057.784c-.157.14.048.4.205.255A6.33,6.33,0,0,1,1.349.321c.181-.1.049-.4-.134-.3" transform="translate(185.538 19.828)" fill="#ff9ba7"/>
    <path id="패스_80393" data-name="패스 80393" d="M0,.187A9.992,9.992,0,0,1,.049,1.238c-.007.21.319.243.326.031A10.634,10.634,0,0,0,.323.133C.308-.077-.015-.023,0,.187" transform="translate(185.68 22.34)" fill="#ff9ba7"/>
    <path id="패스_80394" data-name="패스 80394" d="M.1.316a4.987,4.987,0,0,1,.932.56c.178.11.373-.153.194-.264A5.377,5.377,0,0,0,.22.01C.021-.059-.1.246.1.316" transform="translate(186.051 21.917)" fill="#ff9ba7"/>
    <path id="패스_80395" data-name="패스 80395" d="M2.325.121A17.943,17.943,0,0,1,.174,0,.164.164,0,0,0,.143.327a17.917,17.917,0,0,0,2.151.12c.209,0,.243-.329.031-.326" transform="translate(181.347 21.148)" fill="#ff9ba7"/>
    <path id="패스_80396" data-name="패스 80396" d="M.039.264A6.729,6.729,0,0,1,.8,1.229c.1.183.4.05.3-.134A7.108,7.108,0,0,0,.294.059C.158-.1-.1.1.039.264" transform="translate(183.439 19.078)" fill="#ff9ba7"/>
    <path id="패스_80397" data-name="패스 80397" d="M.931.057a5.235,5.235,0,0,0-.915,1.4c-.086.193.22.309.306.117A4.948,4.948,0,0,1,1.195.251C1.337.095,1.071-.1.931.057" transform="translate(183.222 22.266)" fill="#ff9ba7"/>
    <path id="패스_80398" data-name="패스 80398" d="M.929.652A.48.48,0,1,1,.652.032a.481.481,0,0,1,.277.62" transform="translate(180.841 20.762)" fill="#ff9ba7"/>
    <path id="패스_80399" data-name="패스 80399" d="M.929.652A.48.48,0,1,1,.652.032a.48.48,0,0,1,.277.62" transform="translate(183.024 18.558)" fill="#ff9ba7"/>
    <path id="패스_80400" data-name="패스 80400" d="M.929.652A.48.48,0,1,1,.652.032a.48.48,0,0,1,.278.62" transform="translate(186.335 19.471)" fill="#ff9ba7"/>
    <path id="패스_80401" data-name="패스 80401" d="M.929.652A.48.48,0,1,1,.651.032a.48.48,0,0,1,.278.62" transform="translate(186.703 22.181)" fill="#ff9ba7"/>
    <path id="패스_80402" data-name="패스 80402" d="M.929.652A.48.48,0,1,1,.652.032a.48.48,0,0,1,.277.62" transform="translate(185.413 23.23)" fill="#ff9ba7"/>
    <path id="패스_80403" data-name="패스 80403" d="M.929.652A.48.48,0,1,1,.652.032a.481.481,0,0,1,.277.62" transform="translate(182.909 23.303)" fill="#ff9ba7"/>
    <path id="패스_80404" data-name="패스 80404" d="M10.87,12.417c1.821.6,3.857.009,4.076-2.443a4.372,4.372,0,0,0-1.656-3.948c1.115-2.109.969-5.064-1.6-5.845A4.12,4.12,0,0,0,7.11,1.915C5.26.059,1.5-.5.318,2.345A3.824,3.824,0,0,0,1.341,6.6C.056,7.942-.566,9.872.668,11.415a3.228,3.228,0,0,0,3.367,1.238,3.1,3.1,0,0,0,3.642,3.253,3.369,3.369,0,0,0,3.193-3.488" transform="translate(294.308 28.146)" fill="#ffc7c6"/>
    <path id="패스_80405" data-name="패스 80405" d="M.445.581a1.846,1.846,0,0,0,.739,2.931C2.8,4.324,3.579,2.417,2.752.993S1.013-.094.445.581" transform="translate(300.252 34.215)" fill="#fff"/>
    <path id="패스_80406" data-name="패스 80406" d="M1.512.446A6.741,6.741,0,0,0,.2,0C-.01-.034-.084.285.123.322A6.343,6.343,0,0,1,1.359.736c.194.079.349-.21.153-.29" transform="translate(302.534 35.985)" fill="#ff9ba7"/>
    <path id="패스_80407" data-name="패스 80407" d="M.867.046a9.974,9.974,0,0,1-.8.686c-.17.124.006.4.176.276A10.813,10.813,0,0,0,1.109.266C1.265.125,1.022-.1.867.046" transform="translate(300.411 37.193)" fill="#ff9ba7"/>
    <path id="패스_80408" data-name="패스 80408" d="M.01.207A4.971,4.971,0,0,1,.143,1.285c.023.209.35.2.327-.01A5.376,5.376,0,0,0,.322.11c-.068-.2-.381-.1-.313.1" transform="translate(301.791 37.223)" fill="#ff9ba7"/>
    <path id="패스_80409" data-name="패스 80409" d="M1.534,1.842A17.8,17.8,0,0,1,.3.075.164.164,0,0,0,.026.251,17.825,17.825,0,0,0,1.257,2.019c.13.163.408-.011.276-.176" transform="translate(299.496 33.038)" fill="#ff9ba7"/>
    <path id="패스_80410" data-name="패스 80410" d="M.3.123a6.735,6.735,0,0,1-.289,1.2c-.08.194.209.349.29.153A7.1,7.1,0,0,0,.622.2.164.164,0,0,0,.3.123" transform="translate(302.124 33.417)" fill="#ff9ba7"/>
    <path id="패스_80411" data-name="패스 80411" d="M1.782.015A5.244,5.244,0,0,0,.113.159C-.092.21.006.523.21.472A4.944,4.944,0,0,1,1.792.342c.211.016.2-.312-.01-.328" transform="translate(298.714 35.893)" fill="#ff9ba7"/>
    <path id="패스_80412" data-name="패스 80412" d="M.622.939A.48.48,0,1,1,.94.339a.481.481,0,0,1-.317.6" transform="translate(299.121 32.533)" fill="#ff9ba7"/>
    <path id="패스_80413" data-name="패스 80413" d="M.622.939a.48.48,0,1,1,.317-.6.481.481,0,0,1-.317.6" transform="translate(302.203 32.893)" fill="#ff9ba7"/>
    <path id="패스_80414" data-name="패스 80414" d="M.622.939a.48.48,0,1,1,.317-.6.48.48,0,0,1-.317.6" transform="translate(303.525 36.062)" fill="#ff9ba7"/>
    <path id="패스_80415" data-name="패스 80415" d="M.622.939a.48.48,0,1,1,.317-.6.481.481,0,0,1-.317.6" transform="translate(301.618 38.022)" fill="#ff9ba7"/>
    <path id="패스_80416" data-name="패스 80416" d="M.622.94a.48.48,0,1,1,.317-.6.48.48,0,0,1-.317.6" transform="translate(299.996 37.655)" fill="#ff9ba7"/>
    <path id="패스_80417" data-name="패스 80417" d="M.622.939a.48.48,0,1,1,.317-.6.481.481,0,0,1-.317.6" transform="translate(298.395 35.727)" fill="#ff9ba7"/>
    <path id="패스_80418" data-name="패스 80418" d="M10.87,12.417c1.821.6,3.857.009,4.076-2.443a4.372,4.372,0,0,0-1.656-3.948c1.115-2.109.969-5.064-1.6-5.845A4.12,4.12,0,0,0,7.11,1.915C5.26.059,1.5-.5.318,2.345A3.824,3.824,0,0,0,1.34,6.6C.056,7.941-.566,9.872.668,11.415a3.228,3.228,0,0,0,3.367,1.238,3.094,3.094,0,0,0,3.641,3.253,3.368,3.368,0,0,0,3.194-3.488" transform="translate(292.63 6.986)" fill="#ffc7c6"/>
    <path id="패스_80419" data-name="패스 80419" d="M.445.581a1.846,1.846,0,0,0,.739,2.931C2.8,4.324,3.579,2.417,2.752.993S1.013-.094.445.581" transform="translate(298.575 13.056)" fill="#fff"/>
    <path id="패스_80420" data-name="패스 80420" d="M1.512.446A6.735,6.735,0,0,0,.2,0C-.01-.034-.084.285.123.322A6.339,6.339,0,0,1,1.359.736c.194.079.349-.21.153-.29" transform="translate(300.858 14.825)" fill="#ff9ba7"/>
    <path id="패스_80421" data-name="패스 80421" d="M.867.046a9.952,9.952,0,0,1-.8.686c-.169.124.006.4.176.276A10.787,10.787,0,0,0,1.109.266C1.265.125,1.022-.1.867.046" transform="translate(298.733 16.032)" fill="#ff9ba7"/>
    <path id="패스_80422" data-name="패스 80422" d="M.01.207A4.974,4.974,0,0,1,.143,1.285c.023.209.35.2.327-.01A5.388,5.388,0,0,0,.323.11c-.068-.2-.381-.1-.313.1" transform="translate(300.113 16.063)" fill="#ff9ba7"/>
    <path id="패스_80423" data-name="패스 80423" d="M1.534,1.842A17.788,17.788,0,0,1,.3.075.164.164,0,0,0,.026.251,17.81,17.81,0,0,0,1.257,2.019c.13.163.408-.011.276-.176" transform="translate(297.818 11.878)" fill="#ff9ba7"/>
    <path id="패스_80424" data-name="패스 80424" d="M.3.123a6.742,6.742,0,0,1-.289,1.2c-.08.194.209.349.29.153A7.088,7.088,0,0,0,.622.2.164.164,0,0,0,.3.123" transform="translate(300.447 12.256)" fill="#ff9ba7"/>
    <path id="패스_80425" data-name="패스 80425" d="M1.783.015A5.246,5.246,0,0,0,.113.159C-.092.21.006.523.21.472A4.943,4.943,0,0,1,1.792.342c.211.016.2-.311-.01-.327" transform="translate(297.036 14.733)" fill="#ff9ba7"/>
    <path id="패스_80426" data-name="패스 80426" d="M.622.939a.48.48,0,1,1,.317-.6.481.481,0,0,1-.317.6" transform="translate(297.444 11.373)" fill="#ff9ba7"/>
    <path id="패스_80427" data-name="패스 80427" d="M.622.939a.48.48,0,1,1,.317-.6.481.481,0,0,1-.317.6" transform="translate(300.526 11.733)" fill="#ff9ba7"/>
    <path id="패스_80428" data-name="패스 80428" d="M.622.939a.48.48,0,1,1,.317-.6.48.48,0,0,1-.317.6" transform="translate(301.847 14.902)" fill="#ff9ba7"/>
    <path id="패스_80429" data-name="패스 80429" d="M.622.939a.48.48,0,1,1,.317-.6.481.481,0,0,1-.317.6" transform="translate(299.94 16.862)" fill="#ff9ba7"/>
    <path id="패스_80430" data-name="패스 80430" d="M.622.94a.48.48,0,1,1,.317-.6.481.481,0,0,1-.317.6" transform="translate(298.318 16.494)" fill="#ff9ba7"/>
    <path id="패스_80431" data-name="패스 80431" d="M.622.94a.481.481,0,1,1,.317-.6.481.481,0,0,1-.317.6" transform="translate(296.718 14.568)" fill="#ff9ba7"/>
    <path id="패스_80458" data-name="패스 80458" d="M10.608,13.52a3.425,3.425,0,0,0,.78-2.955c2.15-.227,4.39-2.04,3.281-4.064a3.7,3.7,0,0,0-3.256-1.958C11.866,2.389,9.974-.694,7.378.14a3.32,3.32,0,0,0-2.3,2.138C2.991,1.211-.547,2.476.071,5.3A3.871,3.871,0,0,0,1.508,7.656C-.031,9.161-.684,11.919,2.517,12.831a2.746,2.746,0,0,0,2.649-.561c1.04,1.88,3.881,3.182,5.442,1.251" transform="translate(234.208 25.049)" fill="#fff"/>
    <path id="패스_80459" data-name="패스 80459" d="M2.724.013A2.439,2.439,0,0,0,.071,1.8c-.594,2.061,2.69,2.231,3.387,1.53A1.945,1.945,0,0,0,2.724.013" transform="translate(239.032 30.283)" fill="#ffc7c6"/>
    <path id="패스_80460" data-name="패스 80460" d="M.009.209a6.346,6.346,0,0,1,.2.766c.038.2.359.182.321-.022A6.988,6.988,0,0,0,.314.107a.161.161,0,0,0-.305.1" transform="translate(240.991 29.668)" fill="#ff9ba7"/>
    <path id="패스_80461" data-name="패스 80461" d="M.167.408,1.437.321A.161.161,0,0,0,1.415,0L.145.088A.161.161,0,0,0,.167.408" transform="translate(242.223 31.499)" fill="#ff9ba7"/>
    <path id="패스_80462" data-name="패스 80462" d="M.045.291c.242.265.51.5.752.769.139.153.349-.091.211-.242C.766.552.5.314.256.048.117-.1-.093.14.045.291" transform="translate(242.487 32.258)" fill="#ff9ba7"/>
    <path id="패스_80463" data-name="패스 80463" d="M.41.123a8.76,8.76,0,0,1-.4,1.082c-.079.19.21.331.29.139A9.317,9.317,0,0,0,.725.183C.78-.017.464-.076.41.123" transform="translate(240.265 32.976)" fill="#ff9ba7"/>
    <path id="패스_80464" data-name="패스 80464" d="M.127.318C.593.393,1,.668,1.463.743c.2.033.265-.283.06-.316C1.056.352.654.078.187,0c-.2-.033-.265.283-.06.316" transform="translate(238.216 31.224)" fill="#ff9ba7"/>
    <path id="패스_80465" data-name="패스 80465" d="M.977.923A.557.557,0,1,1,.923.137.557.557,0,0,1,.977.923" transform="translate(237.815 30.826)" fill="#ff9ba7"/>
    <path id="패스_80466" data-name="패스 80466" d="M.977.923A.557.557,0,1,1,.924.137.557.557,0,0,1,.977.923" transform="translate(239.812 34.017)" fill="#ff9ba7"/>
    <path id="패스_80467" data-name="패스 80467" d="M.977.924A.557.557,0,1,1,.923.137.557.557,0,0,1,.977.924" transform="translate(243.253 33.005)" fill="#ff9ba7"/>
    <path id="패스_80468" data-name="패스 80468" d="M.977.924A.557.557,0,1,1,.923.137.557.557,0,0,1,.977.924" transform="translate(243.091 31.103)" fill="#ff9ba7"/>
    <path id="패스_80469" data-name="패스 80469" d="M.978.923A.557.557,0,1,1,.923.137.557.557,0,0,1,.978.923" transform="translate(240.518 28.859)" fill="#ff9ba7"/>
    <path id="패스_80470" data-name="패스 80470" d="M10.608,13.52a3.425,3.425,0,0,0,.78-2.955c2.15-.227,4.39-2.039,3.281-4.064a3.7,3.7,0,0,0-3.256-1.958C11.865,2.389,9.975-.694,7.379.14a3.32,3.32,0,0,0-2.3,2.138C2.992,1.211-.546,2.476.071,5.3A3.874,3.874,0,0,0,1.508,7.656c-1.539,1.5-2.191,4.263,1.01,5.174a2.747,2.747,0,0,0,2.649-.561c1.04,1.88,3.881,3.182,5.442,1.251" transform="translate(307.055 43.225)" fill="#fff"/>
    <path id="패스_80471" data-name="패스 80471" d="M2.724.013A2.439,2.439,0,0,0,.071,1.8c-.594,2.061,2.69,2.231,3.387,1.53A1.945,1.945,0,0,0,2.724.013" transform="translate(311.88 48.458)" fill="#ffc7c6"/>
    <path id="패스_80472" data-name="패스 80472" d="M.009.209a6.337,6.337,0,0,1,.2.766c.038.2.359.182.321-.022A6.894,6.894,0,0,0,.313.107a.161.161,0,0,0-.3.1" transform="translate(313.839 47.843)" fill="#ff9ba7"/>
    <path id="패스_80473" data-name="패스 80473" d="M.166.409,1.437.321A.161.161,0,0,0,1.414,0L.144.088A.161.161,0,0,0,.166.409" transform="translate(315.07 49.674)" fill="#ff9ba7"/>
    <path id="패스_80474" data-name="패스 80474" d="M.045.291c.242.265.51.5.752.769.139.153.349-.091.211-.242C.767.552.5.314.256.049.117-.1-.093.14.045.291" transform="translate(315.335 50.434)" fill="#ff9ba7"/>
    <path id="패스_80475" data-name="패스 80475" d="M.41.123a8.751,8.751,0,0,1-.4,1.083c-.079.19.21.331.29.139A9.278,9.278,0,0,0,.726.183C.779-.017.464-.076.41.123" transform="translate(313.112 51.151)" fill="#ff9ba7"/>
    <path id="패스_80476" data-name="패스 80476" d="M.127.318C.593.393,1,.668,1.463.743a.161.161,0,0,0,.06-.316C1.057.352.654.078.187,0c-.2-.033-.265.283-.06.316" transform="translate(311.064 49.399)" fill="#ff9ba7"/>
    <path id="패스_80477" data-name="패스 80477" d="M.978.924A.557.557,0,1,1,.924.137.558.558,0,0,1,.978.924" transform="translate(310.663 49.002)" fill="#ff9ba7"/>
    <path id="패스_80478" data-name="패스 80478" d="M.978.923A.557.557,0,1,1,.923.137.557.557,0,0,1,.978.923" transform="translate(312.659 52.193)" fill="#ff9ba7"/>
    <path id="패스_80479" data-name="패스 80479" d="M.977.924A.557.557,0,1,1,.923.137.557.557,0,0,1,.977.924" transform="translate(316.1 51.18)" fill="#ff9ba7"/>
    <path id="패스_80480" data-name="패스 80480" d="M.977.924A.557.557,0,1,1,.923.137.558.558,0,0,1,.977.924" transform="translate(315.938 49.278)" fill="#ff9ba7"/>
    <path id="패스_80481" data-name="패스 80481" d="M.978.923A.557.557,0,1,1,.924.137.557.557,0,0,1,.978.923" transform="translate(313.364 47.035)" fill="#ff9ba7"/>
    <path id="패스_80506" data-name="패스 80506" d="M20.019,25.516a6.462,6.462,0,0,0,1.473-5.577c4.057-.428,8.284-3.849,6.191-7.67a6.984,6.984,0,0,0-6.144-3.7c.854-4.065-2.715-9.884-7.614-8.31A6.267,6.267,0,0,0,9.588,4.3C5.645,2.286-1.032,4.673.135,10a7.306,7.306,0,0,0,2.71,4.451c-2.9,2.841-4.136,8.045,1.905,9.766a5.183,5.183,0,0,0,5-1.06c1.962,3.549,7.324,6.005,10.269,2.361" transform="translate(301.636 0.878)" fill="#fff"/>
    <path id="패스_80507" data-name="패스 80507" d="M5.141.024A4.6,4.6,0,0,0,.135,3.388C-.986,7.279,5.212,7.6,6.527,6.276S8.916,1.7,5.141.024" transform="translate(310.74 10.754)" fill="#ffc7c6"/>
    <path id="패스_80508" data-name="패스 80508" d="M.016.395A11.988,11.988,0,0,1,.392,1.84c.071.38.677.343.605-.042A13.072,13.072,0,0,0,.591.2.3.3,0,0,0,.016.395" transform="translate(314.438 9.594)" fill="#ff9ba7"/>
    <path id="패스_80509" data-name="패스 80509" d="M.315.771l2.4-.164A.3.3,0,0,0,2.67,0L.273.165A.3.3,0,0,0,.315.771" transform="translate(316.761 13.049)" fill="#ff9ba7"/>
    <path id="패스_80510" data-name="패스 80510" d="M.085.549C.541,1.05,1.048,1.5,1.5,2c.264.289.659-.172.4-.458C1.447,1.042.94.592.484.092.221-.2-.175.264.085.549" transform="translate(317.261 14.483)" fill="#ff9ba7"/>
    <path id="패스_80511" data-name="패스 80511" d="M.773.232A16.524,16.524,0,0,1,.026,2.275c-.15.359.4.625.547.263a17.626,17.626,0,0,0,.8-2.192c.1-.378-.495-.49-.6-.114" transform="translate(313.066 15.838)" fill="#ff9ba7"/>
    <path id="패스_80512" data-name="패스 80512" d="M.239.6c.879.141,1.639.66,2.521.8.386.062.5-.534.114-.6C1.994.665,1.234.146.353,0c-.385-.062-.5.534-.113.6" transform="translate(309.2 12.531)" fill="#ff9ba7"/>
    <path id="패스_80513" data-name="패스 80513" d="M1.845,1.743a1.052,1.052,0,1,1-.1-1.484,1.052,1.052,0,0,1,.1,1.484" transform="translate(308.444 11.781)" fill="#ff9ba7"/>
    <path id="패스_80514" data-name="패스 80514" d="M1.845,1.743a1.052,1.052,0,1,1-.1-1.484,1.052,1.052,0,0,1,.1,1.484" transform="translate(312.211 17.803)" fill="#ff9ba7"/>
    <path id="패스_80515" data-name="패스 80515" d="M1.845,1.743a1.052,1.052,0,1,1-.1-1.484,1.052,1.052,0,0,1,.1,1.484" transform="translate(318.705 15.893)" fill="#ff9ba7"/>
    <path id="패스_80516" data-name="패스 80516" d="M1.845,1.743a1.052,1.052,0,1,1-.1-1.484,1.052,1.052,0,0,1,.1,1.484" transform="translate(318.401 12.302)" fill="#ff9ba7"/>
    <path id="패스_80517" data-name="패스 80517" d="M1.845,1.743a1.052,1.052,0,1,1-.1-1.484,1.052,1.052,0,0,1,.1,1.484" transform="translate(313.543 8.068)" fill="#ff9ba7"/>
    <g id="그룹_57710" data-name="그룹 57710">
      <path id="패스_80542" data-name="패스 80542" d="M14.419,12.579a3.676,3.676,0,0,0-.473-3.247c2.028-1.129,3.477-3.862,1.53-5.4a3.975,3.975,0,0,0-4.04-.564C10.976,1.055,7.81-1.194,5.6.722A3.565,3.565,0,0,0,4.228,3.8C1.715,3.627-1.247,6.366.552,8.893a4.154,4.154,0,0,0,2.411,1.725c-.887,2.135-.37,5.133,3.175,4.686a2.95,2.95,0,0,0,2.38-1.669c1.818,1.419,5.173,1.509,5.9-1.055" transform="translate(286.266 164.699)" fill="#fff"/>
      <path id="패스_80543" data-name="패스 80543" d="M1.9,0A2.619,2.619,0,0,0,.025,2.877c.282,2.286,3.6,1.071,3.99.085A2.089,2.089,0,0,0,1.9,0" transform="translate(292.285 170.393)" fill="#ffc7c6"/>
      <path id="패스_80544" data-name="패스 80544" d="M.043.289A6.851,6.851,0,0,1,.562.961C.684,1.145.993.99.87.8A7.474,7.474,0,0,0,.3.059C.155-.11-.1.12.043.289" transform="translate(293.214 170.008)" fill="#ff9ba7"/>
      <path id="패스_80545" data-name="패스 80545" d="M.248.948,1.466.328A.173.173,0,0,0,1.31.02L.091.641A.173.173,0,0,0,.248.948" transform="translate(295.235 170.77)" fill="#ff9ba7"/>
      <path id="패스_80546" data-name="패스 80546" d="M.107.345C.458.5.824.627,1.173.787c.2.093.307-.237.107-.328C.93.3.564.176.214.016.012-.076-.093.253.107.345" transform="translate(295.788 171.947)" fill="#ff9ba7"/>
      <path id="패스_80547" data-name="패스 80547" d="M0,.206A9.335,9.335,0,0,1,.066,1.442c0,.221.347.239.345.016A10.078,10.078,0,0,0,.339.133C.308-.088-.029-.013,0,.206" transform="translate(294.29 173.41)" fill="#ff9ba7"/>
      <path id="패스_80548" data-name="패스 80548" d="M.2.486C.7.363,1.208.465,1.7.343c.216-.054.143-.391-.074-.337C1.136.128.623.026.13.148-.086.2-.013.54.2.486" transform="translate(291.13 172.574)" fill="#ff9ba7"/>
      <path id="패스_80549" data-name="패스 80549" d="M1.168.783A.6.6,0,1,1,.783.029a.6.6,0,0,1,.384.754" transform="translate(290.698 172.293)" fill="#ff9ba7"/>
      <path id="패스_80550" data-name="패스 80550" d="M1.168.783A.6.6,0,1,1,.783.029a.6.6,0,0,1,.384.754" transform="translate(294.013 174.605)" fill="#ff9ba7"/>
      <path id="패스_80551" data-name="패스 80551" d="M1.168.783A.6.6,0,1,1,.783.03a.6.6,0,0,1,.384.754" transform="translate(296.984 172.158)" fill="#ff9ba7"/>
      <path id="패스_80552" data-name="패스 80552" d="M1.168.783A.6.6,0,1,1,.783.029a.6.6,0,0,1,.384.754" transform="translate(296.025 170.344)" fill="#ff9ba7"/>
      <path id="패스_80553" data-name="패스 80553" d="M1.168.783A.6.6,0,1,1,.783.029a.6.6,0,0,1,.384.754" transform="translate(292.539 169.213)" fill="#ff9ba7"/>
    </g>
    <path id="패스_80554" data-name="패스 80554" d="M13.982,9.873a2.672,2.672,0,0,0-.867-2.364c1.713-.53,2.681-2.274.687-3.619a5.226,5.226,0,0,0-3.788-.938C9.283,1.248,6.074-.767,4.3.3a1.63,1.63,0,0,0-.849,2C1.115,1.838-1.242,3.384.747,5.414A5.992,5.992,0,0,0,3.193,6.957c-.53,1.394.343,3.588,3.542,3.743A1.871,1.871,0,0,0,8.7,9.835c1.86,1.248,4.955,1.758,5.283.038" transform="translate(88.711 13.845)" fill="#fff"/>
    <path id="패스_80555" data-name="패스 80555" d="M1.439,0S-.459.133.1,1.79s3.447,1.238,3.678.592S3.6.339,1.439,0" transform="translate(94.36 17.972)" fill="#ffc7c6"/>
    <path id="패스_80556" data-name="패스 80556" d="M.056.188c.2.177.391.358.566.546.137.146.4.077.262-.07Q.592.352.262.06C.105-.079-.1.05.056.188" transform="translate(94.883 17.593)" fill="#ff9ba7"/>
    <path id="패스_80557" data-name="패스 80557" d="M.252.522,1.288.245C1.457.2,1.272-.04,1.1.006L.067.283C-.1.329.083.568.252.522" transform="translate(96.923 18.562)" fill="#ff9ba7"/>
    <path id="패스_80558" data-name="패스 80558" d="M.123.241c.343.16.7.3,1.038.456.2.093.251-.127.055-.218C.873.318.521.182.178.022-.021-.07-.073.149.123.241" transform="translate(97.505 19.306)" fill="#ff9ba7"/>
    <path id="패스_80559" data-name="패스 80559" d="M.007.124a5.9,5.9,0,0,1,.224.884c.031.157.35.215.319.057A6.36,6.36,0,0,0,.307.117C.25-.044-.05-.036.007.124" transform="translate(96.324 20.148)" fill="#ff9ba7"/>
    <path id="패스_80560" data-name="패스 80560" d="M.212.251c.436-.021.921.12,1.358.1C1.76.34,1.649.091,1.457.1,1.021.122.536-.019.1,0-.092.012.019.261.212.251" transform="translate(93.327 19.232)" fill="#ff9ba7"/>
    <path id="패스_80561" data-name="패스 80561" d="M1.1.638C1.051.847.764.924.461.81S-.044.434.008.225.347-.061.65.053s.505.376.454.586" transform="translate(92.926 18.928)" fill="#ff9ba7"/>
    <path id="패스_80562" data-name="패스 80562" d="M1.1.638C1.051.847.764.924.462.81S-.044.434.008.225.347-.061.65.053s.505.376.453.585" transform="translate(96.28 21.007)" fill="#ff9ba7"/>
    <path id="패스_80563" data-name="패스 80563" d="M1.1.638C1.051.847.764.924.462.81S-.044.434.008.225.347-.061.65.053s.505.376.453.585" transform="translate(98.686 19.668)" fill="#ff9ba7"/>
    <path id="패스_80564" data-name="패스 80564" d="M1.1.638C1.051.848.764.925.462.81S-.044.434.008.225.347-.061.65.053s.505.376.453.585" transform="translate(97.562 18.256)" fill="#ff9ba7"/>
    <path id="패스_80565" data-name="패스 80565" d="M1.1.638C1.051.847.764.925.461.81S-.044.434.008.225.347-.061.65.053s.506.376.454.586" transform="translate(94.207 16.989)" fill="#ff9ba7"/>
    <path id="패스_80602" data-name="패스 80602" d="M8.055,13.142a3.251,3.251,0,0,0,1.781-2.289c1.961.6,4.591-.145,4.377-2.326A3.512,3.512,0,0,0,12.1,5.606C13.3,3.9,12.8.5,10.218.261a3.152,3.152,0,0,0-2.8,1.01C5.99-.437,2.432-.65,1.921,2.043A3.673,3.673,0,0,0,2.3,4.636c-1.9.741-3.5,2.9-1.046,4.892a2.607,2.607,0,0,0,2.521.5c.207,2.028,2.2,4.222,4.284,3.118" transform="translate(235.979 6.627)" fill="#fff"/>
    <path id="패스_80603" data-name="패스 80603" d="M3.311.318A2.315,2.315,0,0,0,.332.887C-.954,2.465,1.85,3.835,2.719,3.483A1.846,1.846,0,0,0,3.311.318" transform="translate(241.133 11.09)" fill="#ffc7c6"/>
    <path id="패스_80604" data-name="패스 80604" d="M.115.136A5.988,5.988,0,0,1,0,.878c-.042.19.246.292.288.1A6.456,6.456,0,0,0,.419.159a.153.153,0,0,0-.3-.024" transform="translate(243.825 10.626)" fill="#ff9ba7"/>
    <path id="패스_80605" data-name="패스 80605" d="M.1.3l1.142.4a.153.153,0,0,0,.1-.289L.2.009A.153.153,0,0,0,.1.3" transform="translate(244.298 12.754)" fill="#ff9ba7"/>
    <path id="패스_80606" data-name="패스 80606" d="M.01.222c.113.321.258.629.37.951.065.186.339.051.275-.133C.542.718.4.41.285.089.22-.1-.055.038.01.222" transform="translate(244.273 13.442)" fill="#ff9ba7"/>
    <path id="패스_80607" data-name="패스 80607" d="M.8.061a8.3,8.3,0,0,1-.749.8c-.14.137.06.367.2.229a8.864,8.864,0,0,0,.8-.857C1.171.076.917-.093.8.061" transform="translate(241.66 13.393)" fill="#ff9ba7"/>
    <path id="패스_80608" data-name="패스 80608" d="M.068.278C.447.517.7.907,1.076,1.146c.166.1.337-.148.17-.253C.867.654.618.264.238.025.072-.08-.1.173.068.278" transform="translate(240.932 10.947)" fill="#ff9ba7"/>
    <path id="패스_80609" data-name="패스 80609" d="M.759,1A.529.529,0,1,1,1,.3.529.529,0,0,1,.759,1" transform="translate(240.557 10.569)" fill="#ff9ba7"/>
    <path id="패스_80610" data-name="패스 80610" d="M.759,1A.529.529,0,1,1,1.005.3.529.529,0,0,1,.759,1" transform="translate(241.111 14.098)" fill="#ff9ba7"/>
    <path id="패스_80611" data-name="패스 80611" d="M.759,1A.529.529,0,1,1,1.005.3.529.529,0,0,1,.759,1" transform="translate(244.491 14.496)" fill="#ff9ba7"/>
    <path id="패스_80612" data-name="패스 80612" d="M.759,1A.529.529,0,1,1,1,.3.528.528,0,0,1,.759,1" transform="translate(245.059 12.775)" fill="#ff9ba7"/>
    <path id="패스_80613" data-name="패스 80613" d="M.759,1.005A.529.529,0,1,1,1.005.3a.529.529,0,0,1-.246.706" transform="translate(243.648 9.859)" fill="#ff9ba7"/>
    <g id="그룹_57680" data-name="그룹 57680" transform="translate(26.583 195.293)">
      <path id="패스_80614" data-name="패스 80614" d="M5.253,8.571A2.12,2.12,0,0,0,6.415,7.078c1.279.393,2.994-.095,2.854-1.517A2.291,2.291,0,0,0,7.892,3.656C8.672,2.541,8.345.326,6.664.171A2.056,2.056,0,0,0,4.837.829c-.93-1.114-3.251-1.253-3.585.5A2.4,2.4,0,0,0,1.5,3.023C.256,3.506-.785,4.918.816,6.214a1.7,1.7,0,0,0,1.644.323C2.595,7.86,3.9,9.291,5.253,8.571" transform="translate(0 0)" fill="#fff"/>
      <path id="패스_80615" data-name="패스 80615" d="M2.16.208A1.51,1.51,0,0,0,.216.578c-.838,1.029.99,1.923,1.557,1.693A1.2,1.2,0,0,0,2.16.208" transform="translate(3.361 2.91)" fill="#ffc7c6"/>
      <path id="패스_80616" data-name="패스 80616" d="M.075.088A3.921,3.921,0,0,1,0,.573C-.024.7.163.763.191.638A4.249,4.249,0,0,0,.273.1a.1.1,0,0,0-.2-.016" transform="translate(5.117 2.607)" fill="#ff9ba7"/>
      <path id="패스_80617" data-name="패스 80617" d="M.064.194.809.453A.1.1,0,0,0,.873.265L.129.006A.1.1,0,0,0,.064.194" transform="translate(5.425 3.995)" fill="#ff9ba7"/>
      <path id="패스_80618" data-name="패스 80618" d="M.006.144c.073.21.168.411.241.62C.29.886.469.8.426.678.353.468.259.267.185.058.143-.063-.036.025.006.144" transform="translate(5.409 4.445)" fill="#ff9ba7"/>
      <path id="패스_80619" data-name="패스 80619" d="M.52.04a5.461,5.461,0,0,1-.489.52C-.06.649.07.8.162.709A5.766,5.766,0,0,0,.685.15C.764.05.6-.061.52.04" transform="translate(3.704 4.412)" fill="#ff9ba7"/>
      <path id="패스_80620" data-name="패스 80620" d="M.045.182C.292.337.454.591.7.748.81.816.922.651.813.582.565.426.4.172.155.016c-.108-.068-.22.1-.111.165" transform="translate(3.231 2.817)" fill="#ff9ba7"/>
      <path id="패스_80621" data-name="패스 80621" d="M.5.655A.345.345,0,1,1,.655.194.345.345,0,0,1,.5.655" transform="translate(2.986 2.571)" fill="#ff9ba7"/>
      <path id="패스_80622" data-name="패스 80622" d="M.5.655A.345.345,0,1,1,.655.194.345.345,0,0,1,.5.655" transform="translate(3.347 4.873)" fill="#ff9ba7"/>
      <path id="패스_80623" data-name="패스 80623" d="M.5.656A.345.345,0,1,1,.655.195.345.345,0,0,1,.5.656" transform="translate(5.551 5.133)" fill="#ff9ba7"/>
      <path id="패스_80624" data-name="패스 80624" d="M.5.655a.345.345,0,1,1,.16-.46A.344.344,0,0,1,.5.655" transform="translate(5.921 4.01)" fill="#ff9ba7"/>
      <path id="패스_80625" data-name="패스 80625" d="M.5.655A.345.345,0,1,1,.655.195.345.345,0,0,1,.5.655" transform="translate(5.002 2.108)" fill="#ff9ba7"/>
    </g>
    <path id="패스_80662" data-name="패스 80662" d="M5.253,8.571A2.12,2.12,0,0,0,6.415,7.078c1.279.393,2.994-.095,2.854-1.516A2.291,2.291,0,0,0,7.892,3.656C8.672,2.54,8.345.326,6.664.171A2.055,2.055,0,0,0,4.837.829c-.93-1.114-3.251-1.253-3.584.5A2.4,2.4,0,0,0,1.5,3.023C.256,3.506-.785,4.918.816,6.214a1.7,1.7,0,0,0,1.644.324C2.595,7.86,3.9,9.291,5.253,8.571" transform="translate(282.681 36.006)" fill="#fff"/>
    <path id="패스_80663" data-name="패스 80663" d="M2.159.207A1.509,1.509,0,0,0,.217.578c-.839,1.029.99,1.923,1.557,1.693A1.2,1.2,0,0,0,2.159.207" transform="translate(286.044 38.917)" fill="#ffc7c6"/>
    <path id="패스_80664" data-name="패스 80664" d="M.075.088A3.9,3.9,0,0,1,0,.573C-.025.7.163.764.191.638A4.137,4.137,0,0,0,.273.1a.1.1,0,0,0-.2-.016" transform="translate(287.798 38.613)" fill="#ff9ba7"/>
    <path id="패스_80665" data-name="패스 80665" d="M.064.194.809.453A.1.1,0,0,0,.874.265L.13.006A.1.1,0,0,0,.064.194" transform="translate(288.107 40.001)" fill="#ff9ba7"/>
    <path id="패스_80666" data-name="패스 80666" d="M.006.145c.073.21.168.411.241.62C.29.886.469.8.427.678.354.468.259.267.185.058.143-.063-.036.025.006.145" transform="translate(288.091 40.451)" fill="#ff9ba7"/>
    <path id="패스_80667" data-name="패스 80667" d="M.519.04a5.4,5.4,0,0,1-.488.52C-.06.649.07.8.162.709A5.765,5.765,0,0,0,.684.15C.764.05.6-.061.519.04" transform="translate(286.387 40.418)" fill="#ff9ba7"/>
    <path id="패스_80668" data-name="패스 80668" d="M.045.181C.292.337.455.591.7.748.81.816.922.651.813.582.566.427.4.172.156.016c-.108-.068-.22.1-.111.165" transform="translate(285.912 38.824)" fill="#ff9ba7"/>
    <path id="패스_80669" data-name="패스 80669" d="M.5.655A.345.345,0,1,1,.655.195.345.345,0,0,1,.5.655" transform="translate(285.668 38.577)" fill="#ff9ba7"/>
    <path id="패스_80670" data-name="패스 80670" d="M.5.655A.345.345,0,1,1,.655.194.344.344,0,0,1,.5.655" transform="translate(286.029 40.878)" fill="#ff9ba7"/>
    <path id="패스_80671" data-name="패스 80671" d="M.5.655A.345.345,0,1,1,.656.195.345.345,0,0,1,.5.655" transform="translate(288.233 41.138)" fill="#ff9ba7"/>
    <path id="패스_80672" data-name="패스 80672" d="M.5.655a.345.345,0,1,1,.16-.46A.345.345,0,0,1,.5.655" transform="translate(288.604 40.015)" fill="#ff9ba7"/>
    <path id="패스_80673" data-name="패스 80673" d="M.5.656A.345.345,0,1,1,.655.195.346.346,0,0,1,.5.656" transform="translate(287.684 38.113)" fill="#ff9ba7"/>
    <path id="패스_80674" data-name="패스 80674" d="M5.253,8.571A2.12,2.12,0,0,0,6.415,7.078c1.279.393,2.995-.095,2.854-1.516A2.289,2.289,0,0,0,7.891,3.656C8.672,2.54,8.345.326,6.664.171A2.054,2.054,0,0,0,4.837.829c-.93-1.114-3.251-1.253-3.585.5A2.4,2.4,0,0,0,1.5,3.023C.256,3.506-.785,4.917.815,6.214a1.7,1.7,0,0,0,1.644.323C2.595,7.86,3.9,9.291,5.253,8.571" transform="translate(274.103 53.864)" fill="#fff"/>
    <path id="패스_80675" data-name="패스 80675" d="M2.159.208A1.509,1.509,0,0,0,.216.578c-.839,1.029.99,1.923,1.557,1.693A1.2,1.2,0,0,0,2.159.208" transform="translate(277.465 56.774)" fill="#ffc7c6"/>
    <path id="패스_80676" data-name="패스 80676" d="M.075.089A3.97,3.97,0,0,1,0,.573C-.025.7.163.763.191.638A4.241,4.241,0,0,0,.273.1a.1.1,0,0,0-.2-.016" transform="translate(279.22 56.471)" fill="#ff9ba7"/>
    <path id="패스_80677" data-name="패스 80677" d="M.064.194.809.453A.1.1,0,0,0,.874.265L.13.006A.1.1,0,0,0,.064.194" transform="translate(279.529 57.859)" fill="#ff9ba7"/>
    <path id="패스_80678" data-name="패스 80678" d="M.006.144c.073.21.168.411.241.62C.29.886.469.8.427.678.353.468.259.268.185.058.143-.063-.036.025.006.144" transform="translate(279.512 58.309)" fill="#ff9ba7"/>
    <path id="패스_80679" data-name="패스 80679" d="M.519.04a5.458,5.458,0,0,1-.489.52C-.06.649.07.8.162.709A5.747,5.747,0,0,0,.684.15C.764.049.6-.061.519.04" transform="translate(277.809 58.276)" fill="#ff9ba7"/>
    <path id="패스_80680" data-name="패스 80680" d="M.045.181C.292.337.454.592.7.748.81.816.921.651.813.582.565.427.4.173.155.016c-.108-.068-.22.1-.111.165" transform="translate(277.334 56.681)" fill="#ff9ba7"/>
    <path id="패스_80681" data-name="패스 80681" d="M.5.656A.345.345,0,1,1,.655.195.345.345,0,0,1,.5.656" transform="translate(277.089 56.435)" fill="#ff9ba7"/>
    <path id="패스_80682" data-name="패스 80682" d="M.5.655A.345.345,0,1,1,.655.194.344.344,0,0,1,.5.655" transform="translate(277.451 58.736)" fill="#ff9ba7"/>
    <path id="패스_80683" data-name="패스 80683" d="M.5.655A.345.345,0,1,1,.655.195.345.345,0,0,1,.5.655" transform="translate(279.655 58.996)" fill="#ff9ba7"/>
    <path id="패스_80684" data-name="패스 80684" d="M.5.655A.345.345,0,1,1,.655.195.345.345,0,0,1,.5.655" transform="translate(280.025 57.873)" fill="#ff9ba7"/>
    <path id="패스_80685" data-name="패스 80685" d="M.495.655A.345.345,0,1,1,.655.195a.345.345,0,0,1-.16.461" transform="translate(279.105 55.971)" fill="#ff9ba7"/>
    <path id="패스_80722" data-name="패스 80722" d="M10.72,17.49a4.328,4.328,0,0,0,2.37-3.046c2.609.8,6.11-.193,5.825-3.094A4.675,4.675,0,0,0,16.1,7.461C17.7,5.183,17.028.665,13.6.348A4.193,4.193,0,0,0,9.87,1.693C7.972-.581,3.236-.865,2.556,2.718a4.887,4.887,0,0,0,.5,3.451C.522,7.155-1.6,10.035,1.665,12.68a3.468,3.468,0,0,0,3.355.66c.276,2.7,2.931,5.619,5.7,4.149" transform="translate(204.615 30.041)" fill="#fff"/>
    <path id="패스_80723" data-name="패스 80723" d="M4.406.424A3.08,3.08,0,0,0,.442,1.18c-1.711,2.1,2.02,3.924,3.177,3.455A2.456,2.456,0,0,0,4.406.424" transform="translate(211.475 35.981)" fill="#ffc7c6"/>
    <path id="패스_80724" data-name="패스 80724" d="M.153.18a8.028,8.028,0,0,1-.148.988c-.056.253.327.389.383.133A8.5,8.5,0,0,0,.558.212.2.2,0,0,0,.153.18" transform="translate(215.057 35.362)" fill="#ff9ba7"/>
    <path id="패스_80725" data-name="패스 80725" d="M.131.4,1.65.924A.2.2,0,0,0,1.783.54L.264.012A.2.2,0,0,0,.131.4" transform="translate(215.686 38.194)" fill="#ff9ba7"/>
    <path id="패스_80726" data-name="패스 80726" d="M.013.295c.15.428.344.838.492,1.265.087.247.451.068.366-.177C.721.956.528.546.379.118.292-.129-.073.051.013.295" transform="translate(215.653 39.112)" fill="#ff9ba7"/>
    <path id="패스_80727" data-name="패스 80727" d="M1.06.081a11.07,11.07,0,0,1-1,1.061c-.186.181.08.489.268.305A11.806,11.806,0,0,0,1.4.307C1.559.1,1.221-.124,1.06.081" transform="translate(212.176 39.044)" fill="#ff9ba7"/>
    <path id="패스_80728" data-name="패스 80728" d="M.091.37c.5.318.836.837,1.341,1.155.221.14.449-.2.227-.337C1.154.87.823.351.317.033.1-.106-.132.23.091.37" transform="translate(211.208 35.791)" fill="#ff9ba7"/>
    <path id="패스_80729" data-name="패스 80729" d="M1.011,1.338A.7.7,0,1,1,1.337.4a.7.7,0,0,1-.326.94" transform="translate(210.708 35.288)" fill="#ff9ba7"/>
    <path id="패스_80730" data-name="패스 80730" d="M1.01,1.337A.7.7,0,1,1,1.337.4a.7.7,0,0,1-.327.94" transform="translate(211.446 39.983)" fill="#ff9ba7"/>
    <path id="패스_80731" data-name="패스 80731" d="M1.01,1.338A.7.7,0,1,1,1.338.4a.7.7,0,0,1-.327.94" transform="translate(215.944 40.512)" fill="#ff9ba7"/>
    <path id="패스_80732" data-name="패스 80732" d="M1.01,1.338A.7.7,0,1,1,1.337.4a.7.7,0,0,1-.327.94" transform="translate(216.699 38.223)" fill="#ff9ba7"/>
    <path id="패스_80733" data-name="패스 80733" d="M1.01,1.338A.7.7,0,1,1,1.338.4a.7.7,0,0,1-.327.94" transform="translate(214.822 34.342)" fill="#ff9ba7"/>
    <path id="패스_80734" data-name="패스 80734" d="M5.253,8.571A2.12,2.12,0,0,0,6.415,7.078c1.279.393,2.994-.095,2.855-1.516A2.29,2.29,0,0,0,7.892,3.656C8.672,2.54,8.345.326,6.664.17A2.055,2.055,0,0,0,4.837.829c-.93-1.114-3.251-1.253-3.584.5A2.4,2.4,0,0,0,1.5,3.023C.256,3.506-.785,4.917.816,6.214a1.7,1.7,0,0,0,1.644.324C2.6,7.86,3.9,9.291,5.253,8.571" transform="translate(267.625 9.122)" fill="#fff"/>
    <path id="패스_80735" data-name="패스 80735" d="M2.159.208A1.509,1.509,0,0,0,.216.578c-.838,1.029.99,1.923,1.557,1.693A1.2,1.2,0,0,0,2.159.208" transform="translate(270.986 12.032)" fill="#ffc7c6"/>
    <path id="패스_80736" data-name="패스 80736" d="M.075.088A3.958,3.958,0,0,1,0,.573C-.025.7.163.764.191.638A4.227,4.227,0,0,0,.273.1a.1.1,0,0,0-.2-.016" transform="translate(272.741 11.729)" fill="#ff9ba7"/>
    <path id="패스_80737" data-name="패스 80737" d="M.064.194.809.453A.1.1,0,0,0,.874.265L.13.006A.1.1,0,0,0,.064.194" transform="translate(273.05 13.117)" fill="#ff9ba7"/>
    <path id="패스_80738" data-name="패스 80738" d="M.006.144c.074.21.168.411.241.62C.29.886.469.8.427.678.353.468.259.268.185.058.143-.063-.036.025.006.144" transform="translate(273.033 13.566)" fill="#ff9ba7"/>
    <path id="패스_80739" data-name="패스 80739" d="M.52.04A5.465,5.465,0,0,1,.031.56C-.06.649.07.8.162.709A5.761,5.761,0,0,0,.685.15C.764.05.6-.061.52.04" transform="translate(271.329 13.534)" fill="#ff9ba7"/>
    <path id="패스_80740" data-name="패스 80740" d="M.045.181C.292.337.454.592.7.748.81.816.922.651.813.582.565.427.4.172.155.016c-.108-.068-.22.1-.111.165" transform="translate(270.856 11.939)" fill="#ff9ba7"/>
    <path id="패스_80741" data-name="패스 80741" d="M.5.655A.345.345,0,1,1,.655.195.345.345,0,0,1,.5.655" transform="translate(270.61 11.693)" fill="#ff9ba7"/>
    <path id="패스_80742" data-name="패스 80742" d="M.5.655A.345.345,0,1,1,.655.195.344.344,0,0,1,.5.655" transform="translate(270.972 13.994)" fill="#ff9ba7"/>
    <path id="패스_80743" data-name="패스 80743" d="M.5.655A.345.345,0,1,1,.656.195.345.345,0,0,1,.5.655" transform="translate(273.176 14.254)" fill="#ff9ba7"/>
    <path id="패스_80744" data-name="패스 80744" d="M.5.655a.345.345,0,1,1,.16-.46A.345.345,0,0,1,.5.655" transform="translate(273.546 13.131)" fill="#ff9ba7"/>
    <path id="패스_80745" data-name="패스 80745" d="M.5.656A.345.345,0,1,1,.655.195.346.346,0,0,1,.5.656" transform="translate(272.626 11.229)" fill="#ff9ba7"/>
    <path id="패스_80746" data-name="패스 80746" d="M2.653,8.787a2.121,2.121,0,0,0,1.778-.645C5.3,9.156,7.016,9.657,7.655,8.38A2.29,2.29,0,0,0,7.5,6.033c1.255-.529,2.158-2.577.818-3.6a2.054,2.054,0,0,0-1.9-.416C6.231.575,4.341-.779,3.123.53A2.394,2.394,0,0,0,2.43,2.091C1.121,1.839-.511,2.479.153,4.429a1.7,1.7,0,0,0,1.219,1.15c-.59,1.191-.251,3.1,1.281,3.209" transform="translate(207.744 17.845)" fill="#fff"/>
    <path id="패스_80747" data-name="패스 80747" d="M2.427.816A1.509,1.509,0,0,0,.585.094C-.673.518.4,2.249,1,2.356A1.2,1.2,0,0,0,2.427.816" transform="translate(211.102 21.345)" fill="#ffc7c6"/>
    <path id="패스_80748" data-name="패스 80748" d="M.35.039A4.016,4.016,0,0,1,.031.41C-.058.5.065.657.155.565A4.191,4.191,0,0,0,.509.157C.588.055.428-.063.35.039" transform="translate(213.125 21.59)" fill="#ff9ba7"/>
    <path id="패스_80749" data-name="패스 80749" d="M.022.161.514.777A.1.1,0,0,0,.669.652L.177.037A.1.1,0,0,0,.022.161" transform="translate(212.91 22.889)" fill="#ff9ba7"/>
    <path id="패스_80750" data-name="패스 80750" d="M.129.083C.08.3.053.52,0,.736-.026.861.172.882.2.759.25.542.277.321.327.1.355-.02.157-.041.129.083" transform="translate(212.527 23.267)" fill="#ff9ba7"/>
    <path id="패스_80751" data-name="패스 80751" d="M.77.006a5.428,5.428,0,0,1-.69.18c-.125.027-.095.224.031.2A5.755,5.755,0,0,0,.851.189C.971.145.89-.036.77.006" transform="translate(210.951 22.592)" fill="#ff9ba7"/>
    <path id="패스_80752" data-name="패스 80752" d="M.01.137C.137.4.139.7.265.966.32,1.081.5,1,.447.886.321.622.319.32.192.056.137-.059-.045.021.01.137" transform="translate(211.681 20.726)" fill="#ff9ba7"/>
    <path id="패스_80753" data-name="패스 80753" d="M.307.688a.345.345,0,1,1,.381-.3.345.345,0,0,1-.381.3" transform="translate(211.438 20.478)" fill="#ff9ba7"/>
    <path id="패스_80754" data-name="패스 80754" d="M.306.688a.345.345,0,1,1,.381-.3.344.344,0,0,1-.381.3" transform="translate(210.519 22.617)" fill="#ff9ba7"/>
    <path id="패스_80755" data-name="패스 80755" d="M.307.688a.345.345,0,1,1,.381-.3.345.345,0,0,1-.381.3" transform="translate(212.245 24.012)" fill="#ff9ba7"/>
    <path id="패스_80756" data-name="패스 80756" d="M.307.688a.345.345,0,1,1,.381-.3.345.345,0,0,1-.381.3" transform="translate(213.156 23.259)" fill="#ff9ba7"/>
    <path id="패스_80757" data-name="패스 80757" d="M.307.688a.345.345,0,1,1,.381-.3.345.345,0,0,1-.381.3" transform="translate(213.391 21.159)" fill="#ff9ba7"/>
    <path id="패스_80776" data-name="패스 80776" d="M1.439,3.284c1.376-.3.41-2.322.41-2.322S1.567-.679.532.325s-.469,3.26.907,2.959" transform="translate(265.686 78.254)" fill="#ffe3e3"/>
    <path id="패스_80777" data-name="패스 80777" d="M1.787,2.822,2.238,0,0,.2A2.4,2.4,0,0,0,1.787,2.822" transform="translate(262.329 76.918)" fill="#ffe3e3"/>
    <path id="패스_80778" data-name="패스 80778" d="M7.069.714A23.754,23.754,0,0,1,8.89,6c.167,1.761-2.685.562-2.977-1.677,0,0-.4,2.544-1.436,2.53S1.023,5.142,3.362,2.728c0,0-2.561.826-3.3-1.335S4.859.225,6.384.245c0,0,.427-.1.685.468" transform="translate(260.927 74.734)" fill="#fff"/>
    <path id="패스_80779" data-name="패스 80779" d="M.2,2.357A6.651,6.651,0,0,0,1.388.174.125.125,0,1,0,1.152.1,6.282,6.282,0,0,1,.041,2.155c-.117.134.043.337.161.2" transform="translate(266.226 75.351)" fill="#ffe3e3"/>
    <path id="패스_80780" data-name="패스 80780" d="M.209,1.2C.569.877.948.579,1.3.24c.128-.123-.033-.325-.161-.2C.788.376.409.675.049,1c-.131.12.031.321.16.2" transform="translate(266.183 75.039)" fill="#ffe3e3"/>
    <path id="패스_80781" data-name="패스 80781" d="M.436,1.629A9.455,9.455,0,0,0,.251.1C.222-.074-.027,0,0,.172A8.954,8.954,0,0,1,.184,1.629a.126.126,0,1,0,.252,0" transform="translate(267.838 76.057)" fill="#ffe3e3"/>
    <path id="패스_80782" data-name="패스 80782" d="M.112.318C1.2.253,2.27.4,3.358.282c.161-.018.184-.3.021-.281C2.291.123,1.218-.028.133.036-.029.046-.051.328.112.318" transform="translate(263.77 75.21)" fill="#ffe3e3"/>
    <path id="패스_80783" data-name="패스 80783" d="M2.969,1.843C3.511.543,1.3.177,1.3.177S-.206-.532.024.891s2.4,2.253,2.945.953" transform="translate(277.888 20.79)" fill="#ffe3e3"/>
    <path id="패스_80784" data-name="패스 80784" d="M3.173,1.987,1.12,0,0,1.948a2.4,2.4,0,0,0,3.173.039" transform="translate(274.485 22.081)" fill="#ffe3e3"/>
    <path id="패스_80785" data-name="패스 80785" d="M4.107.021A23.752,23.752,0,0,1,9.482,1.557C11.021,2.43,8.4,4.08,6.4,3.035c0,0,1.858,1.784,1.25,2.627S4.27,7.513,3.633,4.213c0,0-.791,2.572-2.983,1.935S2.44,1.551,3.33.314c0,0,.16-.409.776-.293" transform="translate(272.257 18.408)" fill="#fff"/>
    <path id="패스_80786" data-name="패스 80786" d="M1.338,2.286A6.649,6.649,0,0,0,.229.061a.125.125,0,1,0-.2.15A6.277,6.277,0,0,1,1.08,2.3c.043.173.3.158.258-.016" transform="translate(275.98 18.724)" fill="#ffe3e3"/>
    <path id="패스_80787" data-name="패스 80787" d="M.424,1.571C.362,1.089.335.607.259.124.232-.052-.025-.035,0,.14.077.622.1,1.1.166,1.587c.023.176.28.159.257-.016" transform="translate(275.673 18.628)" fill="#ffe3e3"/>
    <path id="패스_80788" data-name="패스 80788" d="M1.529.739A9.432,9.432,0,0,0,.17.015C.01-.062-.074.182.086.259a8.958,8.958,0,0,1,1.3.686A.126.126,0,1,0,1.529.739" transform="translate(276.83 18.744)" fill="#ffe3e3"/>
    <path id="패스_80789" data-name="패스 80789" d="M.238,2.912C.807,1.985,1.546,1.193,2.069.231c.078-.142-.14-.323-.218-.178C1.328,1.015.588,1.807.019,2.734c-.085.138.133.317.219.178" transform="translate(273.834 18.934)" fill="#ffe3e3"/>
    <path id="패스_80804" data-name="패스 80804" d="M.043,1.025c-.424,1.723,2.4,1.752,2.4,1.752s2.012.592,1.452-1.135S.467-.7.043,1.025" transform="translate(281.967 11.839)" fill="#ffe3e3"/>
    <path id="패스_80805" data-name="패스 80805" d="M0,1.018,2.939,3.094,3.956.454C1.337-.83,0,1.018,0,1.018" transform="translate(285.714 9.444)" fill="#ffe3e3"/>
    <path id="패스_80806" data-name="패스 80806" d="M7.69,8.319s-4.9-.085-6.984-.874S1.56,4.1,4.253,5.011c0,0-2.655-1.861-2.062-3.027S6.04-.971,7.47,3.011c0,0,.488-3.352,3.338-2.983S9.468,6.093,8.6,7.805c0,0-.12.54-.909.514" transform="translate(280.722 8.909)" fill="#fff"/>
    <path id="패스_80807" data-name="패스 80807" d="M.015.195a8.388,8.388,0,0,0,1.81,2.553.157.157,0,1,0,.217-.226A7.906,7.906,0,0,1,.333.125c-.087-.207-.4-.138-.318.07" transform="translate(286.712 14.007)" fill="#ffe3e3"/>
    <path id="패스_80808" data-name="패스 80808" d="M.008.2c.17.588.3,1.183.484,1.769.068.214.385.143.317-.069C.623,1.313.5.718.325.13.263-.085-.054-.014.008.2" transform="translate(288.394 14.775)" fill="#ffe3e3"/>
    <path id="패스_80809" data-name="패스 80809" d="M.1.3A11.889,11.889,0,0,0,1.93.943c.214.064.272-.256.057-.32A11.311,11.311,0,0,1,.24.021.159.159,0,1,0,.1.3" transform="translate(285.626 15.996)" fill="#ffe3e3"/>
    <path id="패스_80810" data-name="패스 80810" d="M1.772.08C1.242,1.343.476,2.472.01,3.77c-.069.192.237.374.306.179C.782,2.651,1.549,1.523,2.078.26c.079-.188-.227-.369-.306-.18" transform="translate(288.831 12.453)" fill="#ffe3e3"/>
    <path id="패스_80835" data-name="패스 80835" d="M5.6,8.806c-.962,1.528-3.961,2.539-4.8,1.326s.277-2.753,1.382-3.3c0,0-2.873-.318-2.018-2.452a2.848,2.848,0,0,1,5.163-.361S3.726.641,5.611.085,9.434,1.75,8.163,5.421Z" transform="translate(290.11 44.024)" fill="#ffe3e3"/>
    <path id="패스_80836" data-name="패스 80836" d="M.1.276A4.513,4.513,0,0,0,1.659.393c.177,0,.157-.277-.019-.274A4.3,4.3,0,0,1,.155.007C-.013-.048-.064.222.1.276" transform="translate(294.033 50.514)" fill="#ff9ba7"/>
    <path id="패스_80837" data-name="패스 80837" d="M.053.235a6.705,6.705,0,0,0,1.067.69C1.28,1,1.4.754,1.241.679A6.348,6.348,0,0,1,.232.028c-.142-.1-.324.1-.18.207" transform="translate(294.528 49.168)" fill="#ff9ba7"/>
    <path id="패스_80838" data-name="패스 80838" d="M.033.2A6.421,6.421,0,0,0,1.226,1.222c.144.1.325-.106.18-.207A6.174,6.174,0,0,1,.259.05C.144-.081-.085.072.033.2" transform="translate(294.306 46.821)" fill="#ff9ba7"/>
    <path id="패스_80839" data-name="패스 80839" d="M.392,0A.421.421,0,1,1,0,.45.421.421,0,0,1,.392,0" transform="translate(294.031 46.528)" fill="#ff9ba7"/>
    <path id="패스_80840" data-name="패스 80840" d="M.392,0A.421.421,0,1,1,0,.45.421.421,0,0,1,.392,0" transform="translate(294.195 48.882)" fill="#ff9ba7"/>
    <path id="패스_80841" data-name="패스 80841" d="M.392,0A.421.421,0,1,1,0,.451.421.421,0,0,1,.392,0" transform="translate(293.448 50.256)" fill="#ff9ba7"/>
    <path id="패스_80842" data-name="패스 80842" d="M6.939,5.58a1.491,1.491,0,0,1-.156.314c-.258.391-3.923,3.035-4.731,3.14-1.978.256-3.724-3.474.792-4.512-.508-2.349-.288-2.3-.122-2.879.138-.483,2.482-3.187,3.595-.4A8.4,8.4,0,0,1,7.08,4.766a2.788,2.788,0,0,1-.141.814" transform="translate(292.713 45.727)" fill="#fff"/>
    <path id="패스_80843" data-name="패스 80843" d="M1.73,3.037C1.677,1.854.834,1.037.266.07.177-.081-.071.037.019.19c.531.9,1.387,1.715,1.437,2.823.008.175.282.2.274.024" transform="translate(297.977 47.643)" fill="#ffe3e3"/>
    <path id="패스_80844" data-name="패스 80844" d="M1.758.8C1.285.455.714.317.218.021.066-.069-.09.156.062.247c.5.3,1.069.435,1.54.775.144.1.3-.123.156-.227" transform="translate(297.511 50.128)" fill="#ffe3e3"/>
    <path id="패스_80845" data-name="패스 80845" d="M3.369,0A25.162,25.162,0,0,0,.08.433C-.087.492.035.738.2.68A24.827,24.827,0,0,1,3.419.273.137.137,0,0,0,3.369,0" transform="translate(295.734 51.152)" fill="#ffe3e3"/>
    <path id="패스_80846" data-name="패스 80846" d="M1.782.022C1.222.382.591.614.052,1.009c-.143.1.038.312.18.208C.751.837,1.363.616,1.9.268c.147-.095.029-.343-.12-.247" transform="translate(297.211 51.551)" fill="#ffe3e3"/>
    <path id="패스_80847" data-name="패스 80847" d="M0,1.5C-.078,3.219,1.495,4.136,2.391,4.517,1.3,5.376-.205,6.937,1,8.336a3.045,3.045,0,0,0,3.689.616c.117,1,.745,1.824,2.336,1.5C9.584,9.93,8.9,7.768,8.192,6.91l.08-.01S7.51,2.984,6.961,2.243c-.2-.266-.778-.2-1.355-.089l.315-.311C5.089-.161.117-.89,0,1.5" transform="translate(198.325 14.593)" fill="#ffe3e3"/>
    <path id="패스_80848" data-name="패스 80848" d="M.9.118S-.733,1.2.4,2.559s2.187.763,2.5.192S3.642,1.482,2.227.245A1.363,1.363,0,0,0,.9.118" transform="translate(202.682 16.842)" fill="#ffc7c6"/>
    <path id="패스_80849" data-name="패스 80849" d="M.3,1.131C.33.806.358.482.364.155c0-.192-.3-.214-.3-.019C.058.462.03.786,0,1.111a.151.151,0,0,0,.3.02" transform="translate(204.828 19.657)" fill="#ff9ba7"/>
    <path id="패스_80850" data-name="패스 80850" d="M.294.848C.37.627.449.407.543.192.62.014.336-.083.258.093.165.308.086.528.009.75a.151.151,0,0,0,.284.1" transform="translate(203.54 19.792)" fill="#ff9ba7"/>
    <path id="패스_80851" data-name="패스 80851" d="M.218.946A3.446,3.446,0,0,0,1.1.263C1.247.141,1.05-.087.9.035a3.212,3.212,0,0,1-.813.64C-.1.743.038,1.013.218.946" transform="translate(202.095 19.215)" fill="#ff9ba7"/>
    <path id="패스_80852" data-name="패스 80852" d="M.054.283a2.932,2.932,0,0,0,.98.537.151.151,0,0,0,.1-.284,2.693,2.693,0,0,1-.908-.5C.08-.093-.089.157.054.283" transform="translate(201.802 17.446)" fill="#ff9ba7"/>
    <path id="패스_80853" data-name="패스 80853" d="M.484.02A.364.364,0,1,1,.02.245.364.364,0,0,1,.484.02" transform="translate(201.417 17.032)" fill="#ff9ba7"/>
    <path id="패스_80854" data-name="패스 80854" d="M.484.02A.365.365,0,1,1,.02.245.364.364,0,0,1,.484.02" transform="translate(201.629 19.822)" fill="#ff9ba7"/>
    <path id="패스_80855" data-name="패스 80855" d="M.484.02A.365.365,0,1,1,.02.245.365.365,0,0,1,.484.02" transform="translate(203.269 20.392)" fill="#ff9ba7"/>
    <path id="패스_80856" data-name="패스 80856" d="M.484.02A.365.365,0,1,1,.02.245.365.365,0,0,1,.484.02" transform="translate(204.623 20.803)" fill="#ff9ba7"/>
    <path id="패스_80857" data-name="패스 80857" d="M.229.769C-.942,2.964,2.763,3.541,2.763,3.541a14.19,14.19,0,0,0,1.926.454A22.452,22.452,0,0,1,4.6,8.2c-.265.736,3.309,1.3,3.519-1.691C8.312,3.744,5.9,3.052,4.9,3.714c-.057-.177-.191-.441-.334-.8C4.064,1.645,1.4-1.425.229.769" transform="translate(200.627 13.63)" fill="#fff"/>
    <g id="그룹_57698" data-name="그룹 57698" transform="translate(-258 68.828)">
      <path id="패스_80858" data-name="패스 80858" d="M.008,3.493C-.2,7.507,3.471,9.665,5.564,10.565c-2.565,2-6.1,5.633-3.288,8.916a7.119,7.119,0,0,0,8.62,1.475c.264,2.34,1.724,4.273,5.449,3.531,5.987-1.195,4.4-6.256,2.761-8.272l.188-.021s-1.745-9.166-3.022-10.9c-.459-.624-1.817-.487-3.168-.222l.74-.725C11.918-.348.3-2.1.008,3.493" transform="translate(224.944 83.738)" fill="#ffe3e3"/>
      <path id="패스_80859" data-name="패스 80859" d="M2.125.27S-1.709,2.789.923,5.976s5.107,1.805,5.839.472S8.518,3.488,5.221.581A3.187,3.187,0,0,0,2.125.27" transform="translate(235.108 89.031)" fill="#ffc7c6"/>
      <path id="패스_80860" data-name="패스 80860" d="M.7,2.646C.774,1.887.843,1.127.86.365c.01-.451-.692-.5-.7-.048C.142,1.079.073,1.838,0,2.6a.352.352,0,0,0,.7.049" transform="translate(240.105 95.625)" fill="#ff9ba7"/>
      <path id="패스_80861" data-name="패스 80861" d="M.686,1.982C.867,1.465,1.053.951,1.274.45,1.457.035.793-.2.611.217.389.718.2,1.232.022,1.749a.352.352,0,0,0,.664.233" transform="translate(237.098 95.928)" fill="#ff9ba7"/>
      <path id="패스_80862" data-name="패스 80862" d="M.508,2.2A8.043,8.043,0,0,0,2.566.616C2.921.332,2.464-.2,2.111.08A7.535,7.535,0,0,1,.2,1.57c-.426.157-.119.789.3.634" transform="translate(233.725 94.57)" fill="#ff9ba7"/>
      <path id="패스_80863" data-name="패스 80863" d="M.126.662A6.844,6.844,0,0,0,2.413,1.927a.352.352,0,0,0,.233-.663A6.314,6.314,0,0,1,.527.085c-.338-.3-.735.28-.4.577" transform="translate(233.062 90.426)" fill="#ff9ba7"/>
      <path id="패스_80864" data-name="패스 80864" d="M1.136.049A.853.853,0,1,1,.049.57.853.853,0,0,1,1.136.049" transform="translate(232.161 89.455)" fill="#ff9ba7"/>
      <path id="패스_80865" data-name="패스 80865" d="M1.136.048A.853.853,0,1,1,.048.57.852.852,0,0,1,1.136.048" transform="translate(232.63 95.982)" fill="#ff9ba7"/>
      <path id="패스_80866" data-name="패스 80866" d="M1.136.049A.853.853,0,1,1,.049.57.853.853,0,0,1,1.136.049" transform="translate(236.462 97.33)" fill="#ff9ba7"/>
      <path id="패스_80867" data-name="패스 80867" d="M1.136.049A.853.853,0,1,1,.049.57.853.853,0,0,1,1.136.049" transform="translate(239.623 98.303)" fill="#ff9ba7"/>
      <path id="패스_80868" data-name="패스 80868" d="M.542,1.788c-2.758,5.121,5.9,6.505,5.9,6.505a33.178,33.178,0,0,0,4.5,1.079c.055,1.308.318,8.281-.25,9.835-.627,1.717,7.727,3.075,8.245-3.921.479-6.466-5.153-8.106-7.5-6.569C11.307,8.3,11,7.685,10.665,6.841,9.5,3.872,3.3-3.332.542,1.788" transform="translate(230.336 81.5)" fill="#fff"/>
    </g>
    <path id="패스_80880" data-name="패스 80880" d="M12.538.45C9.045,2.436,9.2,6.691,9.569,8.939,6.5,7.854,1.541,6.834.285,10.967a7.12,7.12,0,0,0,3.4,8.059c-1.83,1.482-2.674,3.753-.043,6.492,4.229,4.4,7.64.34,8.457-2.125l.119.147s6.786-6.4,7.562-8.414c.279-.723-.567-1.794-1.518-2.79l1.008.233C22.187,8.42,17.41-2.318,12.538.45" transform="translate(147.944 22.346)" fill="#ffe3e3"/>
    <path id="패스_80881" data-name="패스 80881" d="M5.8.447S1.616-1.428.348,2.505,1.575,7.781,3.092,7.68s3.44-.113,4.116-4.456A3.187,3.187,0,0,0,5.8.447" transform="translate(159.544 33.813)" fill="#ffc7c6"/>
    <path id="패스_80882" data-name="패스 80882" d="M.519,1.766c.677-.349,1.354-.7,2.006-1.1.385-.234.052-.854-.337-.617C1.536.449.86.8.182,1.148c-.4.207-.067.825.337.618" transform="translate(159.196 40.335)" fill="#ff9ba7"/>
    <path id="패스_80883" data-name="패스 80883" d="M.422,1.018C.955.893,1.488.773,2.03.69,2.478.621,2.315-.064,1.87,0,1.328.088.795.209.262.333a.352.352,0,0,0,.161.685" transform="translate(157.967 38.339)" fill="#ff9ba7"/>
    <path id="패스_80884" data-name="패스 80884" d="M.146.668a8.046,8.046,0,0,0,2.446.88c.431.146.635-.527.207-.672A7.539,7.539,0,0,1,.517.07C.156-.2-.212.4.146.668" transform="translate(157.288 35.086)" fill="#ff9ba7"/>
    <path id="패스_80885" data-name="패스 80885" d="M.064.32A6.844,6.844,0,0,0,.228,2.929a.352.352,0,0,0,.684-.16A6.3,6.3,0,0,1,.766.347C.839-.1.135-.121.064.32" transform="translate(161.602 31.492)" fill="#ff9ba7"/>
    <path id="패스_80886" data-name="패스 80886" d="M1.683.658A.853.853,0,1,1,.658.023.853.853,0,0,1,1.683.658" transform="translate(161.375 30.394)" fill="#ff9ba7"/>
    <path id="패스_80887" data-name="패스 80887" d="M1.683.658A.852.852,0,1,1,.658.023.852.852,0,0,1,1.683.658" transform="translate(156.127 34.301)" fill="#ff9ba7"/>
    <path id="패스_80888" data-name="패스 80888" d="M1.683.658A.852.852,0,1,1,.658.023.853.853,0,0,1,1.683.658" transform="translate(157.054 38.257)" fill="#ff9ba7"/>
    <path id="패스_80889" data-name="패스 80889" d="M1.683.658A.852.852,0,1,1,.658.023.853.853,0,0,1,1.683.658" transform="translate(157.937 41.445)" fill="#ff9ba7"/>
    <path id="패스_80890" data-name="패스 80890" d="M9.7.015C3.9.446,7.39,8.489,7.39,8.489A33.089,33.089,0,0,0,8.9,12.861c-1.073.75-6.808,4.725-8.424,5.083-1.784.4,1.567,8.167,7.743,4.839,5.707-3.076,4.057-8.706,1.5-9.855.279-.334.633-.93,1.166-1.662C12.764,8.689,15.5-.416,9.7.015" transform="translate(157.297 25.653)" fill="#fff"/>
    <path id="패스_80891" data-name="패스 80891" d="M5.291.19c-1.474.838-1.408,2.633-1.253,3.582C2.744,3.314.65,2.884.12,4.628a3,3,0,0,0,1.433,3.4c-.772.625-1.128,1.584-.018,2.739,1.785,1.858,3.224.144,3.569-.9l.05.062s2.863-2.7,3.191-3.55c.117-.3-.239-.757-.64-1.177l.426.1C9.362,3.553,7.346-.978,5.291.19" transform="translate(279.214 64.187)" fill="#ffe3e3"/>
    <path id="패스_80892" data-name="패스 80892" d="M2.448.188S.682-.6.147,1.057.665,3.283,1.3,3.241s1.452-.048,1.736-1.88A1.344,1.344,0,0,0,2.448.188" transform="translate(284.109 69.025)" fill="#ffc7c6"/>
    <path id="패스_80893" data-name="패스 80893" d="M.219.745C.5.6.79.45,1.065.283c.163-.1.022-.36-.142-.26C.648.189.363.338.077.485-.093.572.048.833.219.745" transform="translate(283.962 71.777)" fill="#ff9ba7"/>
    <path id="패스_80894" data-name="패스 80894" d="M.178.43C.4.377.628.326.857.291,1.046.262.977-.027.789,0,.56.037.335.088.11.141A.149.149,0,0,0,.178.43" transform="translate(283.444 70.935)" fill="#ff9ba7"/>
    <path id="패스_80895" data-name="패스 80895" d="M.062.282A3.4,3.4,0,0,0,1.094.653c.182.061.268-.222.088-.284A3.181,3.181,0,0,1,.218.03C.066-.086-.089.167.062.282" transform="translate(283.157 69.563)" fill="#ff9ba7"/>
    <path id="패스_80896" data-name="패스 80896" d="M.027.135A2.882,2.882,0,0,0,.1,1.236a.148.148,0,0,0,.289-.068A2.657,2.657,0,0,1,.323.147c.031-.189-.266-.2-.3-.012" transform="translate(284.977 68.047)" fill="#ff9ba7"/>
    <path id="패스_80897" data-name="패스 80897" d="M.71.278A.36.36,0,1,1,.278.01.36.36,0,0,1,.71.278" transform="translate(284.881 67.582)" fill="#ff9ba7"/>
    <path id="패스_80898" data-name="패스 80898" d="M.71.278A.36.36,0,1,1,.278.01.359.359,0,0,1,.71.278" transform="translate(282.667 69.231)" fill="#ff9ba7"/>
    <path id="패스_80899" data-name="패스 80899" d="M.71.278A.36.36,0,1,1,.278.01.36.36,0,0,1,.71.278" transform="translate(283.059 70.9)" fill="#ff9ba7"/>
    <path id="패스_80900" data-name="패스 80900" d="M.71.278A.36.36,0,1,1,.278.01.36.36,0,0,1,.71.278" transform="translate(283.43 72.246)" fill="#ff9ba7"/>
    <path id="패스_80901" data-name="패스 80901" d="M4.091.006c-2.448.182-.973,3.576-.973,3.576a13.967,13.967,0,0,0,.638,1.845A22.154,22.154,0,0,1,.2,7.571c-.753.167.661,3.446,3.267,2.042,2.408-1.3,1.712-3.673.633-4.158.118-.141.267-.392.492-.7.792-1.088,1.946-4.929-.5-4.747" transform="translate(283.161 65.582)" fill="#fff"/>
    <path id="패스_80902" data-name="패스 80902" d="M1.792,12.017c2.951.993,5.329-1.294,6.438-2.668.956,2.332,2.929,5.726,5.966,4.317a5.516,5.516,0,0,0,2.9-6.124c1.8.292,3.549-.393,3.773-3.327C21.232-.5,17.123-.374,15.277.426L15.3.282S8.1-.333,6.534.257C5.972.47,5.79,1.511,5.706,2.575l-.386-.7c-3.9.455-7.643,8.761-3.528,10.146" transform="translate(306.822 26.863)" fill="#ffe3e3"/>
    <path id="패스_80903" data-name="패스 80903" d="M.045,3.256S1.124,6.644,4.052,5.345,6.466,1.912,5.624,1.088,3.783-.842.925,1.011a2.469,2.469,0,0,0-.88,2.246" transform="translate(312.68 26.894)" fill="#ffc7c6"/>
    <path id="패스_80904" data-name="패스 80904" d="M2.03.606C1.479.4.927.185.361.013c-.334-.1-.52.411-.183.513C.744.7,1.3.908,1.847,1.12A.273.273,0,0,0,2.03.606" transform="translate(318.134 28.749)" fill="#ff9ba7"/>
    <path id="패스_80905" data-name="패스 80905" d="M1.436.82C1.089.577.744.331.416.061.145-.163-.166.285.1.507c.328.27.673.516,1.02.759A.273.273,0,0,0,1.436.82" transform="translate(317.827 30.718)" fill="#ff9ba7"/>
    <path id="패스_80906" data-name="패스 80906" d="M1.274,2.024A6.239,6.239,0,0,0,.519.157C.381-.167-.113.062.024.384A5.829,5.829,0,0,1,.737,2.119c.028.35.564.253.537-.094" transform="translate(316.401 31.927)" fill="#ff9ba7"/>
    <path id="패스_80907" data-name="패스 80907" d="M.459,1.868A5.308,5.308,0,0,0,1.882.426.273.273,0,0,0,1.436.113,4.895,4.895,0,0,1,.112,1.448c-.3.189.055.607.347.42" transform="translate(312.752 31.673)" fill="#ff9ba7"/>
    <path id="패스_80908" data-name="패스 80908" d="M.12.281a.661.661,0,1,1,.162.92A.661.661,0,0,1,.12.281" transform="translate(311.934 32.847)" fill="#ff9ba7"/>
    <path id="패스_80909" data-name="패스 80909" d="M.12.282a.661.661,0,1,1,.161.92A.66.66,0,0,1,.12.282" transform="translate(316.901 33.862)" fill="#ff9ba7"/>
    <path id="패스_80910" data-name="패스 80910" d="M.12.281a.661.661,0,1,1,.162.92A.661.661,0,0,1,.12.281" transform="translate(318.708 31.284)" fill="#ff9ba7"/>
    <path id="패스_80911" data-name="패스 80911" d="M.12.281a.661.661,0,1,1,.162.92A.661.661,0,0,1,.12.281" transform="translate(320.095 29.13)" fill="#ff9ba7"/>
    <path id="패스_80912" data-name="패스 80912" d="M.872,11.329C4.116,14.458,6.96,8.286,6.96,8.286A25.671,25.671,0,0,0,8.7,5.155c.987.232,6.246,1.494,7.287,2.242,1.15.826,3.909-5.123-1.2-6.973C10.065-1.284,7.664,2.577,8.321,4.647c-.337.011-.864.114-1.562.184C4.3,5.078-2.372,8.2.872,11.329" transform="translate(306.038 22.306)" fill="#fff"/>
    <path id="패스_80913" data-name="패스 80913" d="M.137,3.542C.954,5.605,3.292,5.848,4.55,5.821c-.83,1.593-1.771,4.228.392,5.234A3.932,3.932,0,0,0,9.612,9.818c.669,1.115,1.846,1.752,3.547.525,2.734-1.973.776-4.151-.51-4.789l.089-.054S9.76,1.3,8.721.716C8.347.508,7.7.888,7.078,1.331L7.284.8C5.24-1.119-1,.664.137,3.542" transform="translate(300.084 109.385)" fill="#ffe3e3"/>
    <path id="패스_80914" data-name="패스 80914" d="M.434.593S-.914,2.738,1.14,3.735s2.98-.264,3.041-1.1S4.385.743,2.062.039A1.762,1.762,0,0,0,.434.593" transform="translate(306.431 110.558)" fill="#ffc7c6"/>
    <path id="패스_80915" data-name="패스 80915" d="M.825,1.3C.686.9.546.505.38.118.282-.11-.083.024.017.255c.166.387.306.784.444,1.181A.194.194,0,0,0,.825,1.3" transform="translate(309.894 113.536)" fill="#ff9ba7"/>
    <path id="패스_80916" data-name="패스 80916" d="M.443,1.075C.415.774.391.474.387.171.384-.08,0-.043,0,.206c0,.3.029.6.056.9a.194.194,0,0,0,.387-.035" transform="translate(308.674 114.274)" fill="#ff9ba7"/>
    <path id="패스_80917" data-name="패스 80917" d="M.352,1.541A4.432,4.432,0,0,0,1.022.271C1.136.047.783-.117.671.106A4.168,4.168,0,0,1,.055,1.292c-.178.176.121.424.3.249" transform="translate(306.72 114.052)" fill="#ff9ba7"/>
    <path id="패스_80918" data-name="패스 80918" d="M.147.392A3.777,3.777,0,0,0,1.586.5.194.194,0,0,0,1.552.116,3.477,3.477,0,0,1,.216.01C-.023-.065-.089.319.147.392" transform="translate(305.096 112.583)" fill="#ff9ba7"/>
    <path id="패스_80919" data-name="패스 80919" d="M.429,0A.471.471,0,1,1,0,.513.471.471,0,0,1,.429,0" transform="translate(304.507 112.154)" fill="#ff9ba7"/>
    <path id="패스_80920" data-name="패스 80920" d="M.428,0A.471.471,0,1,1,0,.513.47.47,0,0,1,.428,0" transform="translate(306.239 115.324)" fill="#ff9ba7"/>
    <path id="패스_80921" data-name="패스 80921" d="M.429,0A.471.471,0,1,1,0,.513.47.47,0,0,1,.429,0" transform="translate(308.473 115.122)" fill="#ff9ba7"/>
    <path id="패스_80922" data-name="패스 80922" d="M.428,0A.471.471,0,1,1,0,.513.471.471,0,0,1,.428,0" transform="translate(310.285 114.886)" fill="#ff9ba7"/>
    <path id="패스_80923" data-name="패스 80923" d="M.007,1.664C-.2,4.869,4.463,3.579,4.463,3.579A18.288,18.288,0,0,0,6.97,3.09c.327.644,2.058,4.087,2.13,5,.079,1.006,4.587-.227,3.243-3.861C11.1.869,7.9,1.337,7.07,2.647c-.161-.178-.459-.418-.819-.766C4.987.656.219-1.542.007,1.664" transform="translate(302.288 107.924)" fill="#fff"/>
    <path id="패스_80924" data-name="패스 80924" d="M0,1.5C-.078,3.219,1.495,4.136,2.391,4.517,1.3,5.377-.205,6.937,1,8.335a3.044,3.044,0,0,0,3.689.616c.117,1,.744,1.824,2.336,1.5C9.584,9.93,8.9,7.769,8.192,6.909l.08-.009S7.51,2.983,6.961,2.243c-.2-.266-.778-.205-1.355-.089l.315-.311C5.089-.161.117-.89,0,1.5" transform="translate(259.146 37.535)" fill="#ffe3e3"/>
    <path id="패스_80925" data-name="패스 80925" d="M.9.118S-.733,1.2.4,2.559s2.187.763,2.5.192S3.642,1.482,2.227.245A1.363,1.363,0,0,0,.9.118" transform="translate(263.502 39.784)" fill="#ffc7c6"/>
    <path id="패스_80926" data-name="패스 80926" d="M.3,1.131C.33.806.358.481.364.155c0-.193-.3-.214-.3-.02C.058.462.03.787,0,1.111a.151.151,0,0,0,.3.019" transform="translate(265.649 42.599)" fill="#ff9ba7"/>
    <path id="패스_80927" data-name="패스 80927" d="M.293.848C.37.627.449.407.542.192.62.014.335-.083.258.093.165.308.086.528.009.749a.15.15,0,0,0,.284.1" transform="translate(264.362 42.733)" fill="#ff9ba7"/>
    <path id="패스_80928" data-name="패스 80928" d="M.218.946A3.439,3.439,0,0,0,1.1.263C1.246.141,1.05-.087.9.035a3.217,3.217,0,0,1-.813.64C-.1.743.038,1.013.218.946" transform="translate(262.917 42.156)" fill="#ff9ba7"/>
    <path id="패스_80929" data-name="패스 80929" d="M.054.283a2.923,2.923,0,0,0,.98.537.15.15,0,0,0,.1-.284,2.7,2.7,0,0,1-.908-.5C.08-.093-.089.157.054.283" transform="translate(262.624 40.388)" fill="#ff9ba7"/>
    <path id="패스_80930" data-name="패스 80930" d="M.484.02A.365.365,0,1,1,.02.245.365.365,0,0,1,.484.02" transform="translate(262.238 39.975)" fill="#ff9ba7"/>
    <path id="패스_80931" data-name="패스 80931" d="M.484.02A.365.365,0,1,1,.02.245.365.365,0,0,1,.484.02" transform="translate(262.45 42.764)" fill="#ff9ba7"/>
    <path id="패스_80932" data-name="패스 80932" d="M.484.02A.364.364,0,1,1,.02.245.364.364,0,0,1,.484.02" transform="translate(264.091 43.334)" fill="#ff9ba7"/>
    <path id="패스_80933" data-name="패스 80933" d="M.484.02A.365.365,0,1,1,.02.245.364.364,0,0,1,.484.02" transform="translate(265.444 43.744)" fill="#ff9ba7"/>
    <path id="패스_80934" data-name="패스 80934" d="M.229.769C-.942,2.964,2.763,3.54,2.763,3.54a14.124,14.124,0,0,0,1.925.454A22.448,22.448,0,0,1,4.6,8.2c-.265.735,3.309,1.3,3.519-1.692C8.312,3.744,5.9,3.052,4.9,3.714c-.057-.177-.191-.441-.333-.8C4.065,1.645,1.4-1.425.229.769" transform="translate(261.448 36.572)" fill="#fff"/>
    <path id="패스_80997" data-name="패스 80997" d="M7.576,3.41s-.645,6.1-5.531,6.384.368-4.959,1.517-8.175C3.884.719,7.49-2.338,7.576,3.41" transform="translate(105.378 181.528)" fill="#ffc7c6"/>
    <path id="패스_80998" data-name="패스 80998" d="M7.577,3.41s-.645,6.1-5.531,6.384.368-4.959,1.517-8.175C3.884.719,7.49-2.338,7.577,3.41" transform="translate(228.743 194.772)" fill="#fff"/>
    <path id="패스_81003" data-name="패스 81003" d="M3.389.858s-5,3.551-2.854,7.95S4.678,6.057,6.918,3.48C7.544,2.758,8.441-1.883,3.389.858" transform="translate(58.31 19.739)" fill="#fff"/>
    <path id="패스_81005" data-name="패스 81005" d="M2,.507s-2.956,2.1-1.688,4.7,2.45-1.627,3.775-3.151c.371-.427.9-3.171-2.087-1.55" transform="translate(232.093 119.693)" fill="#fff"/>
    <path id="패스_81006" data-name="패스 81006" d="M8.981,3.864S6.339,9.4,1.637,8.038s2-4.553,4.156-7.2c.6-.741,5.023-2.42,3.187,3.027" transform="translate(-18.124 341.479)" fill="#ffc7c6"/>
    <path id="패스_81007" data-name="패스 81007" d="M5.644,2.428S3.984,5.9,1.029,5.051,2.286,2.19,3.641.525C4.02.06,6.8-1,5.644,2.428" transform="translate(262.565 59.404)" fill="#ffc7c6"/>
    <path id="패스_81008" data-name="패스 81008" d="M5.644,2.428S3.984,5.905,1.029,5.051,2.286,2.19,3.641.525C4.02.06,6.8-1,5.644,2.428" transform="translate(196.139 28.984)" fill="#ffc7c6"/>
    <path id="패스_81009" data-name="패스 81009" d="M8.981,3.864S6.339,9.4,1.637,8.038s2-4.553,4.156-7.2c.6-.741,5.023-2.42,3.187,3.027" transform="translate(306.412 168.962)" fill="#ffc7c6"/>
  </g>
</svg>
