<svg xmlns="http://www.w3.org/2000/svg" width="48" height="48" viewBox="0 0 48 48">
    <path style="fill:none" d="M0 0h48v48H0z"/>
    <path data-name="패스 81044" d="M21.962 34.224c-.241.061-.483.118-.728.169A17 17 0 1 1 34.4 14.3" transform="translate(4.25 6.249)" style="stroke-linecap:round;stroke-miterlimit:10;stroke-width:1.5px;stroke:#1a1311;fill:none"/>
    <path d="m-12328.249 16779.717 3.5 3.533zm-11.752-4.967a6.753 6.753 0 0 1 6.752-6.752 6.749 6.749 0 0 1 6.747 6.752 6.749 6.749 0 0 1-6.747 6.752 6.753 6.753 0 0 1-6.751-6.752z" transform="translate(12368 -16741.997)" style="stroke-linejoin:round;stroke:#2f8af3;stroke-linecap:round;stroke-miterlimit:10;stroke-width:1.5px;fill:none"/>
    <path d="m0 0 2.5 6.364L5.091 0l2.881 6.364L10.182 0" transform="translate(16.41 20.499)" style="stroke:#000;stroke-linejoin:round;stroke-linecap:round;stroke-miterlimit:10;stroke-width:1.5px;fill:none"/>
    <path data-name="Path" d="M3.387.5H.841" transform="translate(13.658 22.545)" style="stroke:#000;stroke-linejoin:round;stroke-linecap:round;stroke-miterlimit:10;stroke-width:1.5px;fill:none"/>
    <path data-name="Path" d="M3.387.5H.841" transform="translate(25.112 22.545)" style="stroke:#000;stroke-linejoin:round;stroke-linecap:round;stroke-miterlimit:10;stroke-width:1.5px;fill:none"/>
</svg>
