<svg xmlns="http://www.w3.org/2000/svg" width="48" height="48" viewBox="0 0 48 48">
    <path style="fill:none" d="M0 0h48v48H0z"/>
    <path data-name="패스 81038" d="M8.04 5.75H3.271a2.5 2.5 0 1 1 0-5h32.958a2.5 2.5 0 1 1 0 5m0 0h-4.853M7.75.751h24v26a4 4 0 0 1-4 4h-16a4 4 0 0 1-4-4z" transform="translate(4.25 8.25)" style="stroke:#fff;stroke-width:1.5px;fill:none"/>
    <path d="m0 0 1.962 5L4 0l2.264 5L8 0" transform="translate(20.001 21.251)" style="stroke-miterlimit:10;stroke-linecap:round;stroke-linejoin:round;stroke:#fff;stroke-width:1.5px;fill:none"/>
    <path data-name="Path" d="M2.841.5h-2" transform="translate(17.659 22.751)" style="stroke-miterlimit:10;stroke-linecap:round;stroke-linejoin:round;stroke:#fff;stroke-width:1.5px;fill:none"/>
    <path data-name="Path" d="M2.841.5h-2" transform="translate(26.658 22.751)" style="stroke-miterlimit:10;stroke-linecap:round;stroke-linejoin:round;stroke:#fff;stroke-width:1.5px;fill:none"/>
    <path data-name="합치기 6" d="M-12619.746 16780.07a1.248 1.248 0 0 1 1.247-1.252 1.252 1.252 0 0 1 1.251 1.252 1.251 1.251 0 0 1-1.251 1.25 1.247 1.247 0 0 1-1.247-1.25zm0-14a1.246 1.246 0 0 1 1.247-1.25 1.25 1.25 0 0 1 1.251 1.25 1.25 1.25 0 0 1-1.251 1.25 1.246 1.246 0 0 1-1.247-1.25z" transform="translate(12642.247 -16749.57)" style="fill:#fff;stroke:transparent;stroke-miterlimit:10"/>
</svg>
