<svg id="ico_h_link_06_hover" xmlns="http://www.w3.org/2000/svg" width="48" height="48" viewBox="0 0 48 48">
  <rect id="area" width="48" height="48" fill="none"/>
  <g id="ic" transform="translate(-2.23 -0.841)">
    <path id="패스_81078" data-name="패스 81078" d="M8.019,5.75H3.25a2.5,2.5,0,0,1,0-5H36.208a2.5,2.5,0,0,1,0,5m0,0H31.355M7.729.751h24v26a4,4,0,0,1-4,4h-16a4,4,0,0,1-4-4Z" transform="translate(6.48 9.09)" fill="none" stroke="#fff" stroke-width="1.5"/>
    <path id="패스_81079" data-name="패스 81079" d="M15.481,13.251l1.961,5,2.038-5,2.264,5,1.736-5m-7.5,2h-2m11,0h-2" transform="translate(6.48 9.09)" fill="none" stroke="#fff" stroke-linecap="round" stroke-linejoin="round" stroke-width="1.5"/>
    <path id="패스_81080" data-name="패스 81080" d="M18.23,23.25A1.248,1.248,0,0,1,19.474,22h0a1.251,1.251,0,1,1-1.247,1.256Zm0-15A1.247,1.247,0,0,1,19.472,7h0a1.251,1.251,0,0,1,1.251,1.248v0a1.251,1.251,0,0,1-1.25,1.25h0A1.247,1.247,0,0,1,18.23,8.256Z" transform="translate(6.48 9.09)" fill="#fff"/>
  </g>
</svg>
