<svg id="ico_h_link_04" xmlns="http://www.w3.org/2000/svg" width="48" height="48" viewBox="0 0 48 48">
  <rect id="area" width="48" height="48" fill="none"/>
  <g id="ic" transform="translate(-6.563 45.284)">
    <path id="패스_81075" data-name="패스 81075" d="M21.961,34.224c-.241.061-.483.118-.728.169a17,17,0,1,1,13.16-20.12l.006.027" transform="translate(10.813 -39.035)" fill="none" stroke="#000" stroke-linecap="round" stroke-width="1.5"/>
    <path id="패스_81076" data-name="패스 81076" d="M35.5,31.471,39,35ZM23.749,26.5a6.75,6.75,0,1,1,13.5,0v0A6.749,6.749,0,0,1,30.5,33.256h0A6.753,6.753,0,0,1,23.75,26.5Z" transform="translate(10.813 -39.035)" fill="none" stroke="#2f8af3" stroke-linecap="round" stroke-linejoin="round" stroke-width="1.5"/>
    <path id="패스_81077" data-name="패스 81077" d="M11.66,14.571l2.5,6.364,2.591-6.364,2.881,6.364,2.21-6.364M12.3,17.117H9.749m14,0H21.2" transform="translate(10.813 -39.035)" fill="none" stroke="#000" stroke-linecap="round" stroke-linejoin="round" stroke-width="1.5"/>
  </g>
</svg>
