<svg xmlns="http://www.w3.org/2000/svg" width="64" height="64" viewBox="0 0 64 64">
    <path style="fill:none" d="M0 0h64v64H0z"/>
    <path data-name="패스 81059" d="M41 39H1V8.248A7.377 7.377 0 0 1 8.5 1h25A7.377 7.377 0 0 1 41 8.248z" transform="translate(11 8)" style="stroke-linejoin:round;stroke:#333;stroke-linecap:round;stroke-width:1.5px;fill:none"/>
    <path data-name="패스 81068" d="M0 0h28v10H0z" transform="translate(18 17)" style="stroke:#333;stroke-linecap:round;stroke-width:1.5px;fill:none"/>
    <path data-name="패스 81061" d="M13.807 29.866a3.5 3.5 0 1 1-3.5-3.5 3.5 3.5 0 0 1 3.5 3.5z" transform="translate(11.193 6.633)" style="fill:#366cc3"/>
    <path data-name="패스 81063" d="M27.753 29.866a3.5 3.5 0 1 0 3.5-3.5 3.5 3.5 0 0 0-3.5 3.5z" transform="translate(11.746 6.633)" style="fill:#366cc3"/>
    <path data-name="패스 81065" d="M8.276 48.374H6.982a2.849 2.849 0 0 1-2.853-2.845v-6.155h7v6.155a2.849 2.849 0 0 1-2.853 2.845z" transform="translate(11.371 7.626)" style="stroke-linejoin:round;stroke:#333;stroke-linecap:round;stroke-width:1.5px;fill:none"/>
    <path data-name="패스 81067" d="M32.226 48.374h1.294a2.849 2.849 0 0 0 2.853-2.845v-6.155h-7v6.155a2.849 2.849 0 0 0 2.853 2.845z" transform="translate(11.127 7.626)" style="stroke-linejoin:round;stroke:#333;stroke-linecap:round;stroke-width:1.5px;fill:none"/>
</svg>
