<svg xmlns="http://www.w3.org/2000/svg" width="48" height="48" viewBox="0 0 48 48">
    <path style="fill:none" d="M0 0h48v48H0z"/>
    <path data-name="합치기 2" d="M16246.817 19346.3h0zm0-6h0zm0-6h0z" transform="translate(-16231.818 -19313.309)" style="stroke-linecap:round;stroke-linejoin:round;stroke-width:1.5px;stroke:#000;fill:none"/>
    <path data-name="패스 81033" d="M26.5 17.5v11.821a3.141 3.141 0 0 1-3.082 3.179H4.582A3.141 3.141 0 0 1 1.5 29.321V4.679A3.141 3.141 0 0 1 4.582 1.5H18.39" transform="translate(6.5 8.5)" style="stroke-linecap:round;stroke-linejoin:round;stroke-width:1.5px;stroke:#000;fill:none"/>
    <path data-name="패스 19372" d="m17.58 24.582-1.5 5.752 5.752-1.5-2.132-2.128z" transform="translate(7.923 -7.334)" style="stroke:#3691f9;stroke-linecap:round;stroke-linejoin:round;stroke-width:1.5px;fill:none"/>
    <path data-name="패스 19374" d="M33.424 6.318a1.89 1.89 0 0 0 0-2.673l-1.59-1.591a1.891 1.891 0 0 0-2.673 0l-9.678 9.678L23.746 16z" transform="translate(6.021 5.499)" style="stroke:#2f8af3;stroke-linecap:round;stroke-linejoin:round;stroke-width:1.5px;fill:none"/>
</svg>
