<svg xmlns="http://www.w3.org/2000/svg" width="64" height="64" viewBox="0 0 64 64">
    <path style="fill:none" d="M0 0h64v64H0z"/>
    <path data-name="패스 81054" d="m7.869 14.5 3.493-9.973C11.947 2.863 14.32 1.5 16.636 1.5H31.1c2.316 0 4.689 1.363 5.273 3.027l3.496 9.973" transform="translate(8.131 11.5)" style="stroke:#333;stroke-linecap:round;stroke-linejoin:round;stroke-width:1.5px;fill:none"/>
    <path data-name="패스 81055" d="M8.166 34.73a3 3 0 0 0 6 0v-4.013h-6z" transform="translate(8.334 14.283)" style="stroke:#333;stroke-linecap:round;stroke-linejoin:round;stroke-width:1.5px;fill:none"/>
    <path data-name="패스 81056" d="M32.01 34.73a3 3 0 0 0 6 0v-4.013h-6z" transform="translate(8.49 14.283)" style="stroke:#333;stroke-linecap:round;stroke-linejoin:round;stroke-width:1.5px;fill:none"/>
    <path data-name="패스 81057" d="M40.539 14.234H6.46a5.133 5.133 0 0 0-4.96 5.293v7.412a5.135 5.135 0 0 0 4.961 5.295h34.078a5.136 5.136 0 0 0 4.961-5.295v-7.412a5.134 5.134 0 0 0-4.961-5.293z" transform="translate(8.5 12.5)" style="stroke:#333;stroke-linecap:round;stroke-linejoin:round;stroke-width:1.5px;fill:none"/>
    <path data-name="패스 81052" d="M13.742 22.583a3.5 3.5 0 1 1-3.5-3.5 3.5 3.5 0 0 1 3.5 3.5z" transform="translate(9.758 12.918)" style="fill:#366cc3"/>
    <path data-name="패스 81053" d="M39.467 22.583a3.5 3.5 0 1 1-3.5-3.5 3.5 3.5 0 0 1 3.5 3.5z" transform="translate(8.033 12.918)" style="fill:#366cc3"/>
</svg>
