<svg id="ico_h_link_02_hover" xmlns="http://www.w3.org/2000/svg" width="48" height="48" viewBox="0 0 48 48">
  <rect id="area" width="48" height="48" fill="none"/>
  <g id="ic" transform="translate(5 7)">
    <path id="패스_81072" data-name="패스 81072" d="M30.892,11.137A15.463,15.463,0,0,0,16.25.75m0,0A15.435,15.435,0,0,0,3.577,25.089L1.517,32.75,10.2,30.43a15.4,15.4,0,0,0,6.012,1.25" transform="translate(-0.75 -0.75)" fill="none" stroke="#fff" stroke-linecap="round" stroke-linejoin="round" stroke-width="1.5"/>
    <path id="패스_81073" data-name="패스 81073" d="M29.75,15.75a9.833,9.833,0,0,1,10,9.657,9.384,9.384,0,0,1-1.824,5.555l1.329,4.788-5.6-1.45a10.285,10.285,0,0,1-3.9.761,9.831,9.831,0,0,1-10-9.654,9.833,9.833,0,0,1,10-9.657" transform="translate(-0.75 -0.75)" fill="none" stroke="#fff" stroke-linecap="round" stroke-linejoin="round" stroke-width="1.5"/>
    <path id="패스_81074" data-name="패스 81074" d="M19.25,15.252a1.5,1.5,0,1,1,1.5,1.5,1.5,1.5,0,0,1-1.5-1.5m-5.5,0a1.5,1.5,0,1,1,1.5,1.5,1.5,1.5,0,0,1-1.5-1.5m-5.5,0a1.5,1.5,0,1,1,1.5,1.5,1.5,1.5,0,0,1-1.5-1.5" transform="translate(-0.75 -0.75)" fill="#fff"/>
  </g>
</svg>
