<svg id="ico_h_link_05" xmlns="http://www.w3.org/2000/svg" width="48" height="48" viewBox="0 0 48 48">
  <rect id="area" width="48" height="48" fill="none"/>
  <g id="ic" transform="translate(-41 -11.511)">
    <path id="패스_81069" data-name="패스 81069" d="M25.75,20.662V32.483a3.14,3.14,0,0,1-3.082,3.179H3.832A3.14,3.14,0,0,1,.75,32.483V7.841A3.14,3.14,0,0,1,3.832,4.662H17.64" transform="translate(50.25 17.762)" fill="none" stroke="#000" stroke-linecap="round" stroke-linejoin="round" stroke-width="1.5"/>
    <path id="패스_81070" data-name="패스 81070" d="M17.712,11l-1.5,5.752,5.752-1.5-2.132-2.128ZM31.654,5.567a1.89,1.89,0,0,0,0-2.673L30.064,1.3a1.89,1.89,0,0,0-2.673,0l-9.678,9.678,4.263,4.268Z" transform="translate(52.25 16.762)" fill="none" stroke="#2f8af3" stroke-linecap="round" stroke-linejoin="round" stroke-width="1.5"/>
    <path id="패스_81071" data-name="패스 81071" d="M7.75,21.658h11m-11-6h4m-4,12h11" transform="translate(50.25 17.762)" fill="none" stroke="#000" stroke-linecap="round" stroke-linejoin="round" stroke-width="1.5"/>
  </g>
</svg>
