<svg xmlns="http://www.w3.org/2000/svg" width="48" height="48" viewBox="0 0 48 48">
    <path style="fill:none" d="M0 0h48v48H0z"/>
    <path data-name="패스 81032" d="M30.892 11.137A15.463 15.463 0 0 0 16.25.75m0 0A15.435 15.435 0 0 0 3.577 25.089l-2.06 7.661 8.683-2.32a15.406 15.406 0 0 0 6.012 1.25" transform="translate(4.25 6.25)" style="stroke:#fff;stroke-linecap:round;stroke-linejoin:round;stroke-width:1.5px;fill:none"/>
    <path data-name="패스 36984" d="M10 9a9.833 9.833 0 0 1 10 9.657 9.38 9.38 0 0 1-1.824 5.555L19.505 29 13.9 27.55a10.287 10.287 0 0 1-3.9.761 9.832 9.832 0 0 1-10-9.654A9.833 9.833 0 0 1 10 9" transform="translate(24 13)" style="stroke:#fff;stroke-linecap:round;stroke-linejoin:round;stroke-width:1.5px;fill:none"/>
    <path data-name="합치기 3" d="M17434.086 18324.143a1.5 1.5 0 1 1 1.5 1.5 1.5 1.5 0 0 1-1.5-1.5zm-5.5 0a1.5 1.5 0 1 1 1.5 1.5 1.5 1.5 0 0 1-1.5-1.5zm-5.5 0a1.5 1.5 0 1 1 1.5 1.5 1.5 1.5 0 0 1-1.5-1.5z" transform="translate(-17410.586 -18302.641)" style="fill:#fff"/>
</svg>
