<svg id="ico_h_link_03" xmlns="http://www.w3.org/2000/svg" width="48" height="48" viewBox="0 0 48 48">
  <rect id="area" width="48" height="48" fill="none"/>
  <g id="ic" transform="translate(4.5 9.3)">
    <path id="패스_81048" data-name="패스 81048" d="M13.679,23.764H7.508L3.47,30.976a1.494,1.494,0,0,1-2.717-.953V7.473A7.511,7.511,0,0,1,8.034-.25H25.765c4.142.125,7.4,4.581,7.281,8.723m0-1" transform="translate(-1.25 -1.049)" fill="none" stroke="#070203" stroke-linecap="round" stroke-width="1.5"/>
    <path id="패스_81049" data-name="패스 81049" d="M.752,6.532v3.686A4.65,4.65,0,0,0,5.26,15H16.565l2.5,4.467a.925.925,0,0,0,1.682-.588V5.532A4.65,4.65,0,0,0,16.24.75H9.368" transform="translate(18.5 10.699)" fill="none" stroke="#2f8af3" stroke-linecap="round" stroke-width="1.5"/>
    <path id="패스_36987" data-name="패스 36987" d="M-4.312-5.107V-6.3H-8.928V.117h1.413V-2.22h2.827V-3.411H-7.515v-1.7ZM.7.117H2.179L-.552-6.3h-1.4L-4.67.117h1.448l.541-1.375H.155Zm-2.923-2.5.968-2.456L-.29-2.385ZM8.444.016a1.3,1.3,0,0,1-.995.477A1.108,1.108,0,0,1,6.585.043,3.215,3.215,0,0,0,8.767-3.091,3.234,3.234,0,0,0,5.425-6.408,3.234,3.234,0,0,0,2.083-3.091,3.218,3.218,0,0,0,4.936.2,3.141,3.141,0,0,0,7.423,1.592,2.03,2.03,0,0,0,9.072.8ZM3.514-3.091A1.913,1.913,0,0,1,5.425-5.143,1.913,1.913,0,0,1,7.336-3.091,1.913,1.913,0,0,1,5.425-1.038,1.913,1.913,0,0,1,3.514-3.091Z" transform="translate(15.928 13.607)"/>
  </g>
</svg>
