<svg xmlns="http://www.w3.org/2000/svg" width="48" height="48" viewBox="0 0 48 48">
    <path style="fill:none" d="M0 0h48v48H0z"/>
    <path data-name="패스 81048" d="M13.679 23.764H7.508L3.47 30.976a1.494 1.494 0 0 1-2.717-.953V7.473A7.511 7.511 0 0 1 8.034-.25h17.731c4.142.125 7.4 4.581 7.281 8.723m0-1" transform="translate(3.25 8.251)" style="stroke-linecap:round;stroke-width:1.5px;stroke:#070203;fill:none"/>
    <path data-name="패스 81049" d="M.752 6.532v3.686A4.65 4.65 0 0 0 5.26 15h11.305l2.5 4.467a.925.925 0 0 0 1.682-.588V5.532A4.65 4.65 0 0 0 16.24.75H9.368" transform="translate(23 19.999)" style="stroke:#2f8af3;stroke-linecap:round;stroke-width:1.5px;fill:none"/>
    <path data-name="패스 36987" d="M16.116 17.8v-1.193H11.5v6.417h1.413v-2.337h2.827v-1.191h-2.827v-1.7zm5.012 5.224h1.479l-2.731-6.417h-1.4l-2.718 6.417h1.448l.541-1.375h2.836zm-2.923-2.5.968-2.456.965 2.454zm10.667 2.399a1.3 1.3 0 0 1-.995.477 1.108 1.108 0 0 1-.864-.45 3.215 3.215 0 0 0 2.182-3.134 3.234 3.234 0 0 0-3.342-3.317 3.234 3.234 0 0 0-3.342 3.317 3.218 3.218 0 0 0 2.853 3.291 3.141 3.141 0 0 0 2.487 1.392 2.03 2.03 0 0 0 1.649-.792zm-4.93-3.107a1.913 1.913 0 0 1 1.911-2.052 1.913 1.913 0 0 1 1.911 2.052 1.913 1.913 0 0 1-1.911 2.053 1.913 1.913 0 0 1-1.911-2.053z"/>
</svg>
